<?xml version="1.0" encoding="utf-8"?>
<!-- Generator: Adobe Illustrator 16.0.0, SVG Export Plug-In . SVG Version: 6.00 Build 0)  -->
<!DOCTYPE svg PUBLIC "-//W3C//DTD SVG 1.1//EN" "http://www.w3.org/Graphics/SVG/1.1/DTD/svg11.dtd">
<svg version="1.1" xmlns="http://www.w3.org/2000/svg" xmlns:xlink="http://www.w3.org/1999/xlink" x="0px" y="0px" width="768px"
	 height="768px" viewBox="0 0 768 768" enable-background="new 0 0 768 768" xml:space="preserve">
<g id="body">
	<linearGradient id="SVGID_1_" gradientUnits="userSpaceOnUse" x1="282.0562" y1="700.0889" x2="167.0483" y2="700.0889">
		<stop  offset="0" style="stop-color:#292939"/>
		<stop  offset="0.1765" style="stop-color:#282837"/>
		<stop  offset="1" style="stop-color:#262634"/>
	</linearGradient>
	<path fill="url(#SVGID_1_)" d="M282.056,846.811c0,20.864-25.746,37.778-57.504,37.778l0,0c-31.758,0-57.503-16.914-57.503-37.778
		V553.367c0-20.864,25.746-37.778,57.503-37.778l0,0c31.758,0,57.504,16.914,57.504,37.778V846.811z"/>
	
		<linearGradient id="SVGID_2_" gradientUnits="userSpaceOnUse" x1="694.3945" y1="715.5439" x2="581.3281" y2="715.5439" gradientTransform="matrix(0.9882 -0.1534 0.1534 0.9882 -103.2593 100.7049)">
		<stop  offset="0.147" style="stop-color:#393953"/>
		<stop  offset="0.4691" style="stop-color:#373750"/>
		<stop  offset="0.747" style="stop-color:#303045"/>
		<stop  offset="1" style="stop-color:#262634"/>
	</linearGradient>
	<path fill="url(#SVGID_2_)" d="M715.212,846.269c3.201,20.617-19.213,41.214-50.062,46.005l0,0
		c-30.85,4.79-58.455-8.04-61.656-28.657l-45.026-289.969c-3.202-20.617,19.213-41.214,50.062-46.005l0,0
		c30.851-4.79,58.455,8.04,61.657,28.657L715.212,846.269z"/>
	<path fill="#393953" d="M513.058,758.761c0,41.283-30.459,74.75-68.031,74.75h-72.354c-37.573,0-68.032-33.467-68.032-74.75v-204
		c0-41.283,30.458-74.75,68.032-74.75h72.354c37.572,0,68.031,33.467,68.031,74.75V758.761z"/>
	<linearGradient id="SVGID_3_" gradientUnits="userSpaceOnUse" x1="644" y1="663.0107" x2="185.9502" y2="663.0108">
		<stop  offset="0.147" style="stop-color:#393953"/>
		<stop  offset="0.4691" style="stop-color:#373750"/>
		<stop  offset="0.747" style="stop-color:#303045"/>
		<stop  offset="1" style="stop-color:#262634"/>
	</linearGradient>
	<path fill="url(#SVGID_3_)" d="M644,735.261c0,44.045-44.625,79.75-99.672,79.75H285.621c-55.047,0-99.671-35.705-99.671-79.75
		v-144.5c0-44.045,44.624-79.75,99.671-79.75h258.707c55.047,0,99.672,35.705,99.672,79.75V735.261z"/>
	<path fill="#ECE8E6" d="M454.504,758.245c0,11.192-8.843,20.266-19.75,20.266H398.7c-10.908,0-19.75-9.073-19.75-20.266
		l-47-246.392c0-11.191,8.842-20.266,19.75-20.266h116.054c10.907,0,19.75,9.074,19.75,20.266L454.504,758.245z"/>
	<path fill="#E31B28" d="M422.406,571.424c-2.636,2.636-6.829,2.717-9.364,0.182l-13.377-13.377
		c-2.535-2.535-2.454-6.729,0.182-9.364l12.375-12.374c2.636-2.637,6.828-2.718,9.363-0.182l13.377,13.376
		c2.535,2.536,2.455,6.729-0.182,9.364L422.406,571.424z"/>
	<g>
		<defs>
			<path id="SVGID_4_" d="M487.504,758.245c0,11.192-8.843,20.266-19.75,20.266H399.7c-10.908,0-19.75-9.073-19.75-20.266
				l-48-246.392c0-11.191,8.842-20.266,19.75-20.266h116.054c10.907,0,19.75,9.074,19.75,20.266V758.245z"/>
		</defs>
		<clipPath id="SVGID_5_">
			<use xlink:href="#SVGID_4_"  overflow="visible"/>
		</clipPath>
		<g clip-path="url(#SVGID_5_)">
			<linearGradient id="SVGID_6_" gradientUnits="userSpaceOnUse" x1="309.3354" y1="520.0107" x2="415.6094" y2="520.0107">
				<stop  offset="0" style="stop-color:#C3CACD"/>
				<stop  offset="0.0202" style="stop-color:#C6CCCF"/>
				<stop  offset="0.2434" style="stop-color:#DFE3E4"/>
				<stop  offset="0.4756" style="stop-color:#F1F2F3"/>
				<stop  offset="0.7207" style="stop-color:#FCFCFC"/>
				<stop  offset="1" style="stop-color:#FFFFFF"/>
			</linearGradient>
			<path fill="url(#SVGID_6_)" d="M412.889,528.059c2.991,2.226,3.61,6.454,1.385,9.445l-20.171,27.104
				c-2.226,2.99-6.453,3.611-9.445,1.386l-72.602-54.03c-2.991-2.226-3.61-6.454-1.385-9.445l20.171-27.104
				c2.226-2.99,6.454-3.611,9.445-1.385L412.889,528.059z"/>
			<path fill="#FFFFFF" d="M493.001,471.005c2.879-2.368,7.133-1.954,9.502,0.925l21.463,26.094c2.367,2.879,1.955,7.132-0.925,9.5
				l-69.893,57.492c-2.879,2.369-7.133,1.954-9.501-0.925l-21.463-26.093c-2.369-2.879-1.955-7.132,0.925-9.501L493.001,471.005z"/>
		</g>
	</g>
	<linearGradient id="SVGID_7_" gradientUnits="userSpaceOnUse" x1="415.3799" y1="534.458" x2="415.3799" y2="406.6279">
		<stop  offset="0" style="stop-color:#F4BFB5"/>
		<stop  offset="0.041" style="stop-color:#F1B8AC"/>
		<stop  offset="0.1984" style="stop-color:#E8A38E"/>
		<stop  offset="0.3652" style="stop-color:#E19277"/>
		<stop  offset="0.5438" style="stop-color:#DC8567"/>
		<stop  offset="0.7422" style="stop-color:#D97E5D"/>
		<stop  offset="1" style="stop-color:#D87C5A"/>
	</linearGradient>
	<path fill="url(#SVGID_7_)" d="M484.725,470.543c0,35.299-29.285,63.915-65.411,63.915h-7.865
		c-36.126,0-65.413-28.616-65.413-63.915l0,0c0-35.299,29.287-63.915,65.413-63.915h7.865
		C455.439,406.628,484.725,435.244,484.725,470.543L484.725,470.543z"/>
	<ellipse opacity="0.2" fill="#FCD9D4" cx="420.2" cy="506.011" rx="6.819" ry="7.125"/>
	<linearGradient id="SVGID_8_" gradientUnits="userSpaceOnUse" x1="282.0562" y1="700.0889" x2="167.0483" y2="700.0889">
		<stop  offset="0" style="stop-color:#282837;stop-opacity:0.2"/>
		<stop  offset="0.0019" style="stop-color:#282837;stop-opacity:0.2"/>
		<stop  offset="0.148" style="stop-color:#292939;stop-opacity:0.2"/>
		<stop  offset="0.2984" style="stop-color:#282837;stop-opacity:0.3412"/>
		<stop  offset="1" style="stop-color:#262634"/>
	</linearGradient>
	<path fill="url(#SVGID_8_)" d="M282.056,846.811c0,20.864-25.746,37.778-57.504,37.778l0,0c-31.758,0-57.503-16.914-57.503-37.778
		V553.367c0-20.864,25.746-37.778,57.503-37.778l0,0c31.758,0,57.504,16.914,57.504,37.778V846.811z"/>
	<g>
		<defs>
			<path id="SVGID_9_" d="M454.504,758.245c0,11.192-8.843,20.266-19.75,20.266H398.7c-10.908,0-19.75-9.073-19.75-20.266
				l-47-246.392c0-11.191,8.842-20.266,19.75-20.266h116.054c10.907,0,19.75,9.074,19.75,20.266L454.504,758.245z"/>
		</defs>
		<clipPath id="SVGID_10_">
			<use xlink:href="#SVGID_9_"  overflow="visible"/>
		</clipPath>
		<linearGradient id="SVGID_11_" gradientUnits="userSpaceOnUse" x1="481.791" y1="622.0742" x2="353.6374" y2="750.2278">
			<stop  offset="0" style="stop-color:#D41100"/>
			<stop  offset="0.1903" style="stop-color:#CF1203"/>
			<stop  offset="0.4267" style="stop-color:#BF160A"/>
			<stop  offset="0.6875" style="stop-color:#A61C16"/>
			<stop  offset="0.964" style="stop-color:#832527"/>
			<stop  offset="1" style="stop-color:#7E2629"/>
		</linearGradient>
		<path clip-path="url(#SVGID_10_)" fill="url(#SVGID_11_)" d="M457.2,770.878c0,4.215-3.021,7.633-6.75,7.633h-65.973
			c-3.729,0-6.75-3.418-6.75-7.633l32-200.956c0-4.215,3.021-7.632,6.75-7.632h2.973c3.729,0,6.75,3.417,6.75,7.632L457.2,770.878z"
			/>
	</g>
	<g>
		<defs>
			<path id="SVGID_12_" d="M484.725,470.543c0,35.299-29.285,63.915-65.411,63.915h-7.865c-36.126,0-65.413-28.616-65.413-63.915
				l0,0c0-35.299,29.287-63.915,65.413-63.915h7.865C455.439,406.628,484.725,435.244,484.725,470.543L484.725,470.543z"/>
		</defs>
		<clipPath id="SVGID_13_">
			<use xlink:href="#SVGID_12_"  overflow="visible"/>
		</clipPath>
		<path opacity="0.5" clip-path="url(#SVGID_13_)" fill="#DD5B65" d="M403.292,542.62c0.187,0.692-0.223,1.404-0.915,1.591l0,0
			c-0.691,0.188-1.404-0.223-1.591-0.915l-4.802-17.812c-0.187-0.692,0.223-1.404,0.915-1.591l0,0
			c0.691-0.187,1.404,0.224,1.591,0.915L403.292,542.62z"/>
		<path opacity="0.5" clip-path="url(#SVGID_13_)" fill="#DD5B65" d="M433.493,542.296c-0.187,0.692-0.897,1.103-1.59,0.916l0,0
			c-0.692-0.185-1.103-0.898-0.916-1.591l4.796-17.813c0.187-0.692,0.898-1.103,1.591-0.916l0,0
			c0.691,0.187,1.102,0.899,0.915,1.591L433.493,542.296z"/>
		<path opacity="0.3" clip-path="url(#SVGID_13_)" fill="#DD5B65" d="M464.782,526.236c-0.075,0.714-0.639,1.238-1.261,1.174l0,0
			c-0.621-0.064-1.064-0.696-0.989-1.41l1.922-18.347c0.075-0.714,0.639-1.239,1.261-1.173l0,0c0.62,0.065,1.064,0.696,0.989,1.409
			L464.782,526.236z"/>
		<path opacity="0.3" clip-path="url(#SVGID_13_)" fill="#DD5B65" d="M361.782,523.236c-0.075,0.714-0.639,1.238-1.261,1.174l0,0
			c-0.621-0.064-1.064-0.696-0.989-1.41l1.922-18.347c0.075-0.714,0.639-1.239,1.261-1.173l0,0c0.62,0.065,1.064,0.696,0.989,1.409
			L361.782,523.236z"/>
	</g>
</g>
<g id="head">
	<g>
		<g>
			<path fill="#D8A66F" d="M264.802,338.561c0,14.617-11.24,26.467-25.106,26.467l0,0c-13.865,0-25.106-11.85-25.106-26.467v-26.182
				c0-14.617,11.241-26.467,25.106-26.467l0,0c13.866,0,25.106,11.85,25.106,26.467V338.561z"/>
			<path opacity="0.3" fill="#423930" d="M268.059,324.747c0,14.617-11.24,26.465-25.106,26.465l0,0
				c-13.865,0-25.106-11.848-25.106-26.465v-26.183c0-14.617,11.241-26.466,25.106-26.466l0,0c13.866,0,25.106,11.85,25.106,26.466
				V324.747z"/>
			<path fill="#EAD1A4" d="M591.126,253.023c0,5.646-4.893,10.223-10.926,10.223l0,0c-6.035,0-10.925-4.577-10.925-10.223V141.019
				c0-5.646,4.89-10.222,10.925-10.222l0,0c6.033,0,10.926,4.576,10.926,10.222V253.023z"/>
			<linearGradient id="SVGID_14_" gradientUnits="userSpaceOnUse" x1="414.4258" y1="498.3662" x2="414.4258" y2="73.4609">
				<stop  offset="0.6262" style="stop-color:#F4BFB5"/>
				<stop  offset="0.6818" style="stop-color:#F1B7A7"/>
				<stop  offset="0.7902" style="stop-color:#EDAA93"/>
				<stop  offset="0.8971" style="stop-color:#EAA386"/>
				<stop  offset="1" style="stop-color:#E9A082"/>
			</linearGradient>
			<path fill="url(#SVGID_14_)" d="M585.899,350.806c0,72.657-80.542,147.561-154.118,147.561h-25.212
				c-73.574,0-163.617-74.903-163.617-147.561V205.021c0-72.658,59.644-131.56,133.219-131.56h76.512
				c73.573,0,133.217,58.902,133.217,131.56V350.806z"/>
			<path fill="#ED9E99" d="M453.851,243.245c0-12.273-12.017-22.224-26.837-22.224l0,0c-14.822,0-26.838,9.95-26.838,22.224v81.781
				c0,12.272,12.016,22.222,26.838,22.222l0,0c14.82,0,26.837-9.949,26.837-22.222V243.245z"/>
			<path fill="#ED9E99" d="M469.525,313.322c0,7.607-6.592,13.779-14.724,13.779l0,0c-8.135,0-14.725-6.171-14.725-13.779v-4.741
				c0-7.611,6.59-13.779,14.725-13.779l0,0c8.132,0,14.724,6.168,14.724,13.779V313.322z"/>
			<ellipse fill="#20293F" cx="339.376" cy="234.8" rx="14.725" ry="13.778"/>
			<ellipse fill="#20293F" cx="520.825" cy="234.8" rx="14.726" ry="13.778"/>
			<path fill="#F4BFB5" d="M270.159,313.745c1.935,16.539-8.072,31.133-22.348,32.596l0,0c-14.275,1.461-27.417-10.765-29.35-27.304
				l-11.076-94.742c-1.935-16.54,8.072-31.133,22.346-32.594l0,0c14.277-1.461,27.418,10.762,29.351,27.302L270.159,313.745z"/>
			<path fill="#F4BFB5" d="M363.93,243.014c0.339,2.317,0.351,4.228,0.024,4.27l-50.126,6.385c-0.326,0.041-0.861-1.803-1.198-4.119
				l0,0c-0.337-2.317-0.346-4.228-0.021-4.269l50.125-6.384C363.059,238.855,363.595,240.697,363.93,243.014L363.93,243.014z"/>
			<path fill="#F4BFB5" d="M489.744,471.92c0,27.201-31.275,40.669-69.853,40.669c-38.58,0-69.851-18.208-69.851-40.669
				s31.271-40.669,69.851-40.669C458.469,431.251,489.744,449.459,489.744,471.92z"/>
			<g>
				<path fill="#C97984" d="M545.442,402.354c0.725-2.22-0.016-4.454-1.655-4.974c-84.187-26.68-174.567-26.68-258.754,0
					c-1.64,0.52-2.379,2.754-1.654,4.974l0,0c0.726,2.224,2.61,3.604,4.211,3.096c82.523-26.152,171.117-26.152,253.641,0
					C542.831,405.958,544.717,404.578,545.442,402.354L545.442,402.354z"/>
			</g>
			<path fill="#EDA9A2" d="M460.575,450.807c0,1.643-0.381,2.973-0.849,2.973H387.48c-0.469,0-0.847-1.33-0.847-2.973l0,0
				c0-1.641,0.378-2.973,0.847-2.973h72.246C460.194,447.834,460.575,449.166,460.575,450.807L460.575,450.807z"/>
			<ellipse fill="#F7F2F2" cx="343.889" cy="232.201" rx="4.512" ry="4.224"/>
			<ellipse fill="#F7F2F2" cx="525.338" cy="232.201" rx="4.512" ry="4.224"/>
			<ellipse fill="#F4BFB5" cx="556.553" cy="302.1" rx="48.551" ry="54.037"/>
			<path fill="#F4BFB5" d="M498.998,248.928c0.1-2.337,0.448-4.219,0.774-4.207l50.545,1.922c0.329,0.014,0.514,1.917,0.411,4.252
				l0,0c-0.103,2.336-0.448,4.219-0.777,4.207l-50.545-1.922C499.081,253.166,498.894,251.263,498.998,248.928L498.998,248.928z"/>
			<path fill="#EDA9A2" d="M315.875,237.336c0.786,1.301,1.273,2.435,1.092,2.53L288.8,254.738c-0.183,0.097-0.967-0.88-1.753-2.182
				l0,0c-0.784-1.302-1.272-2.435-1.09-2.531l28.167-14.871C314.308,235.058,315.091,236.034,315.875,237.336L315.875,237.336z"/>
			<path fill="#EDA9A2" d="M311.706,231.323c-0.429,1.44-0.94,2.564-1.142,2.511l-31.155-8.121c-0.203-0.053-0.02-1.262,0.41-2.702
				l0,0c0.428-1.439,0.939-2.563,1.14-2.511l31.156,8.122C312.317,228.675,312.133,229.884,311.706,231.323L311.706,231.323z"/>
			<path fill="#EDA9A2" d="M540.479,240.449c-0.784,1.303-1.275,2.435-1.094,2.532l28.172,14.871
				c0.18,0.097,0.964-0.879,1.751-2.182l0,0c0.784-1.3,1.272-2.434,1.091-2.53l-28.17-14.872
				C542.047,238.171,541.266,239.148,540.479,240.449L540.479,240.449z"/>
			<path fill="#EDA9A2" d="M540.85,232.659c0.43,1.44,0.94,2.563,1.143,2.511l31.155-8.121c0.201-0.052,0.017-1.262-0.411-2.702l0,0
				c-0.429-1.439-0.937-2.563-1.141-2.511l-31.155,8.122C540.236,230.011,540.424,231.22,540.85,232.659L540.85,232.659z"/>
			<path fill="#EDA9A2" d="M354.031,319.767c1.641,1.762,2.672,3.435,2.3,3.74l-57.33,46.755c-0.371,0.302-2.003-0.882-3.644-2.642
				l0,0c-1.644-1.764-2.671-3.437-2.3-3.741l57.33-46.754C350.757,316.822,352.39,318.005,354.031,319.767L354.031,319.767z"/>
			<path fill="#EDA9A2" d="M490.225,318.572c1.967-1.441,3.809-2.314,4.112-1.952l46.869,56.04c0.303,0.361-1.044,1.826-3.013,3.266
				l0,0c-1.965,1.442-3.809,2.315-4.112,1.951l-46.867-56.037C486.91,321.475,488.257,320.012,490.225,318.572L490.225,318.572z"/>
			<path opacity="0.2" fill="#EA7D7D" d="M376.388,214.354c0,5.646-13.929,10.222-31.113,10.222h-25.962
				c-17.182,0-31.111-4.576-31.111-10.222l0,0c0-5.646,13.929-10.222,31.111-10.222h25.962
				C362.458,204.132,376.388,208.709,376.388,214.354L376.388,214.354z"/>
			<path opacity="0.2" fill="#EA7D7D" d="M573.229,215.244c0,6.137-13.736,11.111-30.683,11.111h-25.004
				c-16.943,0-30.681-4.975-30.681-11.111l0,0c0-6.138,13.737-11.112,30.681-11.112h25.004
				C559.493,204.132,573.229,209.106,573.229,215.244L573.229,215.244z"/>
			<path fill="#ED9E99" d="M409.616,313.322c0,7.607-6.59,13.779-14.722,13.779l0,0c-8.135,0-14.727-6.171-14.727-13.779v-4.741
				c0-7.611,6.592-13.779,14.727-13.779l0,0c8.132,0,14.722,6.168,14.722,13.779V313.322z"/>
			<path fill="#F4BFB5" d="M364.63,229.906c-0.551,2.281-1.254,4.074-1.575,4.007L313.707,223.5
				c-0.321-0.068-0.134-1.971,0.416-4.251l0,0c0.55-2.282,1.255-4.076,1.573-4.007l49.35,10.413
				C365.366,225.723,365.179,227.626,364.63,229.906L364.63,229.906z"/>
			<path opacity="0.5" fill="#443723" d="M383.312,230.327c-4.917,6.963-14.936,8.873-22.374,4.272l-54.286-33.583
				c-7.441-4.602-9.485-13.978-4.566-20.939l0,0c4.921-6.961,14.938-8.874,22.377-4.271l54.284,33.581
				C386.19,213.989,388.233,223.365,383.312,230.327L383.312,230.327z"/>
			<path fill="#EAD1A4" d="M383.312,224.223c-4.917,6.963-14.936,8.874-22.374,4.272l-54.286-33.583
				c-7.441-4.603-9.485-13.979-4.566-20.94l0,0c4.921-6.961,14.938-8.873,22.377-4.271l54.284,33.581
				C386.19,207.885,388.233,217.261,383.312,224.223L383.312,224.223z"/>
			<path fill="#F4BFB5" d="M547.574,218.836c0.773,2.223,1.148,4.103,0.837,4.196l-48.091,14.692
				c-0.313,0.096-1.193-1.63-1.967-3.851l0,0c-0.777-2.223-1.153-4.102-0.839-4.195l48.088-14.692
				C545.916,214.891,546.797,216.615,547.574,218.836L547.574,218.836z"/>
			<path opacity="0.5" fill="#443723" d="M486.37,233.839c-4.267-7.379-1.807-17.279,5.485-22.107l53.221-35.244
				c7.295-4.831,16.667-2.764,20.929,4.619l0,0c4.263,7.382,1.806,17.28-5.488,22.109l-53.22,35.243
				C500.002,243.293,490.632,241.224,486.37,233.839L486.37,233.839z"/>
			<path fill="#EAD1A4" d="M564.055,173.846c5.41,6.638,4.04,16.121-3.053,21.18l-51.753,36.915
				c-7.092,5.06-17.225,3.781-22.633-2.855l0,0c-5.405-6.638-4.041-16.12,3.055-21.18l51.748-36.915
				C548.515,165.93,558.651,167.209,564.055,173.846L564.055,173.846z"/>
			<path fill="#EDA9A2" d="M405.16,176.504c1.599,0.037,2.885,0.224,2.88,0.419l-0.773,30.255c-0.003,0.196-1.302,0.326-2.896,0.29
				l0,0c-1.599-0.036-2.892-0.224-2.887-0.419l0.775-30.254C402.267,176.599,403.563,176.468,405.16,176.504L405.16,176.504z"/>
			<path fill="#EDA9A2" d="M457.523,176.504c1.601,0.037,2.887,0.224,2.883,0.419l-0.774,30.255
				c-0.005,0.196-1.303,0.326-2.897,0.29l0,0c-1.599-0.036-2.889-0.224-2.884-0.419l0.774-30.254
				C454.627,176.599,455.927,176.468,457.523,176.504L457.523,176.504z"/>
			<linearGradient id="SVGID_15_" gradientUnits="userSpaceOnUse" x1="230.4009" y1="203.0332" x2="230.4009" y2="296.7881">
				<stop  offset="0" style="stop-color:#ED9E99"/>
				<stop  offset="0.8797" style="stop-color:#ED9E99;stop-opacity:0.1203"/>
				<stop  offset="1" style="stop-color:#ED9E99;stop-opacity:0"/>
			</linearGradient>
			<path opacity="0.4" fill="url(#SVGID_15_)" d="M237.459,218.841c-0.766-9.113-5.688-16.184-10.992-15.792l0,0
				c-5.305,0.39-8.987,8.094-8.221,17.206l5.098,60.724c0.765,9.113,5.688,16.186,10.991,15.794l0,0
				c5.305-0.391,8.986-8.094,8.222-17.207L237.459,218.841z"/>
			<path fill="#EDA9A2" d="M361.806,244.88c1.521,1.854,2.545,3.508,2.285,3.695l-40.12,28.835c-0.26,0.188-1.703-1.164-3.226-3.017
				l0,0c-1.522-1.854-2.545-3.508-2.284-3.694l40.119-28.836C358.84,241.676,360.283,243.026,361.806,244.88L361.806,244.88z"/>
			<path fill="#EDA9A2" d="M540.984,282.001c-1.569,1.82-3.049,3.14-3.303,2.949l-39.388-29.706
				c-0.257-0.192,0.806-1.824,2.377-3.645l0,0c1.564-1.819,3.045-3.139,3.297-2.946l39.391,29.706
				C543.612,278.549,542.549,280.182,540.984,282.001L540.984,282.001z"/>
			<path opacity="0.3" fill="#261C19" d="M585.189,147.936c1.069,47.157-89.955,44.249-122.4,44.731L286.48,169.256
				c-32.446,0.48-69.384,10.352-70.456-36.806l0.578-22.572c-1.074-47.159,55.725-80.436,111.164-77.192l219.567,20.83
				c21.945,12.47,37.79,12.41,38.864,59.568L585.189,147.936z"/>
			<g>
				<g opacity="0.32">
					<path d="M236.958,129.012c-15.377,0-27.843,3.149-27.843,7.033v77.047c0,3.884,12.465,7.033,27.843,7.033
						c2.059,0,4.063-0.058,5.994-0.165v31.795c0,5.361,4.891,9.707,10.925,9.707s10.925-4.346,10.925-9.707v-38.663v-67.705v-9.342
						C264.802,132.162,252.336,129.012,236.958,129.012z"/>
				</g>
				<g>
					<linearGradient id="SVGID_16_" gradientUnits="userSpaceOnUse" x1="236.9585" y1="256.5781" x2="236.9585" y2="124.1289">
						<stop  offset="0" style="stop-color:#D8C083"/>
						<stop  offset="1" style="stop-color:#F3E4BD"/>
					</linearGradient>
					<path fill="url(#SVGID_16_)" d="M236.958,124.129c-15.377,0-27.843,3.149-27.843,7.033v77.047
						c0,3.884,12.465,7.033,27.843,7.033c2.059,0,4.063-0.058,5.994-0.165v31.795c0,5.361,4.891,9.707,10.925,9.707
						s10.925-4.346,10.925-9.707v-38.663v-67.705v-9.342C264.802,127.278,252.336,124.129,236.958,124.129z"/>
				</g>
			</g>
			<linearGradient id="SVGID_17_" gradientUnits="userSpaceOnUse" x1="413.54" y1="163.2163" x2="413.54" y2="14.9268">
				<stop  offset="0" style="stop-color:#D8A66F"/>
				<stop  offset="1" style="stop-color:#F3CDA9"/>
			</linearGradient>
			<path fill="url(#SVGID_17_)" d="M610.479,110.877c0.08-1.141,0.093-2.309,0.017-3.515l-0.084-31.574
				c-2.711-42.611-19.588-41.829-43.377-52.101L332.463,14.93c-59.162-0.387-118.556,32.324-115.844,74.936l0.025,3.807
				c-0.142,1.963-0.153,3.95-0.025,5.96l0.134,20.445c2.71,42.611,41.728,31.983,76.272,30.059l188.579,13.079
				c34.546-1.926,131.601-3.477,128.892-46.087L610.479,110.877z"/>
		</g>
		
			<radialGradient id="SVGID_18_" cx="429.3574" cy="279.0918" r="57.2564" gradientTransform="matrix(1.9469 0 0 2.5983 -409.0059 -419.0507)" gradientUnits="userSpaceOnUse">
			<stop  offset="0" style="stop-color:#D8615E"/>
			<stop  offset="0.1485" style="stop-color:#DE5B5C;stop-opacity:0.8515"/>
			<stop  offset="0.6267" style="stop-color:#EE4B58;stop-opacity:0.3733"/>
			<stop  offset="1" style="stop-color:#F34557;stop-opacity:0"/>
		</radialGradient>
		<ellipse opacity="0.5" fill="url(#SVGID_18_)" cx="426.918" cy="306.127" rx="122.611" ry="132.25"/>
		
			<radialGradient id="SVGID_19_" cx="501.5195" cy="308.0039" r="57.2564" gradientTransform="matrix(1.3851 0 0 1.3297 -179.0938 -106.937)" gradientUnits="userSpaceOnUse">
			<stop  offset="0" style="stop-color:#D8615E"/>
			<stop  offset="0.1485" style="stop-color:#DE5B5C;stop-opacity:0.8515"/>
			<stop  offset="0.6267" style="stop-color:#EE4B58;stop-opacity:0.3733"/>
			<stop  offset="1" style="stop-color:#F34557;stop-opacity:0"/>
		</radialGradient>
		<ellipse opacity="0.3" fill="url(#SVGID_19_)" cx="515.571" cy="302.629" rx="87.231" ry="67.68"/>
		
			<radialGradient id="SVGID_20_" cx="255.6191" cy="297.8604" r="57.2567" gradientTransform="matrix(1.3051 0 0 1.4393 -8.9639 -126.6001)" gradientUnits="userSpaceOnUse">
			<stop  offset="0" style="stop-color:#D8615E"/>
			<stop  offset="0.1485" style="stop-color:#DE5B5C;stop-opacity:0.8515"/>
			<stop  offset="0.6267" style="stop-color:#EE4B58;stop-opacity:0.3733"/>
			<stop  offset="1" style="stop-color:#F34557;stop-opacity:0"/>
		</radialGradient>
		<ellipse opacity="0.3" fill="url(#SVGID_20_)" cx="324.651" cy="302.099" rx="82.193" ry="73.255"/>
		
			<radialGradient id="SVGID_21_" cx="378.5591" cy="459.3184" r="57.2567" gradientTransform="matrix(1.1496 0 0 0.9135 -6.3926 45.9344)" gradientUnits="userSpaceOnUse">
			<stop  offset="0" style="stop-color:#D8615E"/>
			<stop  offset="0.1485" style="stop-color:#DE5B5C;stop-opacity:0.8515"/>
			<stop  offset="0.6267" style="stop-color:#EE4B58;stop-opacity:0.3733"/>
			<stop  offset="1" style="stop-color:#F34557;stop-opacity:0"/>
		</radialGradient>
		<path opacity="0.3" fill="url(#SVGID_21_)" d="M501.205,465.543c0,25.679-32.414,46.495-72.399,46.495
			s-72.399-20.816-72.399-46.495c0-25.682,32.414-46.499,72.399-46.499S501.205,439.861,501.205,465.543z"/>
	</g>
</g>
<g id="arm">
	<g>
		<linearGradient id="SVGID_22_" gradientUnits="userSpaceOnUse" x1="252.8047" y1="726.207" x2="67.9116" y2="726.207">
			<stop  offset="0.147" style="stop-color:#393953"/>
			<stop  offset="0.4691" style="stop-color:#373750"/>
			<stop  offset="0.747" style="stop-color:#303045"/>
			<stop  offset="1" style="stop-color:#262634"/>
		</linearGradient>
		<path fill="url(#SVGID_22_)" d="M251.977,853.991c5.248,20.193-14.993,42.93-45.208,50.783l0,0
			c-30.215,7.854-58.965-2.15-64.213-22.344L68.74,598.423c-5.248-20.193,14.993-42.93,45.208-50.783l0,0
			c30.216-7.854,58.966,2.15,64.214,22.344L251.977,853.991z"/>
		
			<ellipse transform="matrix(0.963 -0.2697 0.2697 0.963 -151.6815 53.6266)" opacity="0.5" fill="#101011" cx="119.342" cy="578.883" rx="48.893" ry="28.37"/>
		<g>
			
				<linearGradient id="SVGID_23_" gradientUnits="userSpaceOnUse" x1="25.9131" y1="467.2666" x2="25.9131" y2="585.1748" gradientTransform="matrix(0.8859 -0.464 0.464 0.8859 -164.6998 87.8859)">
				<stop  offset="0.147" style="stop-color:#F4BFB5"/>
				<stop  offset="0.4055" style="stop-color:#F3BDB2"/>
				<stop  offset="0.6289" style="stop-color:#F1B6A7"/>
				<stop  offset="0.8385" style="stop-color:#EDAC95"/>
				<stop  offset="1" style="stop-color:#E9A082"/>
			</linearGradient>
			<path fill="url(#SVGID_23_)" d="M153.393,537.254c10.913,19.625,0.921,44.84-22.317,56.318l0,0
				c-23.238,11.477-50.923,4.873-61.835-14.754l-17.787-31.99c-10.912-19.625-0.92-44.84,22.318-56.317l0,0
				c23.237-11.478,50.922-4.872,61.834,14.753L153.393,537.254z"/>
			<path opacity="0.2" fill="#C6493C" d="M97.9,526.552c1.409-0.234,2.582-0.216,2.622,0.046l5.98,40.12
				c0.038,0.259-1.073,0.661-2.481,0.896l0,0c-1.41,0.235-2.584,0.215-2.622-0.045l-5.981-40.122
				C95.38,527.188,96.491,526.786,97.9,526.552L97.9,526.552z"/>
			
				<linearGradient id="SVGID_24_" gradientUnits="userSpaceOnUse" x1="72.7578" y1="469.6592" x2="39.5522" y2="469.6592" gradientTransform="matrix(0.8859 -0.464 0.5037 0.9618 -186.5362 46.9529)">
				<stop  offset="0.147" style="stop-color:#F4BFB5"/>
				<stop  offset="0.4055" style="stop-color:#F3BDB2"/>
				<stop  offset="0.6289" style="stop-color:#F1B6A7"/>
				<stop  offset="0.8385" style="stop-color:#EDAC95"/>
				<stop  offset="1" style="stop-color:#E9A082"/>
			</linearGradient>
			<path fill="url(#SVGID_24_)" d="M135.758,505.536c3.847,6.919,0.758,15.594-6.901,19.376l0,0
				c-7.658,3.782-16.984,1.24-20.832-5.679l-44.224-79.537c-3.846-6.918-0.757-15.594,6.9-19.376l0,0
				c7.658-3.782,16.985-1.239,20.832,5.679L135.758,505.536z"/>
			
				<linearGradient id="SVGID_25_" gradientUnits="userSpaceOnUse" x1="-5.4678" y1="488.6807" x2="-29.8271" y2="488.6807" gradientTransform="matrix(0.8859 -0.464 0.464 0.8859 -164.6998 87.8859)">
				<stop  offset="0" style="stop-color:#D3BFB5"/>
				<stop  offset="0.0613" style="stop-color:#D9B7A7"/>
				<stop  offset="0.1675" style="stop-color:#E0AC96"/>
				<stop  offset="0.2997" style="stop-color:#E5A58B"/>
				<stop  offset="0.4851" style="stop-color:#E8A184"/>
				<stop  offset="1" style="stop-color:#E9A082"/>
			</linearGradient>
			<path fill="url(#SVGID_25_)" d="M65.688,539.544c1.995,3.589-1.097,8.824-6.906,11.695l0,0
				c-5.81,2.868-12.137,2.285-14.132-1.303l-17.507-31.487c-1.995-3.589,1.097-8.824,6.906-11.693l0,0
				c5.81-2.87,12.137-2.286,14.132,1.302L65.688,539.544z"/>
			
				<linearGradient id="SVGID_26_" gradientUnits="userSpaceOnUse" x1="41.5752" y1="489.4727" x2="16.9395" y2="489.4727" gradientTransform="matrix(0.8859 -0.464 0.464 0.8859 -164.6998 87.8859)">
				<stop  offset="0.147" style="stop-color:#F4BFB5"/>
				<stop  offset="0.4055" style="stop-color:#F3BDB2"/>
				<stop  offset="0.6289" style="stop-color:#F1B6A7"/>
				<stop  offset="0.8385" style="stop-color:#EDAC95"/>
				<stop  offset="1" style="stop-color:#E9A082"/>
			</linearGradient>
			<path fill="url(#SVGID_26_)" d="M110.277,523.282c2.604,4.683,0.005,10.805-5.804,13.675l0,0
				c-5.81,2.869-12.63,1.398-15.234-3.283l-22.845-41.087c-2.604-4.684-0.005-10.806,5.804-13.675l0,0
				c5.81-2.87,12.63-1.399,15.233,3.283L110.277,523.282z"/>
			
				<linearGradient id="SVGID_27_" gradientUnits="userSpaceOnUse" x1="18.2061" y1="490.9561" x2="-6.5029" y2="490.9561" gradientTransform="matrix(0.8859 -0.464 0.464 0.8859 -164.6998 87.8859)">
				<stop  offset="0.147" style="stop-color:#F4BFB5"/>
				<stop  offset="0.4055" style="stop-color:#F3BDB2"/>
				<stop  offset="0.6289" style="stop-color:#F1B6A7"/>
				<stop  offset="0.8385" style="stop-color:#EDAC95"/>
				<stop  offset="1" style="stop-color:#E9A082"/>
			</linearGradient>
			<path fill="url(#SVGID_27_)" d="M90.932,536.718c2.763,4.97,0.294,11.325-5.515,14.196l0,0c-5.81,2.868-12.76,1.165-15.523-3.805
				l-24.249-43.61c-2.763-4.971-0.294-11.326,5.515-14.196l0,0c5.81-2.869,12.76-1.166,15.523,3.805L90.932,536.718z"/>
			
				<linearGradient id="SVGID_28_" gradientUnits="userSpaceOnUse" x1="-5.5435" y1="485.6533" x2="-29.9023" y2="485.6533" gradientTransform="matrix(0.8859 -0.464 0.464 0.8859 -164.6998 87.8859)">
				<stop  offset="0.147" style="stop-color:#F4BFB5"/>
				<stop  offset="0.4055" style="stop-color:#F3BDB2"/>
				<stop  offset="0.6289" style="stop-color:#F1B6A7"/>
				<stop  offset="0.8385" style="stop-color:#EDAC95"/>
				<stop  offset="1" style="stop-color:#E9A082"/>
			</linearGradient>
			<path fill="url(#SVGID_28_)" d="M64.215,536.896c1.996,3.589-1.097,8.824-6.906,11.694l0,0
				c-5.81,2.869-12.137,2.285-14.132-1.303L25.67,515.801c-1.996-3.588,1.096-8.824,6.906-11.692l0,0
				c5.809-2.87,12.137-2.287,14.132,1.303L64.215,536.896z"/>
			<path fill="#FCD7D4" d="M76.677,535.193c-1.491-2.68-0.344-6.017,2.56-7.452l0,0c2.905-1.435,6.468-0.423,7.958,2.258
				l3.341,6.009c1.492,2.682,0.345,6.019-2.56,7.454l0,0c-2.905,1.434-6.468,0.423-7.959-2.258L76.677,535.193z"/>
			<path fill="#FCD7D4" d="M51.425,545.47c-2.904,1.436-6.053,1.172-7.031-0.587l0,0c-0.979-1.761,0.584-4.35,3.488-5.784
				l6.511-3.217c2.905-1.434,6.052-1.17,7.031,0.589l0,0c0.978,1.759-0.583,4.349-3.488,5.783L51.425,545.47z"/>
			<path fill="#FCD7D4" d="M76.863,542.993c-2.904,1.435-6.053,1.171-7.031-0.589l0,0c-0.979-1.76,0.584-4.35,3.488-5.782
				l6.511-3.217c2.905-1.435,6.052-1.172,7.031,0.589l0,0c0.978,1.759-0.583,4.348-3.488,5.782L76.863,542.993z"/>
			
				<linearGradient id="SVGID_29_" gradientUnits="userSpaceOnUse" x1="40.1831" y1="504.2998" x2="40.1831" y2="533.5" gradientTransform="matrix(0.8859 -0.464 0.5794 1.1064 -225.2714 -26.539)">
				<stop  offset="0" style="stop-color:#FBD1CE"/>
				<stop  offset="0.147" style="stop-color:#F4BFB5"/>
				<stop  offset="0.4055" style="stop-color:#F3BDB2"/>
				<stop  offset="0.6289" style="stop-color:#F1B6A7"/>
				<stop  offset="0.8385" style="stop-color:#EDAC95"/>
				<stop  offset="1" style="stop-color:#E9A082"/>
			</linearGradient>
			<path fill="url(#SVGID_29_)" d="M146.359,511.451c4.748,8.536,2.062,18.684-5.997,22.664l-41.581,20.539
				c-8.059,3.979-18.439,0.286-23.186-8.25l0,0c-4.747-8.538-2.062-18.686,5.996-22.666l41.582-20.537
				C131.232,499.221,141.613,502.914,146.359,511.451L146.359,511.451z"/>
			<path fill="#FCD7D4" d="M77.981,537.053c-1.491-2.681-0.345-6.018,2.56-7.452l0,0c2.905-1.435,6.468-0.424,7.958,2.257
				l3.342,6.01c1.491,2.682,0.345,6.018-2.56,7.453l0,0c-2.905,1.435-6.469,0.424-7.959-2.257L77.981,537.053z"/>
		</g>
	</g>
	
		<linearGradient id="SVGID_30_" gradientUnits="userSpaceOnUse" x1="93.2842" y1="437.7461" x2="102.2842" y2="451.7461" gradientTransform="matrix(0.6374 -0.3057 0.4998 1.0422 -199.1756 17.0394)">
		<stop  offset="0" style="stop-color:#ED9E99"/>
		<stop  offset="0.8797" style="stop-color:#ED9E99;stop-opacity:0.1203"/>
		<stop  offset="1" style="stop-color:#ED9E99;stop-opacity:0"/>
	</linearGradient>
	<path opacity="0.4" fill="url(#SVGID_30_)" d="M97.137,446.771c0.692,1.444,0.537,2.958-0.346,3.38l-17.799,8.537
		c-0.883,0.423-2.161-0.404-2.854-1.849l0,0c-0.692-1.444-0.538-2.959,0.346-3.382l17.799-8.536
		C95.166,444.498,96.444,445.325,97.137,446.771L97.137,446.771z"/>
	
		<linearGradient id="SVGID_31_" gradientUnits="userSpaceOnUse" x1="93.2471" y1="459.8027" x2="102.2466" y2="473.8021" gradientTransform="matrix(0.6374 -0.3057 0.4998 1.0422 -199.1756 17.0394)">
		<stop  offset="0" style="stop-color:#ED9E99"/>
		<stop  offset="0.8797" style="stop-color:#ED9E99;stop-opacity:0.1203"/>
		<stop  offset="1" style="stop-color:#ED9E99;stop-opacity:0"/>
	</linearGradient>
	<path opacity="0.4" fill="url(#SVGID_31_)" d="M108.137,469.771c0.692,1.444,0.537,2.958-0.346,3.38l-17.799,8.537
		c-0.883,0.423-2.161-0.404-2.854-1.849l0,0c-0.692-1.444-0.538-2.959,0.346-3.382l17.799-8.536
		C106.166,467.498,107.444,468.325,108.137,469.771L108.137,469.771z"/>
</g>
</svg>
