<?xml version="1.0" encoding="utf-8"?>
<!-- Generator: Adobe Illustrator 16.0.0, SVG Export Plug-In . SVG Version: 6.00 Build 0)  -->
<!DOCTYPE svg PUBLIC "-//W3C//DTD SVG 1.1//EN" "http://www.w3.org/Graphics/SVG/1.1/DTD/svg11.dtd">
<svg version="1.1" xmlns="http://www.w3.org/2000/svg" xmlns:xlink="http://www.w3.org/1999/xlink" x="0px" y="0px" width="768px"
	 height="768px" viewBox="0 0 768 768" enable-background="new 0 0 768 768" xml:space="preserve">
<g id="Layer_4">
	<rect fill="#721C1C" width="768" height="768"/>
</g>
<g id="Layer_5">
	<radialGradient id="SVGID_1_" cx="380.8955" cy="401.2031" r="532.4561" gradientUnits="userSpaceOnUse">
		<stop  offset="0" style="stop-color:#FFFFFF"/>
		<stop  offset="0.8446" style="stop-color:#FFFFFF;stop-opacity:0"/>
	</radialGradient>
	<path opacity="0.3" fill="url(#SVGID_1_)" d="M909.404,406.402l2.15,0.03l-43.312-195.31L403.699,386.442
		c-1.708-3.314-3.931-6.317-6.568-8.902l384.791-326.88L620.711-67.802l-0.838,1.565l-1.872-1.369l-232.556,437.6
		c-3.058-1.19-6.326-1.957-9.735-2.232l42.126-297.917l29.37-200.921l-0.972,0.085l0.291-2.053l-199.201,18.458l17.146,71.6
		l96.773,412.634c-1.225,0.438-2.419,0.94-3.577,1.507L135.743-82.79l-154.6,126.973L347.314,378.91
		c-1.835,2.006-3.434,4.229-4.76,6.625l-453.559-206.827l-38.759,196.264l488.044,25.562c-0.029,0.582-0.044,1.166-0.044,1.754
		c0,2.58,0.291,5.092,0.826,7.512l-486.392,116.201l90.13,178.599l402.514-281.333c2.391,3.137,5.305,5.852,8.612,8.019
		l-79.323,114.173L64.574,840.968l3.686,1.494l-2.262,3.256l186.201,73.148l60.391-255.974l55.937-226.238
		c1.43,0.181,2.882,0.283,4.361,0.283c3.856,0,7.561-0.639,11.025-1.803l63.991,500.315l187.224-70.487L395.27,428.729
		c1.827-1.547,3.49-3.282,4.963-5.173L771.2,760.729l96.761-175.097L406.487,410.771c0.684-2.715,1.05-5.556,1.05-8.482
		c0-0.443-0.017-0.882-0.033-1.32l502.276,7.126L909.404,406.402z"/>
</g>
<g id="Layer_1">
	<g>
		<path fill="#E2E2E2" d="M703.297,63.063c0,6.24,0,12.48,0,18.72c-1.351,0.235-0.905,1.314-0.933,2.103
			c-0.248,7.259,0.145,14.517-0.41,21.79c-0.569,7.472,0.094,14.994-0.495,22.503c-0.549,6.995,0.085,14.031-0.462,21.065
			c-0.581,7.471,0.091,14.992-0.493,22.503c-0.563,7.234,0.088,14.511-0.469,21.785c-0.573,7.472,0.089,14.993-0.496,22.503
			c-0.557,7.154,0.104,14.351-0.464,21.545c-0.578,7.311,0.081,14.672-0.491,22.023c-0.562,7.234,0.101,14.512-0.472,21.785
			c-0.582,7.392,0.103,14.832-0.487,22.264c-0.573,7.232,0.075,14.511-0.467,21.784c-0.557,7.472,0.063,14.995-0.505,22.502
			c-0.529,6.997,0.087,14.031-0.454,21.066c-0.58,7.551,0.085,15.153-0.499,22.742c-0.551,7.155,0.084,14.352-0.465,21.545
			c-0.563,7.393,0.077,14.834-0.496,22.263c-0.546,7.075-0.002,14.19-0.441,21.306c-0.507,8.195-0.041,16.438-0.539,24.66
			c-0.289,4.783-0.053,9.597-0.074,14.396c-0.017,3.848,0.384,3.479-3.464,3.479c-89.515,0.004-179.029,0.003-268.544,0.004
			c-1.359,0-2.719,0.009-4.079,0.014c-0.637,0.033-1.274,0.096-1.912,0.095c-22.957-0.021-45.915-0.05-68.873-0.077
			c-1.119-0.013-2.238-0.036-3.357-0.036c-87.628-0.002-175.256-0.001-262.885-0.006c-1.117,0-2.233-0.072-3.349-0.111
			c0.212-7.431,0.05-14.867,0.433-22.301c0.39-7.583,0.117-15.186,0.492-22.778c0.371-7.504,0.131-15.025,0.497-22.538
			c0.358-7.344,0.121-14.705,0.485-22.059c0.349-7.023,0.104-14.065,0.456-21.099c0.368-7.344,0.115-14.706,0.477-22.059
			c0.374-7.583,0.143-15.185,0.506-22.778c0.348-7.264,0.116-14.545,0.478-21.818c0.35-7.024,0.096-14.066,0.457-21.1
			c0.377-7.344,0.102-14.706,0.479-22.059c0.381-7.423,0.118-14.865,0.486-22.298c0.372-7.504,0.13-15.025,0.5-22.539
			c0.357-7.264,0.118-14.545,0.48-21.818c0.354-7.104,0.103-14.226,0.459-21.339c0.368-7.344,0.108-14.706,0.478-22.059
			c0.376-7.504,0.131-15.025,0.498-22.538c0.359-7.344,0.122-14.706,0.486-22.059c0.348-7.024,0.101-14.066,0.456-21.099
			c0.371-7.344,0.123-14.706,0.47-22.059c0.279-5.909,0.19-11.835,0.265-17.754c1.197-0.039,2.395-0.112,3.591-0.112
			c202.725-0.005,405.45-0.005,608.175-0.004c1.439,0,2.879,0.01,4.318,0.016C702.861,63.038,703.079,63.05,703.297,63.063z"/>
		<path fill-rule="evenodd" clip-rule="evenodd" fill="#8C6B48" d="M412.25,739.401c-18.152-0.025-39.33-0.018-57.483-0.022
			c-0.958,0-1.916-0.056-2.874-0.086c0.024-1.994,0.371-3.97,0.449-5.948c0.295-7.493-0.08-14.991,0.455-22.496
			c0.516-7.235-0.039-14.508,0.471-21.774c0.524-7.473-0.045-14.988,0.495-22.492c0.503-6.996,0.018-14.027,0.451-21.056
			c0.49-7.954,0.021-15.95,0.533-23.929c0.428-6.684-0.036-13.389,0.433-20.099c0.534-7.632-0.038-15.309,0.506-22.971
			c0.492-6.917,0.06-13.868,0.439-20.815c0.466-8.518,0.076-17.072,0.562-25.607c0.35-6.129-0.17-12.275,0.423-18.422
			c0.383-3.961,0.116-7.985,0.103-11.981c-0.006-1.73-0.048-1.774-1.729-1.795c-2.876-0.034-5.754-0.007-8.631-0.006
			c-0.013-0.157-0.027-0.314-0.041-0.473c22.958,0.027,45.916,0.056,68.873,0.077c0.638,0.001,1.275-0.062,1.912-0.095
			c0.313,0.771,0.204,1.573,0.188,2.371c-0.312,14.468-0.631,28.936-0.932,43.404c-0.274,13.189-0.519,26.381-0.796,39.571
			c-0.308,14.628-0.638,29.256-0.957,43.884c-0.321,14.707-0.641,29.415-0.961,44.122c-0.319,14.628-0.641,29.256-0.96,43.884
			c-0.159,7.274-0.321,14.548-0.474,21.822"/>
		<path fill-rule="evenodd" clip-rule="evenodd" fill="#828282" d="M66.337,486.423c0.133-0.194,0.362-0.378,0.384-0.583"/>
		<path fill-rule="evenodd" clip-rule="evenodd" fill="#828282" d="M67.981,432.942c0.254-7.271,0.126-14.549,0.462-21.814
			c0.341-7.35,0.149-14.708,0.482-22.054c0.308-6.791,0.14-13.59,0.437-20.375c0.34-7.75,0.185-15.508,0.522-23.253
			c0.319-7.351,0.144-14.709,0.479-22.054c0.334-7.35,0.152-14.708,0.481-22.054c0.308-6.871,0.141-13.75,0.442-20.616
			c0.336-7.67,0.179-15.349,0.516-23.014c0.323-7.35,0.146-14.709,0.479-22.054c0.337-7.43,0.153-14.869,0.485-22.294
			c0.304-6.791,0.14-13.59,0.437-20.375c0.339-7.75,0.183-15.508,0.521-23.253c0.321-7.35,0.143-14.709,0.479-22.054
			c0.336-7.35,0.146-14.709,0.481-22.054c0.335-7.35,0.146-14.709,0.481-22.054c0.329-7.19,0.144-14.389,0.473-21.575
			c0.344-7.51,0.229-15.025,0.469-22.535c0.051-1.583,0.073-1.583,1.745-1.649c0.075,1.02,0.996,1.115,1.647,1.496
			c2.312,1.351,4.932,2.132,7.061,3.821c-0.075,5.919,0.014,11.845-0.265,17.754c-0.347,7.354-0.1,14.715-0.47,22.059
			c-0.355,7.033-0.107,14.075-0.456,21.099c-0.364,7.353-0.127,14.714-0.486,22.059c-0.367,7.513-0.122,15.034-0.498,22.538
			c-0.369,7.353-0.109,14.714-0.478,22.059c-0.357,7.113-0.106,14.235-0.459,21.339c-0.362,7.273-0.123,14.555-0.48,21.818
			c-0.369,7.513-0.127,15.035-0.5,22.539c-0.368,7.433-0.105,14.875-0.486,22.298c-0.377,7.353-0.102,14.715-0.479,22.059
			c-0.361,7.033-0.107,14.075-0.457,21.1c-0.362,7.273-0.13,14.554-0.478,21.818c-0.363,7.593-0.132,15.194-0.506,22.778
			c-0.362,7.353-0.109,14.715-0.477,22.059c-0.352,7.033-0.107,14.075-0.456,21.099c-0.365,7.354-0.127,14.715-0.485,22.059
			c-0.366,7.513-0.126,15.034-0.497,22.538c-0.375,7.593-0.102,15.195-0.492,22.778c-0.382,7.434-0.22,14.87-0.433,22.301
			c-0.784,0.284-1.36-0.244-1.972-0.544c-2.253-1.104-4.483-2.259-6.732-3.375c-0.692-0.343-1.332-0.861-2.181-0.773"/>
		<path fill-rule="evenodd" clip-rule="evenodd" fill="#828282" d="M67.182,465.536"/>
		<path fill-rule="evenodd" clip-rule="evenodd" fill="#614A31" d="M418.178,29.463c1.949,1.461,4.241,2.289,6.362,3.434
			c0.897,0.485,1.795,0.971,2.692,1.457c-0.837,0.721-1.843,0.378-2.766,0.379c-19.039,0.024-38.078,0.021-57.118,0.022
			c-0.858-0.426-1.706-0.88-2.579-1.274c-2.542-1.146-4.881-2.728-7.578-3.541c0.008-0.159,0.016-0.318,0.024-0.477
			C377.538,29.463,397.857,29.463,418.178,29.463z"/>
		<path fill-rule="evenodd" clip-rule="evenodd" fill="#FEFEFE" d="M67.14,471.311"/>
		<path fill-rule="evenodd" clip-rule="evenodd" fill="#9D9E9E" d="M86.559,63.126c-2.129-1.688-4.749-2.47-7.061-3.821
			c-0.651-0.381-1.572-0.477-1.647-1.496c0.875-0.043,1.751-0.125,2.627-0.125c91.087-0.006,182.175-0.006,273.263-0.002
			c0.877,0,1.755,0.058,2.633,0.089c2.119-0.028,4.239-0.016,6.356-0.1c1.396-0.056,2.828,0.326,4.185-0.292
			c10.701-0.005,21.401-0.006,32.103-0.017c9.503-0.009,19.006-0.03,28.509-0.045c1.116,0.045,2.231,0.131,3.348,0.131
			c86.135,0.006,172.271,0.011,258.405-0.024c2.144-0.001,4.084,0.326,5.957,1.39c1.874,1.064,3.854,1.942,5.765,2.944
			c0.609,0.32,1.408,0.442,1.643,1.267c-1.439-0.006-2.879-0.016-4.318-0.016c-202.725,0-405.45,0-608.175,0.004
			C88.954,63.014,87.756,63.087,86.559,63.126z"/>
		<path fill-rule="evenodd" clip-rule="evenodd" fill="#503F2B" d="M351.894,739.293c-0.14,0.008-0.275,0.037-0.405,0.09
			c-2.559-1.31-5.066-2.733-7.694-3.885c-1.636-0.717-2.193-1.656-2.13-3.438c0.255-7.111,0.364-14.229,0.515-21.344
			c0.292-13.752,0.572-27.504,0.864-41.256c0.448-21.107,0.895-42.215,1.356-63.321c0.5-22.865,1.018-45.729,1.522-68.595
			c0.265-11.992,0.515-23.985,0.779-35.978c0.012-0.557,0.1-1.11,0.152-1.666c2.877-0.001,5.755-0.028,8.631,0.006
			c1.681,0.021,1.723,0.064,1.729,1.795c0.013,3.996,0.28,8.021-0.103,11.981c-0.593,6.146-0.074,12.293-0.423,18.422
			c-0.487,8.535-0.097,17.09-0.562,25.607c-0.38,6.947,0.053,13.898-0.439,20.815c-0.544,7.662,0.027,15.339-0.506,22.971
			c-0.469,6.71-0.005,13.415-0.433,20.099c-0.511,7.979-0.042,15.975-0.533,23.929c-0.433,7.028,0.053,14.06-0.451,21.056
			c-0.54,7.504,0.03,15.02-0.495,22.492c-0.51,7.267,0.045,14.539-0.471,21.774c-0.534,7.505-0.16,15.003-0.455,22.496
			C352.265,735.323,351.918,737.299,351.894,739.293z"/>
		<path fill-rule="evenodd" clip-rule="evenodd" fill="#513F2B" d="M366.915,57.379c-1.357,0.619-2.789,0.237-4.185,0.292
			c-2.117,0.084-4.237,0.071-6.356,0.1c0.196-8.41,0.388-16.82,0.597-25.23c0.021-0.868,0.145-1.734,0.222-2.601
			c2.697,0.813,5.035,2.395,7.578,3.541c0.873,0.394,1.72,0.848,2.578,1.274C367.128,42.295,367.608,49.848,366.915,57.379z"/>
		<path fill-rule="evenodd" clip-rule="evenodd" fill="#8C6C49" d="M366.915,57.379c0.693-7.531,0.213-15.084,0.434-22.625
			c19.04-0.002,38.079,0.001,57.118-0.022c0.923-0.001,1.929,0.341,2.766-0.379c0.872,0.162,0.834,0.854,0.819,1.482
			c-0.168,7.161-0.348,14.321-0.525,21.482c-9.503,0.016-19.006,0.036-28.509,0.045C388.316,57.374,377.616,57.375,366.915,57.379z"
			/>
	</g>
</g>
<g id="Layer_2">
	<g>
		<path fill="#5B5D60" d="M384.496,196.703h13.145c2.591,0,4.685,0.352,6.279,1.055s2.913,1.712,3.955,3.027
			c1.042,1.315,1.797,2.845,2.266,4.59c0.469,1.745,0.703,3.594,0.703,5.547c0,3.06-0.349,5.433-1.045,7.119
			c-0.696,1.687-1.663,3.099-2.9,4.238c-1.237,1.14-2.565,1.898-3.984,2.275c-1.94,0.521-3.698,0.781-5.273,0.781h-13.145V196.703z
			 M393.344,203.187v15.645h2.168c1.849,0,3.164-0.205,3.945-0.615s1.394-1.126,1.836-2.148c0.442-1.022,0.664-2.679,0.664-4.971
			c0-3.034-0.495-5.11-1.484-6.23c-0.989-1.12-2.63-1.68-4.922-1.68H393.344z"/>
		<path fill="#5B5D60" d="M414.379,211.039c0-4.674,1.302-8.313,3.906-10.918c2.604-2.604,6.23-3.906,10.879-3.906
			c4.766,0,8.438,1.279,11.016,3.838s3.867,6.143,3.867,10.752c0,3.347-0.563,6.091-1.689,8.232c-1.126,2.142-2.754,3.809-4.883,5
			s-4.782,1.787-7.959,1.787c-3.229,0-5.901-0.514-8.018-1.543c-2.116-1.028-3.831-2.656-5.146-4.883
			S414.379,214.385,414.379,211.039z M423.227,211.078c0,2.891,0.537,4.968,1.611,6.23c1.074,1.263,2.536,1.895,4.385,1.895
			c1.901,0,3.372-0.618,4.414-1.855c1.042-1.237,1.562-3.457,1.562-6.66c0-2.695-0.544-4.665-1.631-5.908
			c-1.087-1.243-2.562-1.865-4.424-1.865c-1.784,0-3.216,0.632-4.297,1.895C423.767,206.071,423.227,208.161,423.227,211.078z"/>
		<path fill="#5B5D60" d="M448.871,196.703h8.262l10.781,15.841v-15.841h8.34v28.633h-8.34l-10.723-15.722v15.722h-8.32V196.703z"/>
		<path fill="#5B5D60" d="M480.57,196.214h8.496v6.543c0,2.409-0.501,4.313-1.504,5.713c-1.003,1.4-2.715,2.627-5.137,3.682
			l-1.855-3.477c1.511-0.703,2.549-1.403,3.115-2.1c0.566-0.696,0.882-1.52,0.947-2.471h-4.062V196.214z"/>
		<path fill="#5B5D60" d="M491.234,196.703h26.895v7.07h-9.023v21.562h-8.848v-21.562h-9.023V196.703z"/>
		<path fill="#5B5D60" d="M532.66,196.703h9.249l6.444,20.605l6.362-20.605h8.979l-10.632,28.633h-9.59L532.66,196.703z"/>
		<path fill="#5B5D60" d="M564.105,211.039c0-4.674,1.302-8.313,3.906-10.918c2.604-2.604,6.23-3.906,10.879-3.906
			c4.766,0,8.438,1.279,11.016,3.838s3.867,6.143,3.867,10.752c0,3.347-0.563,6.091-1.689,8.232c-1.126,2.142-2.754,3.809-4.883,5
			s-4.782,1.787-7.959,1.787c-3.229,0-5.901-0.514-8.018-1.543c-2.116-1.028-3.831-2.656-5.146-4.883
			S564.105,214.385,564.105,211.039z M572.953,211.078c0,2.891,0.537,4.968,1.611,6.23c1.074,1.263,2.536,1.895,4.385,1.895
			c1.901,0,3.372-0.618,4.414-1.855c1.042-1.237,1.562-3.457,1.562-6.66c0-2.695-0.544-4.665-1.631-5.908
			c-1.087-1.243-2.562-1.865-4.424-1.865c-1.784,0-3.216,0.632-4.297,1.895C573.493,206.071,572.953,208.161,572.953,211.078z"/>
		<path fill="#5B5D60" d="M595.492,196.703h26.895v7.07h-9.023v21.562h-8.848v-21.562h-9.023V196.703z"/>
		<path fill="#5B5D60" d="M626.371,196.703h23.711v6.113h-14.844v4.551h13.77v5.84h-13.77v5.645h15.273v6.484h-24.141V196.703z"/>
		<path fill="#5B5D60" d="M391.586,244.703h21.875v6.152h-12.988v5h11.094v5.781h-11.094v11.699h-8.887V244.703z"/>
		<path fill="#5B5D60" d="M417.113,259.039c0-4.674,1.302-8.313,3.906-10.918c2.604-2.604,6.23-3.906,10.879-3.906
			c4.766,0,8.438,1.279,11.016,3.838s3.867,6.143,3.867,10.752c0,3.347-0.563,6.091-1.689,8.232c-1.126,2.142-2.754,3.809-4.883,5
			s-4.782,1.787-7.959,1.787c-3.229,0-5.901-0.514-8.018-1.543c-2.116-1.028-3.831-2.656-5.146-4.883
			S417.113,262.385,417.113,259.039z M425.961,259.078c0,2.891,0.537,4.968,1.611,6.23c1.074,1.263,2.536,1.895,4.385,1.895
			c1.901,0,3.372-0.618,4.414-1.855c1.042-1.237,1.562-3.457,1.562-6.66c0-2.695-0.544-4.665-1.631-5.908
			c-1.087-1.243-2.562-1.865-4.424-1.865c-1.784,0-3.216,0.632-4.297,1.895C426.501,254.071,425.961,256.161,425.961,259.078z"/>
		<path fill="#5B5D60" d="M451.664,273.335v-28.633h14.746c2.734,0,4.824,0.234,6.27,0.703s2.61,1.338,3.496,2.607
			s1.328,2.816,1.328,4.639c0,1.589-0.339,2.959-1.017,4.111c-0.677,1.152-1.608,2.087-2.794,2.803
			c-0.756,0.456-1.792,0.833-3.107,1.133c1.054,0.352,1.821,0.704,2.303,1.056c0.326,0.234,0.797,0.736,1.415,1.505
			s1.031,1.362,1.239,1.779l4.285,8.297h-9.997l-4.729-8.75c-0.599-1.133-1.133-1.868-1.602-2.207
			c-0.638-0.442-1.36-0.664-2.168-0.664h-0.781v11.621H451.664z M460.551,256.304h3.73c0.403,0,1.185-0.13,2.344-0.391
			c0.586-0.117,1.064-0.417,1.436-0.898c0.371-0.481,0.557-1.035,0.557-1.66c0-0.924-0.293-1.634-0.879-2.129
			c-0.586-0.495-1.687-0.742-3.301-0.742h-3.887V256.304z"/>
		<path fill="#5B5D60" d="M493.988,244.703h26.895v7.07h-9.023v21.562h-8.848v-21.562h-9.023V244.703z"/>
		<path fill="#5B5D60" d="M525.004,273.335v-28.633h14.746c2.734,0,4.824,0.234,6.27,0.703s2.61,1.338,3.496,2.607
			s1.328,2.816,1.328,4.639c0,1.589-0.339,2.959-1.017,4.111c-0.677,1.152-1.608,2.087-2.794,2.803
			c-0.756,0.456-1.792,0.833-3.107,1.133c1.054,0.352,1.821,0.704,2.303,1.056c0.326,0.234,0.797,0.736,1.415,1.505
			s1.031,1.362,1.239,1.779l4.285,8.297h-9.997l-4.729-8.75c-0.599-1.133-1.133-1.868-1.602-2.207
			c-0.638-0.442-1.36-0.664-2.168-0.664h-0.781v11.621H525.004z M533.891,256.304h3.73c0.403,0,1.185-0.13,2.344-0.391
			c0.586-0.117,1.064-0.417,1.436-0.898c0.371-0.481,0.557-1.035,0.557-1.66c0-0.924-0.293-1.634-0.879-2.129
			c-0.586-0.495-1.687-0.742-3.301-0.742h-3.887V256.304z"/>
		<path fill="#5B5D60" d="M573.949,244.703h8.828v17.059c0,1.691-0.264,3.289-0.791,4.792s-1.354,2.817-2.48,3.943
			s-2.308,1.916-3.545,2.371c-1.719,0.638-3.782,0.957-6.191,0.957c-1.394,0-2.913-0.098-4.561-0.292
			c-1.647-0.196-3.024-0.583-4.131-1.162s-2.119-1.402-3.037-2.469s-1.546-2.167-1.885-3.299c-0.547-1.822-0.82-3.435-0.82-4.84
			v-17.059h8.828v17.465c0,1.561,0.433,2.781,1.299,3.659c0.866,0.878,2.067,1.317,3.604,1.317c1.523,0,2.718-0.433,3.584-1.298
			c0.866-0.865,1.299-2.091,1.299-3.678V244.703z"/>
		<path fill="#5B5D60" d="M588.539,244.703h11.636l4.487,17.422l4.455-17.422h11.629v28.633H613.5V251.5l-5.583,21.836h-6.559
			l-5.573-21.836v21.836h-7.246V244.703z"/>
		<path fill="#5B5D60" d="M626.352,244.703h14.707c3.203,0,5.603,0.762,7.197,2.285s2.393,3.691,2.393,6.504
			c0,2.891-0.869,5.15-2.607,6.777c-1.738,1.628-4.392,2.441-7.959,2.441h-4.844v10.625h-8.887V244.703z M635.238,256.91h2.168
			c1.706,0,2.903-0.296,3.594-0.889c0.69-0.592,1.035-1.351,1.035-2.275c0-0.898-0.3-1.66-0.898-2.285s-1.726-0.938-3.379-0.938
			h-2.52V256.91z"/>
	</g>
	<rect x="113.592" y="172.654" fill="#142E54" width="538.755" height="4.348"/>
	<polygon fill="#A81E1E" points="668.312,405.96 592.434,483.151 528.493,483.151 668.312,339.558 	"/>
	<g>
		<path fill="#FFFFFF" d="M565.221,460.42l5.666-5.667l16.573,8.677l-8.728-16.522l5.502-5.501l11.028,24.056l-5.876,5.874
			L565.221,460.42z"/>
		<path fill="#FFFFFF" d="M593.269,449.938c-2.863-2.864-4.296-5.891-4.295-9.082c-0.001-3.19,1.423-6.21,4.271-9.058
			c2.92-2.92,5.952-4.386,9.099-4.398c3.148-0.011,6.133,1.395,8.957,4.219c2.05,2.051,3.387,4.076,4.009,6.078
			c0.621,2.002,0.646,4.021,0.071,6.055c-0.573,2.035-1.835,4.024-3.781,5.972c-1.979,1.978-3.931,3.3-5.857,3.966
			c-1.926,0.666-3.975,0.72-6.145,0.161C597.428,453.293,595.319,451.988,593.269,449.938z M598.713,444.542
			c1.771,1.771,3.372,2.714,4.805,2.83c1.432,0.115,2.713-0.394,3.847-1.526c1.165-1.164,1.687-2.444,1.566-3.841
			c-0.118-1.396-1.16-3.075-3.122-5.037c-1.652-1.651-3.191-2.524-4.619-2.621c-1.428-0.095-2.712,0.427-3.853,1.567
			c-1.093,1.094-1.584,2.357-1.472,3.794C595.976,441.144,596.926,442.755,598.713,444.542z"/>
		<path fill="#FFFFFF" d="M603.715,421.927l16.476-16.477l4.332,4.332l-5.527,5.528l13.21,13.209l-5.422,5.421l-13.209-13.21
			l-5.527,5.528L603.715,421.927z"/>
		<path fill="#FFFFFF" d="M622.632,403.01l14.526-14.526l3.744,3.745l-9.093,9.093l2.788,2.788l8.436-8.436l3.577,3.577
			l-8.436,8.436l3.458,3.459l9.357-9.356l3.973,3.972l-14.789,14.79L622.632,403.01z"/>
	</g>
	<g>
		<path fill="#344984" d="M169.363,121.955l21.517,6.504c-1.446,6.035-3.722,11.075-6.829,15.122
			c-3.108,4.047-6.964,7.1-11.572,9.16c-4.606,2.06-10.47,3.089-17.587,3.089c-8.636,0-15.691-1.255-21.165-3.764
			c-5.475-2.509-10.199-6.923-14.173-13.243c-3.975-6.319-5.962-14.408-5.962-24.266c0-13.143,3.496-23.245,10.488-30.304
			c6.991-7.06,16.883-10.589,29.674-10.589c10.008,0,17.876,2.024,23.604,6.07c5.727,4.047,9.981,10.262,12.764,18.645l-21.68,4.824
			c-0.759-2.42-1.554-4.191-2.385-5.312c-1.374-1.878-3.054-3.324-5.041-4.336c-1.988-1.011-4.21-1.518-6.667-1.518
			c-5.565,0-9.829,2.238-12.791,6.713c-2.241,3.321-3.36,8.536-3.36,15.645c0,8.806,1.336,14.843,4.011,18.108
			c2.673,3.266,6.431,4.899,11.273,4.899c4.697,0,8.247-1.318,10.65-3.957C166.536,130.808,168.279,126.978,169.363,121.955z"/>
		<path fill="#344984" d="M202.804,75.019h24.552v59.89h38.319v19.566h-62.871V75.019z"/>
		<path fill="#344984" d="M277.816,75.019h24.606v79.456h-24.606V75.019z"/>
		<path fill="#344984" d="M320.2,75.019h22.926l29.918,43.959V75.019h23.143v79.456h-23.143l-29.755-43.627v43.627H320.2V75.019z"/>
		<path fill="#344984" d="M406.918,75.019h74.633v19.62h-25.04v59.836h-24.552V94.639h-25.041V75.019z"/>
		<path fill="#344984" d="M485.778,114.801c0-12.971,3.612-23.07,10.84-30.297c7.226-7.226,17.289-10.84,30.188-10.84
			c13.225,0,23.414,3.55,30.568,10.65c7.154,7.101,10.731,17.046,10.731,29.837c0,9.287-1.563,16.902-4.688,22.845
			c-3.126,5.944-7.642,10.569-13.55,13.875c-5.907,3.307-13.271,4.959-22.086,4.959c-8.962,0-16.378-1.427-22.249-4.282
			c-5.872-2.854-10.632-7.371-14.281-13.55C487.602,131.819,485.778,124.087,485.778,114.801z M510.33,114.909
			c0,8.021,1.49,13.785,4.472,17.29c2.98,3.505,7.036,5.257,12.168,5.257c5.274,0,9.357-1.716,12.248-5.149
			c2.891-3.432,4.336-9.593,4.336-18.482c0-7.479-1.509-12.944-4.525-16.396c-3.018-3.45-7.109-5.176-12.275-5.176
			c-4.951,0-8.926,1.753-11.924,5.257C511.829,101.017,510.33,106.816,510.33,114.909z"/>
		<path fill="#344984" d="M581.494,75.019h22.926l29.918,43.959V75.019h23.143v79.456h-23.143l-29.756-43.627v43.627h-23.088V75.019
			z"/>
	</g>
</g>
<g id="Layer_3">
	<g>
		<defs>
			<rect id="SVGID_2_" x="105.696" y="128.349" width="358.695" height="353.261"/>
		</defs>
		<clipPath id="SVGID_3_">
			<use xlink:href="#SVGID_2_"  overflow="visible"/>
		</clipPath>
		<g clip-path="url(#SVGID_3_)">
			<path fill="#32396B" d="M352.259,491.616v-91.395c0-17.044-10.955-30.86-24.469-30.86H136.944
				c-13.514,0-24.469,13.816-24.469,30.86v91.395H352.259z"/>
			<path fill="#CCC26A" d="M259.51,308.731c6.056,29.625-13.05,58.55-42.675,64.607l-21.463,4.387
				c-29.625,6.057-58.55-13.049-64.606-42.674l-17.17-83.99c-6.056-29.625,13.05-58.55,42.675-64.606l21.463-4.388
				c29.625-6.056,58.55,13.049,64.606,42.675L259.51,308.731z"/>
			<path fill="#E8E07E" d="M348.981,279.1c6.29,30.767-18.218,61.761-54.74,69.227l-26.459,5.409
				c-36.522,7.466-71.228-11.422-77.518-42.189l-17.832-87.228c-6.29-30.767,18.218-61.76,54.74-69.227l26.459-5.409
				c36.522-7.467,71.228,11.422,77.518,42.189L348.981,279.1z"/>
			<path fill="#AD3D34" d="M268.247,460.799c0,16.151-6.165,29.244-13.769,29.244h-43.224c-7.605,0-13.77-13.093-13.77-29.244
				v-64.646c0-16.153,6.165-29.245,13.77-29.245h43.224c7.604,0,13.769,13.092,13.769,29.245V460.799z"/>
			
				<linearGradient id="SVGID_4_" gradientUnits="userSpaceOnUse" x1="239.0278" y1="327.2925" x2="239.0278" y2="200.4468" gradientTransform="matrix(0.9797 -0.2003 0.2003 0.9797 -52.8359 51.9849)">
				<stop  offset="0" style="stop-color:#EDC1A3"/>
				<stop  offset="0.4434" style="stop-color:#EDC4A6"/>
				<stop  offset="0.7609" style="stop-color:#EDCDAF"/>
			</linearGradient>
			<path fill="url(#SVGID_4_)" d="M330.313,307.719c2.916-8.788,3.669-17.992,1.8-27.136l-7.107-34.762
				c-7.205-35.246-50.361-56.19-96.392-46.78l-14.238,2.911c-46.03,9.41-77.503,45.611-70.298,80.857l7.106,34.762
				c1.87,9.144,6.175,17.313,12.306,24.252L330.313,307.719z"/>
			<linearGradient id="SVGID_5_" gradientUnits="userSpaceOnUse" x1="234.4722" y1="353.7935" x2="234.4722" y2="387.0024">
				<stop  offset="0" style="stop-color:#C78C86"/>
				<stop  offset="0.0747" style="stop-color:#CD978D"/>
				<stop  offset="0.2734" style="stop-color:#DBAF9C"/>
				<stop  offset="0.4848" style="stop-color:#E5C0A7"/>
				<stop  offset="0.7151" style="stop-color:#EBCAAD"/>
				<stop  offset="1" style="stop-color:#EDCDAF"/>
			</linearGradient>
			<ellipse fill="url(#SVGID_5_)" cx="234.472" cy="370.398" rx="30.418" ry="16.604"/>
			
				<rect x="161.471" y="321.216" transform="matrix(0.9797 -0.2003 0.2003 0.9797 -59.7115 55.9283)" fill="#E55C65" width="170.167" height="3.711"/>
			<circle fill="#395360" cx="212.834" cy="295.821" r="8.778"/>
			<circle fill="#395360" cx="289.124" cy="280.224" r="8.778"/>
			<path fill="#CC8569" d="M264.77,294.245c0.817,3.998-2.618,8.077-7.673,9.11l0,0c-5.056,1.033-9.816-1.37-10.633-5.368
				l-1.58-7.729c-0.817-3.998,2.618-8.077,7.673-9.11l0,0c5.056-1.033,9.816,1.37,10.633,5.368L264.77,294.245z"/>
			<path fill="#E5998C" d="M138.914,307.536c-1.574-7.698,3.391-15.213,11.087-16.787l0,0c7.697-1.574,15.213,3.39,16.787,11.088
				l1.734,8.483c1.574,7.698-3.391,15.213-11.088,16.787l0,0c-7.697,1.573-15.212-3.391-16.786-11.088L138.914,307.536z"/>
			<linearGradient id="SVGID_6_" gradientUnits="userSpaceOnUse" x1="374.6489" y1="365.002" x2="448.8896" y2="365.002">
				<stop  offset="0" style="stop-color:#EDC1A3"/>
				<stop  offset="0.4434" style="stop-color:#EDC4A6"/>
				<stop  offset="0.7609" style="stop-color:#EDCDAF"/>
			</linearGradient>
			<path fill="url(#SVGID_6_)" d="M445.531,350.537l-8.278-10.961c-3.091-4.095-6.938-6.402-8.591-5.154l-21.795,16.462
				l-4.572-6.053c-1.248-1.653-3.6-1.981-5.253-0.733l-20.903,15.788c-1.653,1.248-1.98,3.6-0.732,5.252l5.777,7.65
				c0.332,1.882,1.47,4.318,3.253,6.679l8.279,10.961c3.093,4.096,6.938,6.402,8.592,5.154l46.831-35.372
				C449.792,358.963,448.626,354.633,445.531,350.537z"/>
			<path fill="#32396B" d="M388.885,489.025c-0.642,1.971-2.758,3.047-4.727,2.405l-52.814-17.197
				c-1.969-0.641-3.046-2.756-2.405-4.727l34.36-105.525c0.641-1.969,2.757-3.046,4.727-2.405l52.814,17.197
				c1.969,0.642,3.046,2.757,2.404,4.727L388.885,489.025z"/>
			<path fill="#A08B50" d="M226.676,276.316c-0.131,2.298-2.1,4.055-4.396,3.924l-27.955-1.59c-2.297-0.131-4.054-2.099-3.923-4.397
				l0,0c0.13-2.297,2.099-4.054,4.397-3.923l27.955,1.59C225.05,272.051,226.806,274.02,226.676,276.316L226.676,276.316z"/>
			<path fill="#A08B50" d="M303.929,255.103c0.461,2.254-0.993,4.456-3.248,4.917l-27.433,5.608
				c-2.254,0.46-4.456-0.994-4.917-3.248l0,0c-0.461-2.254,0.994-4.456,3.248-4.917l27.433-5.608
				C301.267,251.395,303.469,252.849,303.929,255.103L303.929,255.103z"/>
			<path fill="#395360" d="M208.53,296.04c0.24,1.172-0.517,2.317-1.688,2.557l-4.245,0.868c-1.173,0.24-2.317-0.517-2.557-1.688
				l0,0c-0.24-1.172,0.517-2.317,1.689-2.557l4.245-0.868C207.146,294.111,208.29,294.868,208.53,296.04L208.53,296.04z"/>
			<path fill="#395360" d="M301.115,277.113c0.239,1.172-0.517,2.317-1.689,2.557l-4.245,0.868c-1.172,0.24-2.317-0.517-2.557-1.688
				l0,0c-0.24-1.172,0.517-2.317,1.689-2.557l4.246-0.868C299.73,275.184,300.875,275.94,301.115,277.113L301.115,277.113z"/>
			<path fill="#CCC26A" d="M116.763,238.249c-2.747-13.437,7.819-26.945,23.602-30.171l0,0c15.781-3.227,30.802,5.051,33.549,18.488
				l9.814,48.007c2.747,13.438-7.819,26.946-23.601,30.172l0,0c-15.782,3.227-30.803-5.051-33.55-18.488L116.763,238.249z"/>
			<path fill="#E55C65" d="M272.825,318.368c-2.307-3.378-7.027-5.7-12.491-5.7c-7.335,0-13.343,4.177-13.94,9.492L272.825,318.368z
				"/>
			<linearGradient id="SVGID_7_" gradientUnits="userSpaceOnUse" x1="167.3164" y1="358.335" x2="314.0176" y2="358.335">
				<stop  offset="0" style="stop-color:#EDC1A3"/>
				<stop  offset="0.4434" style="stop-color:#EDC4A6"/>
				<stop  offset="0.7609" style="stop-color:#EDCDAF"/>
			</linearGradient>
			<path fill="url(#SVGID_7_)" d="M167.316,347.668c11.067,13.045,27.57,21.333,46.018,21.333H268
				c18.447,0,34.95-8.288,46.018-21.333H167.316z"/>
			
				<rect x="167.742" y="345.875" transform="matrix(1 -0.0051 0.0051 1 -1.774 1.2356)" fill="#E55C65" width="146.275" height="3.711"/>
			<path fill="#E55C65" d="M239.858,347.243c1.833,3.657,6.199,6.59,11.614,7.323c7.27,0.983,13.783-2.351,15.087-7.537
				L239.858,347.243z"/>
			<circle fill="#FFFFFF" cx="184.162" cy="371.059" r="9.667"/>
			<circle fill="#FFFFFF" cx="208.574" cy="384" r="9.667"/>
			<circle fill="#FFFFFF" cx="236.418" cy="384" r="9.667"/>
			<circle fill="#FFFFFF" cx="264.89" cy="382" r="9.667"/>
			<circle fill="#FFFFFF" cx="289.123" cy="371.059" r="9.667"/>
		</g>
	</g>
</g>
</svg>
