<?xml version="1.0" encoding="utf-8"?>
<!-- Generator: Adobe Illustrator 16.0.0, SVG Export Plug-In . SVG Version: 6.00 Build 0)  -->
<!DOCTYPE svg PUBLIC "-//W3C//DTD SVG 1.1//EN" "http://www.w3.org/Graphics/SVG/1.1/DTD/svg11.dtd">
<svg version="1.1" xmlns="http://www.w3.org/2000/svg" xmlns:xlink="http://www.w3.org/1999/xlink" x="0px" y="0px" width="768px"
	 height="768px" viewBox="0 0 768 768" enable-background="new 0 0 768 768" xml:space="preserve">
<g id="hands">
</g>
<g id="suit">
	<path d="M161.225,751.355c0,7.318,8.053,13.251,17.988,13.251h30.324c9.935,0,17.988-5.933,17.988-13.251v-20.614
		c0-7.32-8.054-13.253-17.988-13.253h-30.324c-9.936,0-17.988,5.933-17.988,13.253V751.355z"/>
	<path d="M282.147,751.355c0,7.318,8.053,13.251,17.989,13.251h30.324c9.935,0,17.988-5.933,17.988-13.251v-20.614
		c0-7.32-8.054-13.253-17.988-13.253h-30.324c-9.936,0-17.989,5.933-17.989,13.253V751.355z"/>
	<path fill="#1B202D" d="M163.567,462.212H344.24c6.622,0,11.992,7.049,11.992,15.74v13.374v41.72v188.89
		c0,5.076-5.37,9.194-11.992,9.194h-66.478c-0.689,0-1.36-0.055-2.018-0.142V556.316c0-8.389-8.054-15.19-17.989-15.19h-5.247
		c-9.936,0-17.988,6.802-17.988,15.19v174.279c-1.252,0.339-2.595,0.534-3.998,0.534h-66.476c-6.624,0-11.993-4.118-11.993-9.194
		V537.427c-0.307-1.393-0.48-2.859-0.48-4.381v-55.094C151.574,469.261,156.943,462.212,163.567,462.212z"/>
	<path fill="#2D394C" d="M426.253,349.06c2.687,5.304-6.29,14.116-20.043,19.682l-5.387,2.18
		c-13.753,5.565-27.085,5.778-29.771,0.478l-58.829-116.152c-2.688-5.303,6.288-14.117,20.043-19.682l5.386-2.179
		c13.753-5.566,27.084-5.779,29.77-0.477L426.253,349.06z"/>
	<path fill="#2D394C" d="M151.064,466.209c0,30.903,31.32,30.376,69.955,30.376h67.79c38.636,0,69.956,0.527,69.956-30.376
		l23.984-200.638c0-30.903-31.32-55.954-69.956-55.954H189.04c-38.636,0-69.954,25.051-69.954,55.954L151.064,466.209z"/>
	<path fill="#E2A791" d="M486.326,214.797c3.639-7.093-0.381-16.845-8.982-21.78l-9.516-5.462c-8.599-4.937-18.52-3.19-22.156,3.903
		l-9.521,18.551c-3.637,7.089,0.386,16.84,8.982,21.776l9.516,5.462c8.6,4.936,18.521,3.188,22.16-3.905L486.326,214.797z"/>
	<path fill="#2D394C" d="M424.687,221.182c2.667-7.034,15.724-7.625,29.158-1.325l5.262,2.468
		c13.435,6.299,22.167,17.113,19.501,24.144l-58.42,154.037c-2.666,7.034-15.725,7.628-29.159,1.326l-5.26-2.469
		c-13.435-6.299-22.167-17.111-19.501-24.144L424.687,221.182z"/>
	<path fill="#E6E9ED" d="M434.797,212.001c0.249-0.51,9.245,3.176,20.082,8.23l4.244,1.978c10.836,5.054,19.424,9.568,19.17,10.075
		l-5.52,11.166c-0.25,0.511-9.241-3.175-20.084-8.229l-4.244-1.979c-10.833-5.053-19.419-9.565-19.166-10.075L434.797,212.001z"/>
</g>
<g id="LK--_1_">
	<path opacity="0.2" fill="#191717" d="M265.771,234.512c2.3-1.85,5.075-3.085,8.014-3.725c0.77-2.368,2.291-4.614,4.598-6.479
		l15.929-12.884c6.986-5.65,18.375-5.701,25.439-0.114l19.978,15.802c7.063,5.587,7.128,14.697,0.142,20.348l-15.928,12.882
		l15.633,12.366c7.063,5.587,7.128,14.697,0.143,20.348l-61.369,49.637c-3.465,2.802-8.012,4.223-12.577,4.266V234.512z"/>
	<path opacity="0.2" fill="#191717" d="M258.289,234.512c-2.3-1.85-5.075-3.085-8.014-3.725c-0.77-2.368-2.291-4.614-4.598-6.479
		l-15.928-12.884c-6.986-5.65-18.375-5.701-25.438-0.114l-19.978,15.802c-7.064,5.587-7.128,14.697-0.144,20.348l15.931,12.882
		l-15.633,12.366c-7.065,5.587-7.129,14.697-0.146,20.348l61.371,49.637c3.465,2.802,8.011,4.223,12.577,4.266V234.512z"/>
	<path opacity="0.3" d="M151.574,322.343c0,3.08,3.123,5.578,6.974,5.578h38.015c3.851,0,6.975-2.498,6.975-5.578l0,0
		c0-3.082-3.124-5.579-6.975-5.579h-38.015C154.697,316.764,151.574,319.261,151.574,322.343L151.574,322.343z"/>
	<path opacity="0.3" d="M232.156,384.742c0,5.626,4.867,10.185,10.871,10.185l0,0c6.003,0,10.871-4.559,10.871-10.185l0,0
		c0-5.625-4.867-10.185-10.871-10.185l0,0C237.023,374.558,232.156,379.117,232.156,384.742L232.156,384.742z"/>
	<path opacity="0.3" d="M232.156,441.281c0,5.625,4.867,10.185,10.871,10.185l0,0c6.003,0,10.871-4.56,10.871-10.185l0,0
		c0-5.625-4.867-10.186-10.871-10.186l0,0C237.023,431.096,232.156,435.656,232.156,441.281L232.156,441.281z"/>
	<path fill="#E2A791" d="M440.652,201.659c-1.659,3.89,0.701,8.625,5.273,10.576l0,0c4.57,1.95,9.622,0.378,11.282-3.512
		l14.149-33.162c1.66-3.89-0.701-8.625-5.272-10.576l0,0c-4.571-1.95-9.622-0.378-11.282,3.512L440.652,201.659z"/>
</g>
<g id="Layer_8">
	<g>
		<path fill="#E6E9ED" d="M240.988,297.579c3.793,10.666,10.062,19.185,22.475,19.185h0.297c12.412,0,18.255-8.016,22.474-19.185
			l28.092-67.269c0-10.596-10.062-19.185-22.475-19.185h-52.736c-12.412,0-22.474,8.589-22.474,19.185L240.988,297.579z"/>
		<g>
			<defs>
				<path id="SVGID_1_" d="M238.982,299.372c4.105,11.873,10.887,21.356,24.314,21.356h0.322c13.428,0,19.75-8.923,24.314-21.356
					l30.391-74.884c0-11.794-10.886-21.356-24.313-21.356h-57.052c-13.428,0-24.313,9.562-24.313,21.356L238.982,299.372z"/>
			</defs>
			<clipPath id="SVGID_2_">
				<use xlink:href="#SVGID_1_"  overflow="visible"/>
			</clipPath>
			<path clip-path="url(#SVGID_2_)" fill="#992C2C" d="M242.516,381.618c0,10.783,8.872,19.522,19.816,19.522l0,0
				c10.944,0,19.815-8.739,19.815-19.522V262.492c0-10.782-8.871-19.52-19.815-19.52l0,0c-10.944,0-19.816,8.738-19.816,19.52
				V381.618z"/>
			<path clip-path="url(#SVGID_2_)" fill="#992C2C" d="M242.516,239.522c0,4.271,8.872,7.733,19.816,7.733l0,0
				c10.944,0,19.815-3.461,19.815-7.733v-47.189c0-4.271-8.871-7.732-19.815-7.732l0,0c-10.944,0-19.816,3.461-19.816,7.732V239.522
				z"/>
		</g>
	</g>
</g>
<g id="Layer_9">
	<path fill="#302E2E" d="M566.072,362.851c-1.391,3.59-5.506,5.952-8.906,5.281l0,0c-3.407-0.67-4.958-3.814-3.715-7.028
		c16.716-43.05,2.063-86.291-37.38-110.312c-2.939-1.795-3.62-5.234-1.322-7.838l0,0c2.292-2.6,6.996-3.225,10.282-1.221
		C568.339,268.107,584.428,315.583,566.072,362.851z"/>
	
		<linearGradient id="SVGID_3_" gradientUnits="userSpaceOnUse" x1="360.1831" y1="228.4268" x2="360.1831" y2="58.0938" gradientTransform="matrix(1 0 0 1 -101.4023 0)">
		<stop  offset="0" style="stop-color:#DBAF7F"/>
		<stop  offset="0.3394" style="stop-color:#DBAC7F"/>
		<stop  offset="0.5896" style="stop-color:#DBA37F"/>
		<stop  offset="0.7609" style="stop-color:#DB977F"/>
	</linearGradient>
	<path fill="url(#SVGID_3_)" d="M351.115,161.49c0,36.968-38.086,66.937-85.069,66.937h-14.532
		c-46.981,0-85.069-29.969-85.069-66.937v-36.46c0-36.967,38.088-66.936,85.069-66.936h14.532c46.982,0,85.069,29.969,85.069,66.936
		V161.49z"/>
	<path fill="#E8E07E" d="M156.324,157.242c0,0-14.984-108.047,29.971-125.843c44.957-17.795,109.509-8.898,156.771,26.694
		c47.26,35.593,57.635,22.881,36.887,47.032c-20.75,24.152-173.693,6.11-197.115-15.253
		C182.838,89.872,201.281,181.395,156.324,157.242z"/>
	<rect x="173.697" y="184.749" fill="#CC6E5E" width="170.166" height="3.814"/>
	<ellipse fill="#395360" cx="231.202" cy="152.281" rx="8.778" ry="9.021"/>
	<ellipse fill="#395360" cx="309.069" cy="152.281" rx="8.779" ry="9.021"/>
	<path fill="#E8E07E" d="M327.629,134.668c0.686,3.925-1.854,7.678-5.672,8.383l-23.29,4.301c-3.82,0.705-7.473-1.905-8.158-5.83
		l0,0c-0.688-3.925,1.853-7.678,5.672-8.383l23.29-4.301C323.289,128.134,326.943,130.743,327.629,134.668L327.629,134.668z"/>
	<path fill="#CC8569" d="M281.799,162.254c0,7.51-5.153,13.598-11.509,13.598l0,0c-6.357,0-11.51-6.087-11.51-13.598v-14.518
		c0-7.509,5.152-13.598,11.51-13.598l0,0c6.355,0,11.509,6.088,11.509,13.598V162.254z"/>
	<path fill="#D8967C" d="M160.574,143.438c0-8.074,6.369-14.618,14.225-14.618l0,0c7.857,0,14.227,6.544,14.227,14.618v8.898
		c0,8.074-6.369,14.618-14.227,14.618l0,0c-7.855,0-14.225-6.544-14.225-14.618V143.438z"/>
	<path fill="#E8E07E" d="M249.567,143.426c-1.366,3.732-5.419,5.62-9.049,4.215l-25.055-9.687c-3.633-1.404-5.469-5.569-4.102-9.301
		l0,0c1.367-3.732,5.418-5.619,9.051-4.215l25.053,9.687C249.097,135.53,250.933,139.694,249.567,143.426L249.567,143.426z"/>
	<path opacity="0.5" fill="#1F2123" d="M376.891,333.683c17.662,8.188,25.343,29.143,17.156,46.805l0,0
		c-8.188,17.661-29.144,25.34-46.805,17.155l-202.026-93.655c-17.662-8.188-25.343-29.142-17.155-46.804l0,0
		c8.188-17.662,29.143-25.342,46.804-17.155L376.891,333.683z"/>
	<path fill="#2D394C" d="M376.891,327.683c17.662,8.188,25.343,29.143,17.156,46.805l0,0c-8.188,17.661-29.144,25.34-46.805,17.155
		l-202.026-93.655c-17.662-8.188-25.343-29.142-17.155-46.804l0,0c8.188-17.662,29.143-25.342,46.804-17.155L376.891,327.683z"/>
	<g>
		<path fill="#E6E9ED" d="M334.386,361.968c-2.033,8.634,5.309,16.123,16.397,16.725l12.27,0.665
			c11.09,0.603,21.729-5.906,23.761-14.543l5.32-22.58c2.032-8.634-5.309-16.123-16.396-16.724l-12.271-0.667
			c-11.091-0.602-21.728,5.908-23.76,14.543L334.386,361.968z"/>
	</g>
	<path fill="#5E433B" d="M275.745,804.403c0,10.306,8.73,18.66,19.499,18.66H598.59c10.769,0,19.499-8.354,19.499-18.66V324.046
		c0-10.306-8.73-18.66-19.499-18.66l-303.346,50.088c-10.769,0-19.499,8.354-19.499,18.66V804.403z"/>
	<g>
		<path fill="#E2A791" d="M340.386,367.968c-2.033,8.634,5.309,16.123,16.397,16.725l12.27,0.665
			c11.09,0.603,21.729-5.906,23.761-14.543l5.32-22.58c2.032-8.634-5.309-16.123-16.396-16.724l-12.271-0.667
			c-11.091-0.602-21.728,5.908-23.76,14.543L340.386,367.968z"/>
	</g>
</g>
</svg>
