<?xml version="1.0" encoding="utf-8"?>
<!-- Generator: Adobe Illustrator 16.0.0, SVG Export Plug-In . SVG Version: 6.00 Build 0)  -->
<!DOCTYPE svg PUBLIC "-//W3C//DTD SVG 1.1//EN" "http://www.w3.org/Graphics/SVG/1.1/DTD/svg11.dtd">
<svg version="1.1" xmlns="http://www.w3.org/2000/svg" xmlns:xlink="http://www.w3.org/1999/xlink" x="0px" y="0px" width="768px"
	 height="768px" viewBox="0 0 768 768" enable-background="new 0 0 768 768" xml:space="preserve">
<g id="background_color">
	<rect fill="#191616" width="768" height="768"/>
</g>
<g id="shine_burst">
	<radialGradient id="SVGID_1_" cx="380.8955" cy="401.2031" r="435.3892" gradientUnits="userSpaceOnUse">
		<stop  offset="0" style="stop-color:#FFFFFF"/>
		<stop  offset="0.8446" style="stop-color:#FFFFFF;stop-opacity:0"/>
	</radialGradient>
	<path fill="url(#SVGID_1_)" d="M813.057,405.454l1.759,0.025l-35.417-159.705L399.542,389.133c-1.396-2.71-3.214-5.166-5.371-7.279
		l314.644-267.29L576.992,17.698l-0.685,1.28l-1.531-1.119l-190.16,357.825c-2.501-0.974-5.173-1.601-7.96-1.826l34.447-243.607
		l24.016-164.293l-0.794,0.07l0.237-1.679L271.675-20.558l14.02,58.547L364.827,375.4c-1.002,0.358-1.978,0.769-2.925,1.232
		L180.434,5.442L54.018,109.268l299.418,273.707c-1.5,1.64-2.808,3.458-3.892,5.417L-21.331,219.269l-31.693,160.484l399.074,20.903
		c-0.023,0.476-0.036,0.953-0.036,1.434c0,2.11,0.238,4.164,0.675,6.143L-51.034,503.25l73.7,146.04l329.136-230.046
		c1.955,2.565,4.338,4.785,7.042,6.557l-64.862,93.359L122.239,760.799l3.014,1.222l-1.85,2.662l152.256,59.813l49.382-209.31
		l45.74-184.995c1.169,0.147,2.357,0.231,3.566,0.231c3.153,0,6.182-0.522,9.015-1.474l52.325,409.107l153.093-57.638
		L392.649,423.711c1.494-1.266,2.854-2.685,4.058-4.23l303.341,275.707l79.121-143.177L401.822,409.026
		c0.559-2.22,0.858-4.543,0.858-6.937c0-0.362-0.014-0.721-0.027-1.079l410.711,5.827L813.057,405.454z"/>
</g>
<g id="shirt">
	<g>
		<g opacity="0.43">
			<path fill="#541E34" d="M606.15,374c-18.813-31.324-41.479-61.972-64.294-89.811c24.59-0.927,46.38-5.691,46.38-5.691
				c23.062-44.94,0-112.099,0-112.099c-50.052-11.471-158.383-4.966-162.395-4.72c-0.076-0.068-0.127-0.114-0.127-0.114
				c-27.324,4.665-69.02,5.982-94.206,14.669c0.477,2.546,14.477-4.083,14.477-1.454c0,35.346-24.749,82.781-97.749,79.22
				c-14.487-0.707-28.279-2.017-40.692-5.64c-21.613,13.137-34.221,22.298-34.221,22.298
				c-83.913,85.659-110.75,123.436-110.75,123.436S102.236,529,132.593,519.682c16.283-4.998,39.867-29.571,58.239-51.283
				C271.04,606.457,365.28,702.131,365.28,702.131c260.869,44.565,355.435-216.993,355.435-216.993
				C665.279,448.579,606.15,374,606.15,374z"/>
		</g>
		<g>
			<linearGradient id="SVGID_2_" gradientUnits="userSpaceOnUse" x1="374.2979" y1="684.9648" x2="396.4537" y2="230.2874">
				<stop  offset="0" style="stop-color:#49497F"/>
				<stop  offset="0.0259" style="stop-color:#4B4A81"/>
				<stop  offset="0.316" style="stop-color:#5B5692"/>
				<stop  offset="0.6284" style="stop-color:#655D9D"/>
				<stop  offset="1" style="stop-color:#685FA0"/>
			</linearGradient>
			<path fill="url(#SVGID_2_)" d="M601.15,366c-18.813-31.324-41.479-61.972-64.294-89.811c24.59-0.927,46.38-5.691,46.38-5.691
				c23.062-44.94,0-112.099,0-112.099c-50.052-11.471-158.383-4.966-162.395-4.72c-0.076-0.068-0.127-0.114-0.127-0.114
				c-27.324,4.665-69.02,5.982-94.206,14.669c0.477,2.546,14.477-4.083,14.477-1.454c0,35.346-24.749,82.781-97.749,79.22
				c-14.487-0.707-28.279-2.017-40.692-5.64c-21.613,13.137-34.221,22.298-34.221,22.298
				c-83.913,85.659-110.75,123.436-110.75,123.436S97.236,521,127.593,511.682c16.283-4.998,39.867-29.571,58.239-51.283
				C266.04,598.457,360.28,694.131,360.28,694.131c260.869,44.565,355.435-216.993,355.435-216.993
				C660.279,440.579,601.15,366,601.15,366z"/>
		</g>
	</g>
	<linearGradient id="SVGID_3_" gradientUnits="userSpaceOnUse" x1="207.4053" y1="218.1172" x2="361.4995" y2="218.1172">
		<stop  offset="0" style="stop-color:#464277"/>
		<stop  offset="0.2937" style="stop-color:#413D6B"/>
		<stop  offset="0.824" style="stop-color:#342F4B"/>
		<stop  offset="1" style="stop-color:#2F2A3F"/>
	</linearGradient>
	<path fill="url(#SVGID_3_)" d="M341.509,165.234c0,0-26.773,2.567-52.272,30.766c-20,22.117-46,36-81.539,47c0,0-7,4,47.539,28
		C255.236,271,416.781,234.469,341.509,165.234z"/>
	<linearGradient id="SVGID_4_" gradientUnits="userSpaceOnUse" x1="556.6797" y1="304.6748" x2="455.6797" y2="96.6748">
		<stop  offset="0" style="stop-color:#49497F"/>
		<stop  offset="0.0259" style="stop-color:#4B4A81"/>
		<stop  offset="0.316" style="stop-color:#5B5692"/>
		<stop  offset="0.6284" style="stop-color:#655D9D"/>
		<stop  offset="1" style="stop-color:#685FA0"/>
	</linearGradient>
	<path fill="url(#SVGID_4_)" d="M420.715,153.687c0,0,111.521-6.976,162.521,4.712c0,0,23.062,67.159,0,112.099
		c0,0-51,11.153-85,2.653S401.193,267.978,420.715,153.687z"/>
	<linearGradient id="SVGID_5_" gradientUnits="userSpaceOnUse" x1="374.2905" y1="685.1104" x2="396.1865" y2="235.7673">
		<stop  offset="0" style="stop-color:#49497F"/>
		<stop  offset="0.0259" style="stop-color:#4B4A81"/>
		<stop  offset="0.316" style="stop-color:#5B5692"/>
		<stop  offset="0.6284" style="stop-color:#655D9D"/>
		<stop  offset="1" style="stop-color:#685FA0"/>
	</linearGradient>
	<path fill="url(#SVGID_5_)" d="M601.15,366c-66.304-110.392-180.436-212.435-180.436-212.435
		c-27.324,4.665-69.02,5.982-94.206,14.669c0.477,2.546,14.477-4.083,14.477-1.454c0,35.346-24.749,82.781-97.749,79.22
		c-14.487-0.707-28.279-2.017-40.692-5.64c-21.613,13.137-34.221,22.298-34.221,22.298
		c-83.913,85.659-110.75,123.436-110.75,123.436S97.236,521,127.593,511.682c16.283-4.998,39.867-29.571,58.239-51.283
		C266.04,598.457,360.28,694.131,360.28,694.131c260.869,44.565,355.435-216.993,355.435-216.993
		C660.279,440.579,601.15,366,601.15,366z"/>
	<path fill="#685FA0" d="M120.721,426.519c19.749,34.386,23.496,72.037,8.369,84.097c-15.127,12.059-43.4-6.039-63.149-40.426
		c-19.749-34.385-23.495-72.035-8.368-84.095C72.7,374.035,100.973,392.134,120.721,426.519z"/>
	<linearGradient id="SVGID_6_" gradientUnits="userSpaceOnUse" x1="54.0181" y1="448.3545" x2="132.644" y2="448.3545">
		<stop  offset="0" style="stop-color:#464277"/>
		<stop  offset="0.2937" style="stop-color:#413D6B"/>
		<stop  offset="0.824" style="stop-color:#342F4B"/>
		<stop  offset="1" style="stop-color:#2F2A3F"/>
	</linearGradient>
	<path fill="url(#SVGID_6_)" d="M117.236,429.297c17.236,30.011,20.505,62.871,7.303,73.396s-37.876-5.271-55.113-35.281
		c-17.236-30.011-20.505-62.869-7.303-73.395C75.325,383.492,100,399.288,117.236,429.297z"/>
	<g>
		<path fill="#EAEEF9" d="M259.507,366.779l16.108-9.873l33.219,29.009l-10.916-42.678l15.64-9.586l12.048,61.215l-16.703,10.237
			L259.507,366.779z"/>
		<path fill="#EAEEF9" d="M329.574,358.181c-4.989-8.142-6.606-15.869-4.851-23.187c1.756-7.313,6.681-13.452,14.777-18.415
			c8.301-5.087,16.062-6.779,23.282-5.075c7.222,1.705,13.292,6.57,18.211,14.599c3.573,5.829,5.521,11.21,5.847,16.142
			c0.324,4.935-0.729,9.573-3.167,13.92c-2.436,4.348-6.419,8.218-11.954,11.61c-5.623,3.445-10.827,5.402-15.61,5.871
			c-4.784,0.467-9.508-0.538-14.176-3.012C337.268,368.16,333.147,364.008,329.574,358.181z M345.027,348.804
			c3.084,5.035,6.236,8.08,9.457,9.131c3.218,1.054,6.438,0.594,9.658-1.38c3.311-2.029,5.213-4.677,5.706-7.943
			c0.495-3.266-0.969-7.689-4.388-13.268c-2.878-4.695-5.926-7.543-9.146-8.55c-3.223-1.003-6.453-0.514-9.696,1.474
			c-3.106,1.904-4.927,4.533-5.461,7.888C340.623,339.508,341.913,343.724,345.027,348.804z"/>
		<path fill="#EAEEF9" d="M368.936,299.71L415.776,271l7.548,12.313l-15.717,9.632l23.018,37.554l-15.409,9.444l-23.017-37.554
			l-15.717,9.633L368.936,299.71z"/>
		<path fill="#EAEEF9" d="M422.717,266.747l41.296-25.311l6.525,10.647l-25.853,15.845l4.857,7.925l23.979-14.697l6.233,10.171
			l-23.98,14.698l6.025,9.83l26.602-16.304l6.922,11.294l-42.044,25.769L422.717,266.747z"/>
	</g>
	<polygon fill="#EAEEF9" points="269.913,388.404 271.454,398.27 280.453,402.592 271.547,407.105 270.217,417 263.172,409.926 
		253.35,411.718 257.903,402.832 253.163,394.045 263.02,395.628 	"/>
	<polygon fill="#EAEEF9" points="499.612,244.234 502.026,253.45 510.152,258.421 503.097,261.561 503.076,270.482 496.301,263.208 
		488.161,263.75 491.031,256.114 486.021,247.527 494.569,250.083 	"/>
	<g>
		<defs>
			<path id="SVGID_7_" d="M601.15,366c-18.813-31.324-41.479-61.972-64.294-89.811c24.59-0.927,46.38-5.691,46.38-5.691
				c23.062-44.94,0-112.099,0-112.099c-50.052-11.471-158.383-4.966-162.395-4.72c-0.076-0.068-0.127-0.114-0.127-0.114
				c-27.324,4.665-69.02,5.982-94.206,14.669c0.477,2.546,14.477-4.083,14.477-1.454c0,35.346-24.749,82.781-97.749,79.22
				c-14.487-0.707-28.279-2.017-40.692-5.64c-21.613,13.137-34.221,22.298-34.221,22.298
				c-83.913,85.659-110.75,123.436-110.75,123.436c-15.127,12.06-11.381,49.71,8.368,84.095
				c19.115,33.282,46.212,51.303,61.65,41.493c0.001-0.001,0.001-0.001,0.002-0.001c16.283-4.998,39.867-29.571,58.239-51.283
				C266.04,598.457,390.28,723.131,390.28,723.131c260.869,44.565,355.435-216.993,355.435-216.993
				C690.279,469.579,601.15,366,601.15,366z"/>
		</defs>
		<clipPath id="SVGID_8_">
			<use xlink:href="#SVGID_7_"  overflow="visible"/>
		</clipPath>
		<linearGradient id="SVGID_9_" gradientUnits="userSpaceOnUse" x1="411.1582" y1="455.0449" x2="282.6934" y2="171.4341">
			<stop  offset="0" style="stop-color:#F1F1F1"/>
			<stop  offset="0.0102" style="stop-color:#F1F1F1;stop-opacity:0.9898"/>
			<stop  offset="0.462" style="stop-color:#FCFCFC;stop-opacity:0.538"/>
			<stop  offset="1" style="stop-color:#FFFFFF;stop-opacity:0"/>
		</linearGradient>
		<path opacity="0.2" clip-path="url(#SVGID_8_)" fill="url(#SVGID_9_)" d="M134.531,457.635c0,0,1.969-5.135,3.846-9.28
			C145.096,433.511,228,350.887,247,339.943S311,316,343,297s66.885-46.127,85.942-55.563s59.614-20.502,66.382-13.06
			s-13.4-14.394-13.4-14.394s82.707-8.017,111.392,0S627,167,603,144s-378.189,2-395.595,14S50.572,320,48.286,347s0,49,0,49
			S87,343.25,134.531,457.635z"/>
		<radialGradient id="SVGID_10_" cx="187.5" cy="164.0518" r="310.184" gradientUnits="userSpaceOnUse">
			<stop  offset="0" style="stop-color:#FFFFFF"/>
			<stop  offset="0.0761" style="stop-color:#FFFFFF;stop-opacity:0.9239"/>
			<stop  offset="1" style="stop-color:#FFFFFF;stop-opacity:0"/>
		</radialGradient>
		<ellipse opacity="0.4" clip-path="url(#SVGID_8_)" fill="url(#SVGID_10_)" cx="187.5" cy="164.052" rx="366.5" ry="241.052"/>
		<radialGradient id="SVGID_11_" cx="270.8154" cy="203.8071" r="67.417" gradientUnits="userSpaceOnUse">
			<stop  offset="0" style="stop-color:#FFFFFF"/>
			<stop  offset="1" style="stop-color:#FFFFFF;stop-opacity:0.6"/>
		</radialGradient>
		<path opacity="0.1" clip-path="url(#SVGID_8_)" fill="url(#SVGID_11_)" d="M202.394,247c0,0,80.606,21.469,112.606-8.766
			s39-58.175,36-76.205s0.631-2.795,0.631-2.795H334l-79.838,48.749L202.394,228L190,238.234
			C190,238.234,197.597,245.845,202.394,247z"/>
		<path opacity="0.1" clip-path="url(#SVGID_8_)" fill="#231823" d="M160.419,487.589c0,0,74.22-31.363,65.215-72.159"/>
	</g>
	<path opacity="0.1" fill="#231823" d="M339.923,538.085c0,0,195.546,30.866,297.91-7.041"/>
	<path opacity="0.1" fill="#231823" d="M349.862,518.667c0,0,115.899,15.457,161.526-28.092"/>
	<path opacity="0.1" fill="#231823" d="M266.808,439.932c0,0,106.202-86.99,146.229-151.824"/>
	<path opacity="0.1" fill="#231823" d="M353.119,414.135c0,0,64.329-75.45,77.571-128.61"/>
</g>
<g id="hat">
	<g>
		<g>
			<g opacity="0.43">
				<path fill="#541E34" d="M307.646,148.723c0.004-0.019,0.01-0.032,0.015-0.05c0,0,0-0.001,0-0.001
					c0.938-3.301,2.282-9.702,0.812-15.572c-2.16-12.394-13.779-23.216-60.064,5.259c0.617-15.354-7.397-30.811-13.437-41.078
					c-17.022-28.939-44.716-11.982-56.346-16.43s13.915-7.983-51.273,20.221c-65.188,28.204-31.85,88.2-31.85,88.2
					c6.455,0.243,12.642,0.393,18.589,0.46c-0.607,0.104-0.941,0.16-0.941,0.16c0.897-0.043,1.792-0.094,2.687-0.142
					c24.689,0.214,45.041-1.056,61.737-3.467c17.183-0.755,47.677-3.972,66.86-16.821c37.794-9.46,62.504-18.543,62.504-18.543
					s0.215-0.564,0.509-1.524c0.01-0.026,0.017-0.061,0.027-0.087C307.528,149.127,307.585,148.933,307.646,148.723z"/>
			</g>
			<g>
				
					<linearGradient id="SVGID_12_" gradientUnits="userSpaceOnUse" x1="78.9253" y1="124.8838" x2="302.082" y2="124.8838" gradientTransform="matrix(0.9906 -0.1371 0.1371 0.9906 -15.3242 27.2998)">
					<stop  offset="0" style="stop-color:#B73B55"/>
					<stop  offset="1" style="stop-color:#E65A67"/>
				</linearGradient>
				<path fill="url(#SVGID_12_)" d="M302.646,143.723c0.004-0.019,0.01-0.032,0.015-0.05c0,0,0-0.001,0-0.001
					c0.938-3.301,2.282-9.702,0.812-15.572c-2.16-12.394-13.779-23.216-60.064,5.259c0.617-15.354-7.397-30.811-13.437-41.078
					c-17.022-28.939-44.716-11.982-56.346-16.43s13.915-7.983-51.273,20.221c-65.188,28.204-31.85,88.2-31.85,88.2
					c6.455,0.243,12.642,0.393,18.589,0.46c-0.607,0.104-0.941,0.16-0.941,0.16c0.897-0.043,1.792-0.094,2.687-0.142
					c24.689,0.214,45.041-1.056,61.737-3.467c17.183-0.755,47.677-3.972,66.86-16.821c37.794-9.46,62.504-18.543,62.504-18.543
					s0.215-0.564,0.509-1.524c0.01-0.026,0.017-0.061,0.027-0.087C302.528,144.127,302.585,143.933,302.646,143.723z"/>
			</g>
		</g>
		<path fill="#B73B55" d="M90.501,184.272c0,0-33.338-59.996,31.85-88.2c65.188-28.205,39.643-24.668,51.273-20.221
			s39.324-12.51,56.346,16.43C246.994,121.221,279.738,191.394,90.501,184.272z"/>
		<g>
			<defs>
				<path id="SVGID_13_" d="M92.089,184.15c0,0-32.836-59.316,31.278-87.15c64.116-27.833,38.986-24.355,50.431-19.952
					c11.445,4.403,38.679-12.338,55.445,16.273C246.009,121.934,278.268,191.309,92.089,184.15z"/>
			</defs>
			<clipPath id="SVGID_14_">
				<use xlink:href="#SVGID_13_"  overflow="visible"/>
			</clipPath>
			<path opacity="0.1" clip-path="url(#SVGID_14_)" fill="#FFFFFF" d="M175.768,79.769c0,0-35.944,18.695-45.928,23.071
				s-62.415,24.105-31.304,83.411c31.111,59.305-19.732-2.008-19.732-2.008s-92.659-50.288,92.91-115.138s65.719,8.615,65.719,8.615
				s9.651,45.212,8.128,49.875c-1.523,4.662-3.092,6.783-3.092,6.783S229.33,70.609,175.768,79.769z"/>
			<g clip-path="url(#SVGID_14_)">
				<path fill="#EAEEF9" d="M164.264,121.662l6.333-1.412l8.648,18.205l0.122-20.16l6.149-1.37l-1.396,28.287l-6.567,1.462
					L164.264,121.662z"/>
				<path fill="#EAEEF9" d="M188.744,130.213c-0.961-4.353-0.818-7.941,0.431-10.764c1.249-2.821,3.463-4.588,6.647-5.297
					c3.263-0.727,6.042-0.097,8.332,1.892c2.292,1.99,3.911,5.13,4.857,9.422c0.688,3.118,0.866,5.758,0.536,7.926
					c-0.332,2.167-1.103,3.966-2.316,5.4c-1.214,1.435-2.908,2.395-5.083,2.88c-2.211,0.492-4.147,0.421-5.807-0.213
					s-3.17-1.889-4.528-3.763C190.455,135.824,189.431,133.328,188.744,130.213z M194.811,128.899
					c0.594,2.691,1.388,4.544,2.384,5.556c0.994,1.013,2.125,1.377,3.391,1.096c1.302-0.29,2.183-1.091,2.642-2.402
					c0.46-1.311,0.36-3.458-0.298-6.44c-0.554-2.511-1.331-4.262-2.331-5.254c-1-0.991-2.138-1.346-3.413-1.062
					c-1.222,0.272-2.072,1.079-2.554,2.42C194.152,124.154,194.21,126.183,194.811,128.899z"/>
				<path fill="#EAEEF9" d="M207.291,112.073l16.54-3.687l1.453,6.584l-5.55,1.236l4.432,20.08l-5.442,1.213l-4.43-20.08
					l-5.549,1.237L207.291,112.073z"/>
				<path fill="#EAEEF9" d="M226.504,107.628l12.369-2.755l1.256,5.693l-7.743,1.725l0.935,4.238l7.183-1.602l1.2,5.438
					l-7.184,1.602l1.16,5.256l7.969-1.776l1.332,6.039l-12.594,2.807L226.504,107.628z"/>
			</g>
		</g>
		<path fill="#84233A" d="M108.149,184.893c0,0,64.741-10.856,83.426-19.422c18.685-8.565,48.593-20.086,52.725-30.754
			c0,0,43.569-23.333,54.019-14.937s3.618,26.141,3.618,26.141S209.136,180.035,108.149,184.893z"/>
		
			<linearGradient id="SVGID_15_" gradientUnits="userSpaceOnUse" x1="152.0337" y1="153.917" x2="301.9844" y2="153.917" gradientTransform="matrix(0.9906 -0.1371 0.1371 0.9906 -15.3242 27.2998)">
			<stop  offset="0" style="stop-color:#B73B55"/>
			<stop  offset="1" style="stop-color:#E65A67"/>
		</linearGradient>
		<path fill="url(#SVGID_15_)" d="M159.708,181.463c0,0,63.53,2.072,87.778-23.73c24.247-25.803,37.437-34.443,43.091-33.711
			c5.654,0.731,10.693,4.317,10.074,12.609c-0.619,8.292-2.634,8.319-2.634,8.319s3.68,2.986,4.644-1.276
			s12.734-55.629-61.806-8.731c-63.021,39.65-55.839,37.768-69.767,42.972C157.159,183.117,159.708,181.463,159.708,181.463z"/>
		<path fill="#84233A" d="M135.528,99.706c0,0-15.529,51.144-1.466,76.521C134.062,176.226,131.062,180.41,135.528,99.706z"/>
	</g>
</g>
</svg>
