<?xml version="1.0" encoding="utf-8"?>
<!-- Generator: Adobe Illustrator 16.0.0, SVG Export Plug-In . SVG Version: 6.00 Build 0)  -->
<!DOCTYPE svg PUBLIC "-//W3C//DTD SVG 1.1//EN" "http://www.w3.org/Graphics/SVG/1.1/DTD/svg11.dtd">
<svg version="1.1" xmlns="http://www.w3.org/2000/svg" xmlns:xlink="http://www.w3.org/1999/xlink" x="0px" y="0px" width="768px"
	 height="768px" viewBox="0 0 768 768" enable-background="new 0 0 768 768" xml:space="preserve">
<g id="Layer_4">
	<rect fill="#1B4A8E" width="768" height="768"/>
</g>
<g id="Layer_5">
	<radialGradient id="SVGID_1_" cx="380.8955" cy="401.2031" r="532.4561" gradientUnits="userSpaceOnUse">
		<stop  offset="0" style="stop-color:#FFFFFF"/>
		<stop  offset="0.8446" style="stop-color:#FFFFFF;stop-opacity:0"/>
	</radialGradient>
	<path opacity="0.3" fill="url(#SVGID_1_)" d="M909.404,406.402l2.15,0.03l-43.312-195.31L403.699,386.442
		c-1.708-3.314-3.931-6.317-6.568-8.902l384.791-326.88L620.711-67.802l-0.838,1.565l-1.872-1.369l-232.556,437.6
		c-3.058-1.19-6.326-1.957-9.735-2.232l42.126-297.917l29.37-200.921l-0.972,0.085l0.291-2.053l-199.201,18.458l17.146,71.6
		l96.773,412.634c-1.225,0.438-2.419,0.94-3.577,1.507L135.743-82.79l-154.6,126.973L347.314,378.91
		c-1.835,2.006-3.434,4.229-4.76,6.625l-453.559-206.827l-38.759,196.264l488.044,25.562c-0.029,0.582-0.044,1.166-0.044,1.754
		c0,2.58,0.291,5.092,0.826,7.512l-486.392,116.201l90.13,178.599l402.514-281.333c2.391,3.137,5.305,5.852,8.612,8.019
		l-79.323,114.173L64.574,840.968l3.686,1.494l-2.262,3.256l186.201,73.148l60.391-255.974l55.937-226.238
		c1.43,0.181,2.882,0.283,4.361,0.283c3.856,0,7.561-0.639,11.025-1.803l63.991,500.315l187.224-70.487L395.27,428.729
		c1.827-1.547,3.49-3.282,4.963-5.173L771.2,760.729l96.761-175.097L406.487,410.771c0.684-2.715,1.05-5.556,1.05-8.482
		c0-0.443-0.017-0.882-0.033-1.32l502.276,7.126L909.404,406.402z"/>
</g>
<g id="Layer_1">
	<g>
		<path fill="#E2E2E2" d="M703.297,63.063c0,6.24,0,12.48,0,18.72c-1.351,0.235-0.905,1.314-0.933,2.103
			c-0.248,7.259,0.145,14.517-0.41,21.79c-0.569,7.472,0.094,14.994-0.495,22.503c-0.549,6.995,0.085,14.031-0.462,21.065
			c-0.581,7.471,0.091,14.992-0.493,22.503c-0.563,7.234,0.088,14.511-0.469,21.785c-0.573,7.472,0.089,14.993-0.496,22.503
			c-0.557,7.154,0.104,14.351-0.464,21.545c-0.578,7.311,0.081,14.672-0.491,22.023c-0.562,7.234,0.101,14.512-0.472,21.785
			c-0.582,7.392,0.103,14.832-0.487,22.264c-0.573,7.232,0.075,14.511-0.467,21.784c-0.557,7.472,0.063,14.995-0.505,22.502
			c-0.529,6.997,0.087,14.031-0.454,21.066c-0.58,7.551,0.085,15.153-0.499,22.742c-0.551,7.155,0.084,14.352-0.465,21.545
			c-0.563,7.393,0.077,14.834-0.496,22.263c-0.546,7.075-0.002,14.19-0.441,21.306c-0.507,8.195-0.041,16.438-0.539,24.66
			c-0.289,4.783-0.053,9.597-0.074,14.396c-0.017,3.848,0.384,3.479-3.464,3.479c-89.515,0.004-179.029,0.003-268.544,0.004
			c-1.359,0-2.719,0.009-4.079,0.014c-0.637,0.033-1.274,0.096-1.912,0.095c-22.957-0.021-45.915-0.05-68.873-0.077
			c-1.119-0.013-2.238-0.036-3.357-0.036c-87.628-0.002-175.256-0.001-262.885-0.006c-1.117,0-2.233-0.072-3.349-0.111
			c0.212-7.431,0.05-14.867,0.433-22.301c0.39-7.583,0.117-15.186,0.492-22.778c0.371-7.504,0.131-15.025,0.497-22.538
			c0.358-7.344,0.121-14.705,0.485-22.059c0.349-7.023,0.104-14.065,0.456-21.099c0.368-7.344,0.115-14.706,0.477-22.059
			c0.374-7.583,0.143-15.185,0.506-22.778c0.348-7.264,0.116-14.545,0.478-21.818c0.35-7.024,0.096-14.066,0.457-21.1
			c0.377-7.344,0.102-14.706,0.479-22.059c0.381-7.423,0.118-14.865,0.486-22.298c0.372-7.504,0.13-15.025,0.5-22.539
			c0.357-7.264,0.118-14.545,0.48-21.818c0.354-7.104,0.103-14.226,0.459-21.339c0.368-7.344,0.108-14.706,0.478-22.059
			c0.376-7.504,0.131-15.025,0.498-22.538c0.359-7.344,0.122-14.706,0.486-22.059c0.348-7.024,0.101-14.066,0.456-21.099
			c0.371-7.344,0.123-14.706,0.47-22.059c0.279-5.909,0.19-11.835,0.265-17.754c1.197-0.039,2.395-0.112,3.591-0.112
			c202.725-0.005,405.45-0.005,608.175-0.004c1.439,0,2.879,0.01,4.318,0.016C702.861,63.038,703.079,63.05,703.297,63.063z"/>
		<path fill-rule="evenodd" clip-rule="evenodd" fill="#8C6B48" d="M412.25,739.401c-18.152-0.025-39.33-0.018-57.483-0.022
			c-0.958,0-1.916-0.056-2.874-0.086c0.024-1.994,0.371-3.97,0.449-5.948c0.295-7.493-0.08-14.991,0.455-22.496
			c0.516-7.235-0.039-14.508,0.471-21.774c0.524-7.473-0.045-14.988,0.495-22.492c0.503-6.996,0.018-14.027,0.451-21.056
			c0.49-7.954,0.021-15.95,0.533-23.929c0.428-6.684-0.036-13.389,0.433-20.099c0.534-7.632-0.038-15.309,0.506-22.971
			c0.492-6.917,0.06-13.868,0.439-20.815c0.466-8.518,0.076-17.072,0.562-25.607c0.35-6.129-0.17-12.275,0.423-18.422
			c0.383-3.961,0.116-7.985,0.103-11.981c-0.006-1.73-0.048-1.774-1.729-1.795c-2.876-0.034-5.754-0.007-8.631-0.006
			c-0.013-0.157-0.027-0.314-0.041-0.473c22.958,0.027,45.916,0.056,68.873,0.077c0.638,0.001,1.275-0.062,1.912-0.095
			c0.313,0.771,0.204,1.573,0.188,2.371c-0.312,14.468-0.631,28.936-0.932,43.404c-0.274,13.189-0.519,26.381-0.796,39.571
			c-0.308,14.628-0.638,29.256-0.957,43.884c-0.321,14.707-0.641,29.415-0.961,44.122c-0.319,14.628-0.641,29.256-0.96,43.884
			c-0.159,7.274-0.321,14.548-0.474,21.822"/>
		<path fill-rule="evenodd" clip-rule="evenodd" fill="#828282" d="M66.337,486.423c0.133-0.194,0.362-0.378,0.384-0.583"/>
		<path fill-rule="evenodd" clip-rule="evenodd" fill="#828282" d="M67.981,432.942c0.254-7.271,0.126-14.549,0.462-21.814
			c0.341-7.35,0.149-14.708,0.482-22.054c0.308-6.791,0.14-13.59,0.437-20.375c0.34-7.75,0.185-15.508,0.522-23.253
			c0.319-7.351,0.144-14.709,0.479-22.054c0.334-7.35,0.152-14.708,0.481-22.054c0.308-6.871,0.141-13.75,0.442-20.616
			c0.336-7.67,0.179-15.349,0.516-23.014c0.323-7.35,0.146-14.709,0.479-22.054c0.337-7.43,0.153-14.869,0.485-22.294
			c0.304-6.791,0.14-13.59,0.437-20.375c0.339-7.75,0.183-15.508,0.521-23.253c0.321-7.35,0.143-14.709,0.479-22.054
			c0.336-7.35,0.146-14.709,0.481-22.054c0.335-7.35,0.146-14.709,0.481-22.054c0.329-7.19,0.144-14.389,0.473-21.575
			c0.344-7.51,0.229-15.025,0.469-22.535c0.051-1.583,0.073-1.583,1.745-1.649c0.075,1.02,0.996,1.115,1.647,1.496
			c2.312,1.351,4.932,2.132,7.061,3.821c-0.075,5.919,0.014,11.845-0.265,17.754c-0.347,7.354-0.1,14.715-0.47,22.059
			c-0.355,7.033-0.107,14.075-0.456,21.099c-0.364,7.353-0.127,14.714-0.486,22.059c-0.367,7.513-0.122,15.034-0.498,22.538
			c-0.369,7.353-0.109,14.714-0.478,22.059c-0.357,7.113-0.106,14.235-0.459,21.339c-0.362,7.273-0.123,14.555-0.48,21.818
			c-0.369,7.513-0.127,15.035-0.5,22.539c-0.368,7.433-0.105,14.875-0.486,22.298c-0.377,7.353-0.102,14.715-0.479,22.059
			c-0.361,7.033-0.107,14.075-0.457,21.1c-0.362,7.273-0.13,14.554-0.478,21.818c-0.363,7.593-0.132,15.194-0.506,22.778
			c-0.362,7.353-0.109,14.715-0.477,22.059c-0.352,7.033-0.107,14.075-0.456,21.099c-0.365,7.354-0.127,14.715-0.485,22.059
			c-0.366,7.513-0.126,15.034-0.497,22.538c-0.375,7.593-0.102,15.195-0.492,22.778c-0.382,7.434-0.22,14.87-0.433,22.301
			c-0.784,0.284-1.36-0.244-1.972-0.544c-2.253-1.104-4.483-2.259-6.732-3.375c-0.692-0.343-1.332-0.861-2.181-0.773"/>
		<path fill-rule="evenodd" clip-rule="evenodd" fill="#828282" d="M67.182,465.536"/>
		<path fill-rule="evenodd" clip-rule="evenodd" fill="#614A31" d="M418.178,29.463c1.949,1.461,4.241,2.289,6.362,3.434
			c0.897,0.485,1.795,0.971,2.692,1.457c-0.837,0.721-1.843,0.378-2.766,0.379c-19.039,0.024-38.078,0.021-57.118,0.022
			c-0.858-0.426-1.706-0.88-2.579-1.274c-2.542-1.146-4.881-2.728-7.578-3.541c0.008-0.159,0.016-0.318,0.024-0.477
			C377.538,29.463,397.857,29.463,418.178,29.463z"/>
		<path fill-rule="evenodd" clip-rule="evenodd" fill="#FEFEFE" d="M67.14,471.311"/>
		<path fill-rule="evenodd" clip-rule="evenodd" fill="#9D9E9E" d="M86.559,63.126c-2.129-1.688-4.749-2.47-7.061-3.821
			c-0.651-0.381-1.572-0.477-1.647-1.496c0.875-0.043,1.751-0.125,2.627-0.125c91.087-0.006,182.175-0.006,273.263-0.002
			c0.877,0,1.755,0.058,2.633,0.089c2.119-0.028,4.239-0.016,6.356-0.1c1.396-0.056,2.828,0.326,4.185-0.292
			c10.701-0.005,21.401-0.006,32.103-0.017c9.503-0.009,19.006-0.03,28.509-0.045c1.116,0.045,2.231,0.131,3.348,0.131
			c86.135,0.006,172.271,0.011,258.405-0.024c2.144-0.001,4.084,0.326,5.957,1.39c1.874,1.064,3.854,1.942,5.765,2.944
			c0.609,0.32,1.408,0.442,1.643,1.267c-1.439-0.006-2.879-0.016-4.318-0.016c-202.725,0-405.45,0-608.175,0.004
			C88.954,63.014,87.756,63.087,86.559,63.126z"/>
		<path fill-rule="evenodd" clip-rule="evenodd" fill="#503F2B" d="M351.894,739.293c-0.14,0.008-0.275,0.037-0.405,0.09
			c-2.559-1.31-5.066-2.733-7.694-3.885c-1.636-0.717-2.193-1.656-2.13-3.438c0.255-7.111,0.364-14.229,0.515-21.344
			c0.292-13.752,0.572-27.504,0.864-41.256c0.448-21.107,0.895-42.215,1.356-63.321c0.5-22.865,1.018-45.729,1.522-68.595
			c0.265-11.992,0.515-23.985,0.779-35.978c0.012-0.557,0.1-1.11,0.152-1.666c2.877-0.001,5.755-0.028,8.631,0.006
			c1.681,0.021,1.723,0.064,1.729,1.795c0.013,3.996,0.28,8.021-0.103,11.981c-0.593,6.146-0.074,12.293-0.423,18.422
			c-0.487,8.535-0.097,17.09-0.562,25.607c-0.38,6.947,0.053,13.898-0.439,20.815c-0.544,7.662,0.027,15.339-0.506,22.971
			c-0.469,6.71-0.005,13.415-0.433,20.099c-0.511,7.979-0.042,15.975-0.533,23.929c-0.433,7.028,0.053,14.06-0.451,21.056
			c-0.54,7.504,0.03,15.02-0.495,22.492c-0.51,7.267,0.045,14.539-0.471,21.774c-0.534,7.505-0.16,15.003-0.455,22.496
			C352.265,735.323,351.918,737.299,351.894,739.293z"/>
		<path fill-rule="evenodd" clip-rule="evenodd" fill="#513F2B" d="M366.915,57.379c-1.357,0.619-2.789,0.237-4.185,0.292
			c-2.117,0.084-4.237,0.071-6.356,0.1c0.196-8.41,0.388-16.82,0.597-25.23c0.021-0.868,0.145-1.734,0.222-2.601
			c2.697,0.813,5.035,2.395,7.578,3.541c0.873,0.394,1.72,0.848,2.578,1.274C367.128,42.295,367.608,49.848,366.915,57.379z"/>
		<path fill-rule="evenodd" clip-rule="evenodd" fill="#8C6C49" d="M366.915,57.379c0.693-7.531,0.213-15.084,0.434-22.625
			c19.04-0.002,38.079,0.001,57.118-0.022c0.923-0.001,1.929,0.341,2.766-0.379c0.872,0.162,0.834,0.854,0.819,1.482
			c-0.168,7.161-0.348,14.321-0.525,21.482c-9.503,0.016-19.006,0.036-28.509,0.045C388.316,57.374,377.616,57.375,366.915,57.379z"
			/>
	</g>
</g>
<g id="Layer_2">
	<g opacity="0.8">
		<path fill="#7C0F0F" d="M272.392,93.163h66.279v17.424h-22.237v53.139h-21.804v-53.139h-22.238V93.163z"/>
		<path fill="#7C0F0F" d="M348.827,163.725V93.163h36.34c6.738,0,11.89,0.577,15.451,1.732c3.562,1.156,6.434,3.298,8.615,6.426
			c2.182,3.129,3.273,6.939,3.273,11.432c0,3.915-0.835,7.293-2.504,10.132c-1.67,2.84-3.966,5.143-6.887,6.907
			c-1.862,1.125-4.416,2.054-7.658,2.791c2.598,0.868,4.489,1.736,5.676,2.603c0.802,0.578,1.963,1.814,3.487,3.71
			c1.523,1.896,2.542,3.356,3.055,4.384l10.559,20.446h-24.637l-11.655-21.563c-1.477-2.792-2.792-4.604-3.947-5.439
			c-1.572-1.09-3.354-1.637-5.343-1.637h-1.925v28.64H348.827z M370.728,121.753h9.193c0.994,0,2.919-0.321,5.776-0.963
			c1.443-0.288,2.623-1.026,3.536-2.214c0.916-1.187,1.373-2.551,1.373-4.091c0-2.279-0.722-4.027-2.166-5.247
			c-1.444-1.219-4.155-1.829-8.135-1.829h-9.578V121.753z"/>
		<path fill="#7C0F0F" d="M469.448,93.163h21.756v42.04c0,4.169-0.649,8.105-1.949,11.809c-1.299,3.704-3.338,6.943-6.112,9.718
			c-2.776,2.773-5.689,4.721-8.737,5.843c-4.235,1.57-9.321,2.356-15.257,2.356c-3.435,0-7.182-0.241-11.239-0.721
			c-4.061-0.482-7.452-1.435-10.182-2.861c-2.728-1.428-5.221-3.456-7.484-6.085c-2.261-2.63-3.812-5.34-4.645-8.13
			c-1.348-4.488-2.021-8.466-2.021-11.929v-42.04h21.756v43.041c0,3.848,1.067,6.854,3.202,9.019
			c2.134,2.163,5.093,3.245,8.88,3.245c3.755,0,6.698-1.065,8.832-3.198c2.135-2.132,3.201-5.154,3.201-9.065V93.163z"/>
		<path fill="#7C0F0F" d="M505.403,93.163h28.676l11.06,42.935l10.979-42.935h28.658v70.562h-17.858v-53.812l-13.76,53.812h-16.162
			l-13.733-53.812v53.812h-17.858V93.163z"/>
		<path fill="#7C0F0F" d="M598.588,93.163h36.245c7.895,0,13.806,1.877,17.735,5.632c3.931,3.753,5.897,9.097,5.897,16.027
			c0,7.124-2.143,12.691-6.425,16.703c-4.285,4.011-10.823,6.016-19.614,6.016h-11.938v26.185h-21.901V93.163z M620.489,123.245
			h5.343c4.203,0,7.156-0.729,8.856-2.189c1.7-1.46,2.552-3.328,2.552-5.607c0-2.215-0.74-4.091-2.214-5.632
			c-1.478-1.54-4.253-2.31-8.328-2.31h-6.209V123.245z"/>
	</g>
	<rect x="277.608" y="172.654" fill="#7C0F0F" width="374.739" height="4.348"/>
	<polygon fill="#193E75" points="665.312,387.96 589.434,465.151 525.493,465.151 665.312,321.558 	"/>
	<g>
		<path fill="#FFFFFF" d="M562.221,442.42l5.666-5.667l16.573,8.677l-8.728-16.522l5.502-5.501l11.028,24.056l-5.876,5.874
			L562.221,442.42z"/>
		<path fill="#FFFFFF" d="M590.269,431.938c-2.863-2.864-4.296-5.891-4.295-9.082c-0.001-3.19,1.423-6.21,4.271-9.058
			c2.92-2.92,5.952-4.386,9.099-4.398c3.148-0.011,6.133,1.395,8.957,4.219c2.05,2.051,3.387,4.076,4.009,6.078
			c0.621,2.002,0.646,4.021,0.071,6.055c-0.573,2.035-1.835,4.024-3.781,5.972c-1.979,1.978-3.931,3.3-5.857,3.966
			c-1.926,0.666-3.975,0.72-6.145,0.161C594.428,435.293,592.319,433.988,590.269,431.938z M595.713,426.542
			c1.771,1.771,3.372,2.714,4.805,2.83c1.432,0.115,2.713-0.394,3.847-1.526c1.165-1.164,1.687-2.444,1.566-3.841
			c-0.118-1.396-1.16-3.075-3.122-5.037c-1.652-1.651-3.191-2.524-4.619-2.621c-1.428-0.095-2.712,0.427-3.853,1.567
			c-1.093,1.094-1.584,2.357-1.472,3.794C592.976,423.144,593.926,424.755,595.713,426.542z"/>
		<path fill="#FFFFFF" d="M600.715,403.927l16.476-16.477l4.332,4.332l-5.527,5.528l13.21,13.209l-5.422,5.421l-13.209-13.21
			l-5.527,5.528L600.715,403.927z"/>
		<path fill="#FFFFFF" d="M619.632,385.01l14.526-14.526l3.744,3.745l-9.093,9.093l2.788,2.788l8.436-8.436l3.577,3.577
			l-8.436,8.436l3.458,3.459l9.357-9.356l3.973,3.972l-14.789,14.79L619.632,385.01z"/>
	</g>
	<rect x="366.915" y="193" fill="none" width="287" height="120"/>
	<text transform="matrix(1 0 0 1 381.833 215.1958)"><tspan x="0" y="0" fill="#878787" font-family="'Arial-Black'" font-size="31">MAKE AMERICA</tspan><tspan x="20.661" y="37.2" fill="#878787" font-family="'Arial-Black'" font-size="31">GREAT AGAIN!</tspan></text>
</g>
<g id="Layer_3">
	<g>
		<defs>
			<rect id="SVGID_2_" x="103.696" y="106.349" width="358.695" height="353.261"/>
		</defs>
		<clipPath id="SVGID_3_">
			<use xlink:href="#SVGID_2_"  overflow="visible"/>
		</clipPath>
		<g clip-path="url(#SVGID_3_)">
			<path fill="#2A2D4C" d="M352.259,476.437V396.39c0-14.928-12.101-27.028-27.028-27.028H114.42
				c-14.927,0-27.028,12.101-27.028,27.028v80.047H352.259z"/>
			<path fill="#F5F5F7" d="M275.352,463.015c0,14.928-6.784,27.028-15.152,27.028h-47.563c-8.368,0-15.152-12.101-15.152-27.028
				v-59.747c0-14.929,6.784-27.029,15.152-27.029H260.2c8.368,0,15.152,12.1,15.152,27.029V463.015z"/>
			<path fill="#EBEBED" d="M236.418,389.228c0,7.174-5.815,12.988-12.989,12.988h-17.904c-7.173,0-12.989-5.814-12.989-12.988l0,0
				c0-7.174,5.815-12.989,12.989-12.989h17.904C230.603,376.239,236.418,382.053,236.418,389.228L236.418,389.228z"/>
			<path fill="#EBEBED" d="M284.13,389.228c0,7.174-5.815,12.988-12.989,12.988H258.34c-7.174,0-12.989-5.814-12.989-12.988l0,0
				c0-7.174,5.815-12.989,12.989-12.989h12.801C278.314,376.239,284.13,382.053,284.13,389.228L284.13,389.228z"/>
			<path fill="#C64242" d="M249.407,389.228c0,7.174-5.815,12.988-12.989,12.988l0,0c-7.173,0-12.989-5.814-12.989-12.988l0,0
				c0-7.174,5.815-12.989,12.989-12.989l0,0C243.591,376.239,249.407,382.053,249.407,389.228L249.407,389.228z"/>
			<path fill="#C64242" d="M249.407,485.775c0,2.357-1.911,4.268-4.268,4.268h-17.441c-2.357,0-4.268-1.91-4.268-4.268v-79.292
				c0-2.357,1.911-4.268,4.268-4.268h17.441c2.357,0,4.268,1.91,4.268,4.268V485.775z"/>
			<linearGradient id="SVGID_4_" gradientUnits="userSpaceOnUse" x1="233.8413" y1="386.5811" x2="233.8413" y2="220.8228">
				<stop  offset="0" style="stop-color:#DBAF7F"/>
				<stop  offset="0.3394" style="stop-color:#DBAC7F"/>
				<stop  offset="0.5896" style="stop-color:#DBA37F"/>
				<stop  offset="0.7609" style="stop-color:#DB977F"/>
			</linearGradient>
			<path fill="url(#SVGID_4_)" d="M326.177,321.442c0,35.975-38.087,65.139-85.069,65.139h-14.533
				c-46.982,0-85.069-29.164-85.069-65.139V285.96c0-35.975,38.087-65.138,85.069-65.138h14.533
				c46.982,0,85.069,29.164,85.069,65.138V321.442z"/>
			<path fill="#E8E07E" d="M131.386,317.308c0,0-14.986-105.146,29.97-122.463s109.509-8.659,156.771,25.977
				c47.261,34.637,57.636,22.266,36.887,45.769c-20.749,23.503-173.692,5.946-197.116-14.844
				C157.898,251.747,176.342,340.812,131.386,317.308z"/>
			<rect x="148.758" y="344.077" fill="#CC6E5E" width="170.167" height="3.711"/>
			<circle fill="#395360" cx="206.263" cy="312.48" r="8.778"/>
			<circle fill="#395360" cx="284.13" cy="312.48" r="8.778"/>
			<path fill="#E8E07E" d="M302.689,295.34c0.687,3.819-1.853,7.472-5.672,8.158l-23.289,4.185
				c-3.819,0.686-7.472-1.854-8.158-5.673l0,0c-0.687-3.82,1.853-7.472,5.672-8.158l23.29-4.185
				C298.351,288.981,302.003,291.521,302.689,295.34L302.689,295.34z"/>
			<path fill="#CC8569" d="M256.86,322.186c0,7.309-5.153,13.232-11.509,13.232l0,0c-6.357,0-11.51-5.924-11.51-13.232v-14.128
				c0-7.308,5.153-13.232,11.51-13.232l0,0c6.356,0,11.509,5.925,11.509,13.232V322.186z"/>
			<path fill="#D8967C" d="M135.635,303.875c0-7.857,6.369-14.226,14.225-14.226l0,0c7.856,0,14.226,6.369,14.226,14.226v8.659
				c0,7.857-6.369,14.226-14.226,14.226l0,0c-7.856,0-14.225-6.369-14.225-14.226V303.875z"/>
			<path fill="#E8E07E" d="M224.628,303.863c-1.366,3.632-5.418,5.469-9.05,4.102l-25.054-9.427
				c-3.632-1.366-5.468-5.419-4.102-9.051l0,0c1.367-3.632,5.418-5.468,9.05-4.102l25.054,9.427
				C224.159,296.179,225.995,300.231,224.628,303.863L224.628,303.863z"/>
			<path fill="#DBAF7F" d="M385.75,379.287c-0.642,1.97-2.757,3.046-4.727,2.405l-5.271-1.716c-1.969-0.641-3.046-2.757-2.404-4.727
				l18.17-55.805c0.642-1.97,2.758-3.046,4.727-2.405l5.271,1.716c1.97,0.641,3.046,2.757,2.404,4.727L385.75,379.287z"/>
			<path fill="#DBAF7F" d="M413.549,378.172c-0.642,1.969-2.759,3.045-4.728,2.405l-23.875-7.774
				c-1.969-0.641-3.046-2.757-2.404-4.727l8.11-24.909c0.642-1.97,2.758-3.046,4.728-2.405l23.875,7.774
				c1.969,0.641,3.046,2.757,2.405,4.727L413.549,378.172z"/>
			<path fill="#2A2D4C" d="M388.885,489.025c-0.642,1.971-2.758,3.047-4.727,2.405l-52.814-17.197
				c-1.969-0.641-3.046-2.756-2.405-4.727l34.36-105.525c0.641-1.969,2.757-3.046,4.727-2.405l52.814,17.197
				c1.969,0.642,3.046,2.757,2.404,4.727L388.885,489.025z"/>
		</g>
	</g>
</g>
</svg>
