<?xml version="1.0" encoding="utf-8"?>
<!-- Generator: Adobe Illustrator 16.0.0, SVG Export Plug-In . SVG Version: 6.00 Build 0)  -->
<!DOCTYPE svg PUBLIC "-//W3C//DTD SVG 1.1//EN" "http://www.w3.org/Graphics/SVG/1.1/DTD/svg11.dtd">
<svg version="1.1" xmlns="http://www.w3.org/2000/svg" xmlns:xlink="http://www.w3.org/1999/xlink" x="0px" y="0px" width="768px"
	 height="768px" viewBox="0 0 768 768" enable-background="new 0 0 768 768" xml:space="preserve">
<g id="Layer_1">
	<rect x="-15.456" y="-12.739" fill="#2C479B" stroke="#000000" stroke-miterlimit="10" width="798.912" height="793.479"/>
</g>
<g id="Layer_3">
	<radialGradient id="SVGID_1_" cx="380.8955" cy="401.2031" r="532.4561" gradientUnits="userSpaceOnUse">
		<stop  offset="0" style="stop-color:#FFFFFF"/>
		<stop  offset="0.8446" style="stop-color:#FFFFFF;stop-opacity:0"/>
	</radialGradient>
	<path opacity="0.3" fill="url(#SVGID_1_)" d="M909.404,406.402l2.15,0.03l-43.312-195.31L403.699,386.442
		c-1.708-3.314-3.931-6.317-6.568-8.902l384.791-326.88L620.711-67.802l-0.838,1.565l-1.872-1.369l-232.556,437.6
		c-3.058-1.19-6.326-1.957-9.735-2.232l42.126-297.917l29.37-200.921l-0.972,0.085l0.291-2.053l-199.201,18.458l17.146,71.6
		l96.773,412.634c-1.225,0.438-2.419,0.94-3.577,1.507L135.743-82.79l-154.6,126.973L347.314,378.91
		c-1.835,2.006-3.434,4.229-4.76,6.625l-453.559-206.827l-38.759,196.264l488.044,25.562c-0.029,0.582-0.044,1.166-0.044,1.754
		c0,2.58,0.291,5.092,0.826,7.512l-486.392,116.201l90.13,178.599l402.514-281.333c2.391,3.137,5.305,5.852,8.612,8.019
		l-79.323,114.173L64.574,840.968l3.686,1.494l-2.262,3.256l186.201,73.148l60.391-255.974l55.937-226.238
		c1.43,0.181,2.882,0.283,4.361,0.283c3.856,0,7.561-0.639,11.025-1.803l63.991,500.315l187.224-70.487L395.27,428.729
		c1.827-1.547,3.49-3.282,4.963-5.173L771.2,760.729l96.761-175.097L406.487,410.771c0.684-2.715,1.05-5.556,1.05-8.482
		c0-0.443-0.017-0.882-0.033-1.32l502.276,7.126L909.404,406.402z"/>
</g>
<g id="Layer_4">
	<g>
		
			<linearGradient id="SVGID_2_" gradientUnits="userSpaceOnUse" x1="78.3184" y1="39.7344" x2="88.3506" y2="39.7344" gradientTransform="matrix(0.4929 -0.5855 0.765 0.644 22.8408 212.9668)">
			<stop  offset="0" style="stop-color:#A0AAAC"/>
			<stop  offset="0.0198" style="stop-color:#B8C0C1"/>
			<stop  offset="0.0499" style="stop-color:#D7DBDC"/>
			<stop  offset="0.0794" style="stop-color:#EDEFEF"/>
			<stop  offset="0.1075" style="stop-color:#FAFBFB"/>
			<stop  offset="0.133" style="stop-color:#FFFFFF"/>
			<stop  offset="0.5342" style="stop-color:#525252"/>
			<stop  offset="0.5738" style="stop-color:#4D4D4D"/>
			<stop  offset="0.6212" style="stop-color:#3E3E3E"/>
			<stop  offset="0.6728" style="stop-color:#262626"/>
			<stop  offset="0.7269" style="stop-color:#050505"/>
			<stop  offset="0.7334" style="stop-color:#000000"/>
			<stop  offset="0.7508" style="stop-color:#101010"/>
			<stop  offset="0.7896" style="stop-color:#2D2D2D"/>
			<stop  offset="0.8282" style="stop-color:#414141"/>
			<stop  offset="0.8661" style="stop-color:#4E4E4E"/>
			<stop  offset="0.9026" style="stop-color:#525252"/>
		</linearGradient>
		<path fill="url(#SVGID_2_)" d="M156.703,237.27c0.905,0.761,0.959,2.185,0.121,3.179l-1.912,2.271
			c-0.838,0.995-2.25,1.184-3.154,0.423L31.925,142.26c-0.904-0.761-0.957-2.185-0.12-3.18l1.912-2.271
			c0.838-0.995,2.25-1.184,3.153-0.424L156.703,237.27z"/>
		
			<linearGradient id="SVGID_3_" gradientUnits="userSpaceOnUse" x1="178.916" y1="99.4253" x2="188.9473" y2="99.4253" gradientTransform="matrix(0.9255 -1.0994 0.765 0.644 -106.6494 366.7793)">
			<stop  offset="0" style="stop-color:#A0AAAC"/>
			<stop  offset="0.0198" style="stop-color:#B8C0C1"/>
			<stop  offset="0.0499" style="stop-color:#D7DBDC"/>
			<stop  offset="0.0794" style="stop-color:#EDEFEF"/>
			<stop  offset="0.1075" style="stop-color:#FAFBFB"/>
			<stop  offset="0.133" style="stop-color:#FFFFFF"/>
			<stop  offset="0.5342" style="stop-color:#525252"/>
			<stop  offset="0.5738" style="stop-color:#4D4D4D"/>
			<stop  offset="0.6212" style="stop-color:#3E3E3E"/>
			<stop  offset="0.6728" style="stop-color:#262626"/>
			<stop  offset="0.7269" style="stop-color:#050505"/>
			<stop  offset="0.7334" style="stop-color:#000000"/>
			<stop  offset="0.7508" style="stop-color:#101010"/>
			<stop  offset="0.7896" style="stop-color:#2D2D2D"/>
			<stop  offset="0.8282" style="stop-color:#414141"/>
			<stop  offset="0.8661" style="stop-color:#4E4E4E"/>
			<stop  offset="0.9026" style="stop-color:#525252"/>
		</linearGradient>
		<path fill="url(#SVGID_3_)" d="M204.206,273.526c0.905,0.761,0.363,2.893-1.21,4.76l-3.589,4.265
			c-1.574,1.868-3.581,2.765-4.485,2.004L75.09,183.672c-0.905-0.762-0.361-2.893,1.21-4.762l3.59-4.263
			c1.573-1.869,3.58-2.766,4.484-2.004L204.206,273.526z"/>
		
			<radialGradient id="SVGID_4_" cx="369.8081" cy="-145.7397" r="29.0985" gradientTransform="matrix(-0.2476 -0.9689 0.9689 -0.2476 251.6978 463.085)" gradientUnits="userSpaceOnUse">
			<stop  offset="0.133" style="stop-color:#BBC2C2"/>
			<stop  offset="0.5342" style="stop-color:#525252"/>
			<stop  offset="0.5738" style="stop-color:#4D4D4D"/>
			<stop  offset="0.6212" style="stop-color:#3E3E3E"/>
			<stop  offset="0.6728" style="stop-color:#262626"/>
			<stop  offset="0.7269" style="stop-color:#050505"/>
			<stop  offset="0.7334" style="stop-color:#000000"/>
			<stop  offset="0.7508" style="stop-color:#101010"/>
			<stop  offset="0.7896" style="stop-color:#2D2D2D"/>
			<stop  offset="0.8282" style="stop-color:#414141"/>
			<stop  offset="0.8661" style="stop-color:#4E4E4E"/>
			<stop  offset="0.9026" style="stop-color:#525252"/>
		</radialGradient>
		<circle fill="url(#SVGID_4_)" cx="28.627" cy="134.197" r="11.049"/>
		
			<linearGradient id="SVGID_5_" gradientUnits="userSpaceOnUse" x1="330.082" y1="75.4199" x2="340.1143" y2="75.4199" gradientTransform="matrix(0.4453 0.6225 -0.8133 0.5818 248.8611 -139.7441)">
			<stop  offset="0" style="stop-color:#A0AAAC"/>
			<stop  offset="0.0198" style="stop-color:#B8C0C1"/>
			<stop  offset="0.0499" style="stop-color:#D7DBDC"/>
			<stop  offset="0.0794" style="stop-color:#EDEFEF"/>
			<stop  offset="0.1075" style="stop-color:#FAFBFB"/>
			<stop  offset="0.133" style="stop-color:#FFFFFF"/>
			<stop  offset="0.5342" style="stop-color:#525252"/>
			<stop  offset="0.5738" style="stop-color:#4D4D4D"/>
			<stop  offset="0.6212" style="stop-color:#3E3E3E"/>
			<stop  offset="0.6728" style="stop-color:#262626"/>
			<stop  offset="0.7269" style="stop-color:#050505"/>
			<stop  offset="0.7334" style="stop-color:#000000"/>
			<stop  offset="0.7508" style="stop-color:#101010"/>
			<stop  offset="0.7896" style="stop-color:#2D2D2D"/>
			<stop  offset="0.8282" style="stop-color:#414141"/>
			<stop  offset="0.8661" style="stop-color:#4E4E4E"/>
			<stop  offset="0.9026" style="stop-color:#525252"/>
		</linearGradient>
		<path fill="url(#SVGID_5_)" d="M275.26,161.421c-0.961,0.688-2.354,0.388-3.111-0.67l-1.727-2.415
			c-0.756-1.058-0.59-2.473,0.37-3.16l127.403-91.133c0.963-0.688,2.355-0.387,3.112,0.669l1.728,2.416
			c0.755,1.058,0.589,2.472-0.371,3.16L275.26,161.421z"/>
		
			<linearGradient id="SVGID_6_" gradientUnits="userSpaceOnUse" x1="313.7803" y1="201.4355" x2="323.8135" y2="201.4355" gradientTransform="matrix(0.8361 1.1689 -0.8133 0.5818 131.8862 -303.2754)">
			<stop  offset="0" style="stop-color:#A0AAAC"/>
			<stop  offset="0.0198" style="stop-color:#B8C0C1"/>
			<stop  offset="0.0499" style="stop-color:#D7DBDC"/>
			<stop  offset="0.0794" style="stop-color:#EDEFEF"/>
			<stop  offset="0.1075" style="stop-color:#FAFBFB"/>
			<stop  offset="0.133" style="stop-color:#FFFFFF"/>
			<stop  offset="0.5342" style="stop-color:#525252"/>
			<stop  offset="0.5738" style="stop-color:#4D4D4D"/>
			<stop  offset="0.6212" style="stop-color:#3E3E3E"/>
			<stop  offset="0.6728" style="stop-color:#262626"/>
			<stop  offset="0.7269" style="stop-color:#050505"/>
			<stop  offset="0.7334" style="stop-color:#000000"/>
			<stop  offset="0.7508" style="stop-color:#101010"/>
			<stop  offset="0.7896" style="stop-color:#2D2D2D"/>
			<stop  offset="0.8282" style="stop-color:#414141"/>
			<stop  offset="0.8661" style="stop-color:#4E4E4E"/>
			<stop  offset="0.9026" style="stop-color:#525252"/>
		</linearGradient>
		<path fill="url(#SVGID_6_)" d="M175.085,237.979c-0.96,0.688-2.892-0.364-4.312-2.351l-3.243-4.534
			c-1.421-1.987-1.793-4.154-0.832-4.841l127.403-91.134c0.962-0.688,2.893,0.366,4.314,2.352l3.242,4.535
			c1.421,1.985,1.793,4.153,0.832,4.84L175.085,237.979z"/>
		
			<linearGradient id="SVGID_7_" gradientUnits="userSpaceOnUse" x1="162.6953" y1="149.1436" x2="259.8914" y2="246.3397" gradientTransform="matrix(0.9689 -0.2476 0.2476 0.9689 -65.8877 103.2612)">
			<stop  offset="0" style="stop-color:#79797C"/>
			<stop  offset="0.1823" style="stop-color:#767679"/>
			<stop  offset="0.3311" style="stop-color:#6C6C6F"/>
			<stop  offset="0.468" style="stop-color:#5B5B5E"/>
			<stop  offset="0.5978" style="stop-color:#444446"/>
			<stop  offset="0.7214" style="stop-color:#262627"/>
			<stop  offset="0.841" style="stop-color:#010101"/>
			<stop  offset="0.8448" style="stop-color:#000000"/>
		</linearGradient>
		<path fill="url(#SVGID_7_)" d="M268.919,221.795c6.743,26.387-24.114,57.062-68.923,68.512
			c-44.808,11.451-86.6-0.657-93.343-27.043c-6.743-26.388,24.114-57.062,68.922-68.513
			C220.385,183.299,262.175,195.407,268.919,221.795z"/>
		
			<linearGradient id="SVGID_8_" gradientUnits="userSpaceOnUse" x1="218.6362" y1="89.7554" x2="249.1109" y2="120.23" gradientTransform="matrix(-0.8979 0.4403 -0.4364 -0.8901 410.6855 203.0273)">
			<stop  offset="0" style="stop-color:#FFFFFF"/>
			<stop  offset="1" style="stop-color:#FFFFFF;stop-opacity:0.4"/>
		</linearGradient>
		<path opacity="0.8" fill="url(#SVGID_8_)" d="M128.244,225.598c-1.683-3.431,8.876-12.058,23.583-19.269
			c14.707-7.211,27.993-10.277,29.674-6.847c1.683,3.431-8.875,12.058-23.582,19.268
			C143.213,225.963,129.925,229.028,128.244,225.598z"/>
		
			<radialGradient id="SVGID_9_" cx="149.0703" cy="639.1699" r="27.9204" gradientTransform="matrix(0.9689 -0.2476 0.2476 0.9689 -65.8877 103.2612)" gradientUnits="userSpaceOnUse">
			<stop  offset="0.4615" style="stop-color:#292B32"/>
			<stop  offset="0.6025" style="stop-color:#24262C"/>
			<stop  offset="0.7829" style="stop-color:#17191D"/>
			<stop  offset="0.9841" style="stop-color:#020202"/>
			<stop  offset="1" style="stop-color:#000000"/>
		</radialGradient>
		<path fill="url(#SVGID_9_)" d="M267.797,691.827c1.866,7.301-2.541,14.729-9.84,16.596l-28.78,7.354
			c-7.3,1.866-14.73-2.539-16.596-9.839l-6.779-26.527c-1.866-7.3,2.539-14.729,9.839-16.596l28.781-7.354
			c7.3-1.866,14.729,2.54,16.596,9.84L267.797,691.827z"/>
		
			<radialGradient id="SVGID_10_" cx="601.5029" cy="639.1699" r="27.9201" gradientTransform="matrix(0.9689 -0.2476 0.2476 0.9689 -65.8877 103.2612)" gradientUnits="userSpaceOnUse">
			<stop  offset="0.4615" style="stop-color:#292B32"/>
			<stop  offset="0.6025" style="stop-color:#24262C"/>
			<stop  offset="0.7829" style="stop-color:#17191D"/>
			<stop  offset="0.9841" style="stop-color:#020202"/>
			<stop  offset="1" style="stop-color:#000000"/>
		</radialGradient>
		<path fill="url(#SVGID_10_)" d="M706.143,579.804c1.866,7.302-2.541,14.731-9.841,16.596l-28.779,7.356
			c-7.3,1.864-14.73-2.539-16.597-9.842l-6.779-26.524c-1.865-7.3,2.541-14.731,9.841-16.596l28.78-7.356
			c7.299-1.864,14.729,2.541,16.596,9.841L706.143,579.804z"/>
		
			<radialGradient id="SVGID_11_" cx="452.875" cy="31.7505" r="29.0999" gradientTransform="matrix(1 -8.359551e-05 8.359551e-05 1 -50.1216 20.082)" gradientUnits="userSpaceOnUse">
			<stop  offset="0.133" style="stop-color:#BBC2C2"/>
			<stop  offset="0.5342" style="stop-color:#525252"/>
			<stop  offset="0.5738" style="stop-color:#4D4D4D"/>
			<stop  offset="0.6212" style="stop-color:#3E3E3E"/>
			<stop  offset="0.6728" style="stop-color:#262626"/>
			<stop  offset="0.7269" style="stop-color:#050505"/>
			<stop  offset="0.7334" style="stop-color:#000000"/>
			<stop  offset="0.7508" style="stop-color:#101010"/>
			<stop  offset="0.7896" style="stop-color:#2D2D2D"/>
			<stop  offset="0.8282" style="stop-color:#414141"/>
			<stop  offset="0.8661" style="stop-color:#4E4E4E"/>
			<stop  offset="0.9026" style="stop-color:#525252"/>
		</radialGradient>
		<circle fill="url(#SVGID_11_)" cx="406.827" cy="62.843" r="11.049"/>
		
			<linearGradient id="SVGID_12_" gradientUnits="userSpaceOnUse" x1="375.2856" y1="173.3628" x2="375.2856" y2="630.4497" gradientTransform="matrix(0.9689 -0.2476 0.2476 0.9689 -65.8877 103.2612)">
			<stop  offset="0" style="stop-color:#B27443"/>
			<stop  offset="1" style="stop-color:#7F4300"/>
		</linearGradient>
		<path fill="url(#SVGID_12_)" d="M748.989,498.509c6.255,24.477-8.517,49.391-32.993,55.646L191.627,688.162
			c-24.477,6.255-49.389-8.517-55.644-32.993L45.459,300.954c-6.255-24.477,8.516-49.39,32.993-55.645l524.369-134.007
			c24.477-6.255,49.391,8.516,55.646,32.993L748.989,498.509z"/>
		<path fill="#232221" d="M732.632,490.766c5.927,23.191-8.237,46.839-31.637,52.818L199.718,671.689
			c-23.399,5.979-47.172-7.971-53.098-31.162L60.854,304.927c-5.927-23.191,8.237-46.838,31.636-52.818l501.277-128.106
			c23.398-5.979,47.171,7.973,53.098,31.164L732.632,490.766z"/>
		
			<linearGradient id="SVGID_13_" gradientUnits="userSpaceOnUse" x1="317.1333" y1="580.6475" x2="317.1333" y2="206.8843" gradientTransform="matrix(0.9689 -0.2476 0.2476 0.9689 -65.8877 103.2612)">
			<stop  offset="0" style="stop-color:#D5DADC"/>
			<stop  offset="1" style="stop-color:#000000"/>
		</linearGradient>
		<path fill="url(#SVGID_13_)" d="M585.688,463.75c6.279,34.063-16.38,70.905-49.387,81.142
			c-100.17,30.645-201.549,56.553-304.138,77.726c-33.872,6.856-71.429-14.599-82.261-47.497
			c-24.087-74.235-43.372-149.696-57.854-226.385c-6.28-34.063,16.378-70.906,49.386-81.142
			c100.169-30.642,201.549-56.551,304.138-77.725c33.872-6.856,71.428,14.598,82.262,47.497
			C551.918,311.601,571.203,387.062,585.688,463.75z"/>
		<g opacity="0.5">
			<defs>
				<path id="SVGID_14_" opacity="0.5" d="M748.989,498.509c6.255,24.477-8.517,49.391-32.993,55.646L191.627,688.162
					c-24.477,6.255-49.389-8.517-55.644-32.993L45.459,300.954c-6.255-24.477,8.516-49.39,32.993-55.645l524.369-134.007
					c24.477-6.255,49.391,8.516,55.646,32.993L748.989,498.509z"/>
			</defs>
			<clipPath id="SVGID_15_">
				<use xlink:href="#SVGID_14_"  overflow="visible"/>
			</clipPath>
			
				<linearGradient id="SVGID_16_" gradientUnits="userSpaceOnUse" x1="352.4067" y1="31.0532" x2="352.4067" y2="490.1235" gradientTransform="matrix(0.9873 -0.1988 0.4125 1.4047 -81.2236 62.7266)">
				<stop  offset="0" style="stop-color:#EDD090"/>
				<stop  offset="0.0622" style="stop-color:#EBCA82;stop-opacity:0.9378"/>
				<stop  offset="0.2816" style="stop-color:#E7B853;stop-opacity:0.7184"/>
				<stop  offset="0.4915" style="stop-color:#E3AA2F;stop-opacity:0.5085"/>
				<stop  offset="0.6868" style="stop-color:#E0A015;stop-opacity:0.3132"/>
				<stop  offset="0.862" style="stop-color:#DF9A05;stop-opacity:0.138"/>
				<stop  offset="1" style="stop-color:#DE9800;stop-opacity:0"/>
			</linearGradient>
			<polygon opacity="0.3" clip-path="url(#SVGID_15_)" fill="url(#SVGID_16_)" points="809.469,493.581 137.194,747.909 
				-61.076,223.813 611.2,-30.515 			"/>
		</g>
		<path fill="#A9A484" d="M571.874,460.531c5.929,32.157-15.462,66.938-46.623,76.603c-94.564,28.927-190.269,53.385-287.117,73.374
			c-31.977,6.473-67.432-13.78-77.658-44.841c-22.739-70.077-40.944-141.317-54.617-213.713
			c-5.929-32.157,15.462-66.938,46.623-76.601c94.563-28.928,190.27-53.386,287.117-73.375
			c31.976-6.472,67.431,13.781,77.659,44.839C539.995,316.897,558.2,388.136,571.874,460.531z"/>
		
			<linearGradient id="SVGID_17_" gradientUnits="userSpaceOnUse" x1="520.2686" y1="551.7822" x2="696.692" y2="246.2078" gradientTransform="matrix(0.9689 -0.2476 0.2476 0.9689 -65.8877 103.2612)">
			<stop  offset="0.0459" style="stop-color:#C4CCD0;stop-opacity:0.9688"/>
			<stop  offset="0.2222" style="stop-color:#C2CACE;stop-opacity:0.5927"/>
			<stop  offset="0.2857" style="stop-color:#BCC3C7;stop-opacity:0.4572"/>
			<stop  offset="0.331" style="stop-color:#B1B8BC;stop-opacity:0.3606"/>
			<stop  offset="0.3676" style="stop-color:#A1A7AB;stop-opacity:0.2825"/>
			<stop  offset="0.3989" style="stop-color:#8C9295;stop-opacity:0.2156"/>
			<stop  offset="0.4267" style="stop-color:#727779;stop-opacity:0.1564"/>
			<stop  offset="0.4518" style="stop-color:#545759;stop-opacity:0.1028"/>
			<stop  offset="0.4749" style="stop-color:#303233;stop-opacity:0.0535"/>
			<stop  offset="0.4955" style="stop-color:#0A0A0A;stop-opacity:0.0097"/>
			<stop  offset="0.5" style="stop-color:#000000;stop-opacity:0"/>
			<stop  offset="0.5247" style="stop-color:#202121;stop-opacity:0.0494"/>
			<stop  offset="0.5618" style="stop-color:#4A4B4B;stop-opacity:0.1235"/>
			<stop  offset="0.602" style="stop-color:#6F7070;stop-opacity:0.204"/>
			<stop  offset="0.6449" style="stop-color:#8E9090;stop-opacity:0.2898"/>
			<stop  offset="0.6912" style="stop-color:#A7AAAA;stop-opacity:0.3825"/>
			<stop  offset="0.7424" style="stop-color:#BBBDBD;stop-opacity:0.4847"/>
			<stop  offset="0.8008" style="stop-color:#C9CBCB;stop-opacity:0.6017"/>
			<stop  offset="0.873" style="stop-color:#D1D4D4;stop-opacity:0.7461"/>
			<stop  offset="1" style="stop-color:#D3D6D6"/>
		</linearGradient>
		<path fill="url(#SVGID_17_)" d="M715.177,478.941c3.182,12.453-4.333,25.127-16.786,28.31l-61.954,15.833
			c-12.454,3.183-25.128-4.332-28.311-16.786l-78.43-306.895c-3.183-12.452,4.332-25.128,16.786-28.311l61.953-15.833
			c12.453-3.182,25.129,4.333,28.311,16.786L715.177,478.941z"/>
		<path fill="#7A7A79" d="M702.982,473.504c3.253,12.729-4.428,25.685-17.157,28.937l-41.44,10.591
			c-12.729,3.252-25.684-4.428-28.937-17.157l-74.223-290.438c-3.253-12.729,4.428-25.684,17.156-28.936l41.44-10.59
			c12.729-3.253,25.683,4.428,28.936,17.156L702.982,473.504z"/>
		<path fill="#8E8E8E" d="M701.333,472.053c3.208,12.555-4.367,25.332-16.922,28.54l-40.872,10.445
			c-12.554,3.208-25.331-4.368-28.54-16.922L541.794,207.66c-3.209-12.554,4.367-25.331,16.921-28.539l40.873-10.445
			c12.554-3.208,25.331,4.367,28.539,16.921L701.333,472.053z"/>
		<g>
			<defs>
				<path id="SVGID_18_" d="M571.874,460.531c5.929,32.157-15.462,66.938-46.623,76.603
					c-94.564,28.927-190.269,53.385-287.117,73.374c-31.977,6.473-67.432-13.78-77.658-44.841
					c-22.739-70.077-40.944-141.317-54.617-213.713c-5.929-32.157,15.462-66.938,46.623-76.601
					c94.563-28.928,190.27-53.386,287.117-73.375c31.976-6.472,67.431,13.781,77.659,44.839
					C539.995,316.897,558.2,388.136,571.874,460.531z"/>
			</defs>
			<clipPath id="SVGID_19_">
				<use xlink:href="#SVGID_18_"  overflow="visible"/>
			</clipPath>
			<g id="lQow35_2_" clip-path="url(#SVGID_19_)">
				<g>
					<path fill-rule="evenodd" clip-rule="evenodd" fill="#D11501" d="M368.539,213.311c22.67-6.029,45.014-13.332,68.199-17.362
						c5.907-1.027,11.716-2.546,17.772-2.774c0.435,1.705,0.884,3.405,1.303,5.113c6.468,26.389,11.561,53.053,17.455,79.552
						c4.996,22.454,11.148,44.669,16.729,67.004c7.863,31.469,13.811,63.352,21.38,94.869c8.847,36.83,18.429,73.487,27.693,110.221
						c-0.229,0.17-0.462,0.337-0.691,0.51c-5.938,1.528-11.826,3.29-17.832,4.498c-3.677,0.739-7.569,0.506-10.76,2.994
						c-0.556-0.486-1.091-1.02-1.825-0.846c-10.923,2.562-22.192,3.68-32.79,7.606c-1.038,0.285-2.074,0.569-3.108,0.852
						c-1.118-0.197-2.112,0.096-3.025,0.729c-0.522,0.126-1.045,0.251-1.567,0.377c-0.232,0.068-0.47,0.136-0.705,0.202
						c-0.504,0.14-1.01,0.278-1.513,0.418c-1.852-0.09-3.637,0.084-5.161,1.294c-0.327,0.112-0.651,0.229-0.978,0.345
						c-0.266-0.05-0.505,0.009-0.717,0.178c-0.247,0.112-0.492,0.226-0.737,0.334c-0.179-0.029-0.279-0.152-0.301-0.363
						c-1.037-4.546-2.07-9.091-3.106-13.637c-0.982-7.743-3.269-15.175-5.51-22.616c0.104-1.424-0.512-2.537-1.32-3.565
						c-0.159-0.621-0.314-1.241-0.472-1.86c-1.053-4.031-2.108-8.061-3.159-12.09c-1.043-3.657-1.233-7.601-3.374-10.889
						c-0.185-0.719-0.362-1.438-0.544-2.156c-0.122-0.537-0.242-1.076-0.362-1.613c-0.059-0.316-0.12-0.632-0.177-0.947
						c0.09-2.963-1.005-5.68-1.888-8.44c-0.787-3.133-1.576-6.262-2.363-9.393c-2.673-10.255-5.346-20.51-8.016-30.765
						c-0.226-0.96-0.449-1.919-0.675-2.876c-0.61-2.458-1.223-4.913-1.836-7.371c-0.673-2.777-1.342-5.553-2.013-8.33
						c-0.166-0.345-0.331-0.689-0.497-1.035c-0.06-0.303-0.199-0.549-0.417-0.735c-0.049-0.292-0.145-0.568-0.285-0.825
						l-0.062-0.021c-0.376-5.498-0.737-10.996-3.347-16.082c-0.271-1.146-0.542-2.291-0.815-3.435
						c0.021-0.397,0.039-0.795,0.059-1.191c-0.144-0.645-0.285-1.292-0.428-1.938c-0.323-1.237-0.648-2.475-0.974-3.712
						c-0.229-0.926-0.458-1.854-0.688-2.78c-0.412-1.592-0.825-3.18-1.238-4.771c-0.537-3.179-1.276-6.305-2.43-9.32
						c0.057-0.284,0-0.545-0.175-0.78c-0.346-1.292-0.693-2.582-1.038-3.874c0.038-0.273-0.039-0.502-0.229-0.689
						c-0.355-3.636-1.574-6.994-3.072-10.262c-0.075-0.315-0.151-0.63-0.229-0.945c-0.563-2.801-0.362-5.743-1.727-8.399
						c0.092-1.447-0.206-2.736-1.321-3.689c-0.144-0.617-0.291-1.233-0.438-1.85c0.47-1.994-0.314-3.787-1.064-5.585
						c-0.352-2.899-1.047-5.716-2.039-8.465c-0.291-2.594-0.887-5.117-1.823-7.56c-0.181-0.622-0.366-1.242-0.546-1.864
						c0.053-0.307-0.007-0.591-0.182-0.854c-0.468-1.897-0.933-3.795-1.399-5.693c-0.469-1.82-0.934-3.64-1.403-5.458
						c-0.478-1.901-0.955-3.804-1.432-5.706c-0.765-3.081-1.529-6.16-2.294-9.24c-0.39-1.572-0.781-3.145-1.171-4.719
						c-1.266-9.258-3.827-18.195-6.775-27.036c-0.133-0.593-0.27-1.185-0.405-1.777c-0.503-5.555-1.835-10.894-4.148-15.976
						c-0.144-0.573-0.288-1.146-0.433-1.719c-1.14-9.306-4.061-18.145-7.02-26.972c-0.244-0.941-0.487-1.882-0.732-2.823
						c-0.578-2.484-1.159-4.967-1.738-7.452C368.572,215.956,368.554,214.634,368.539,213.311z"/>
					<path fill-rule="evenodd" clip-rule="evenodd" fill="#A1CA42" d="M199.71,256.787c18.338-5.149,36.663-10.354,55.021-15.426
						c9.563-2.643,19.188-5.051,28.784-7.565c0.27-0.001,0.539-0.002,0.81-0.004l0.001,0.071c0.096,0.387,0.191,0.773,0.288,1.161
						c4.827,18.454,9.654,36.908,14.482,55.362c0.217,1.096,0.385,2.203,0.66,3.284c12.108,47.571,24.167,95.155,36.396,142.694
						c2.143,8.328,3.784,16.825,6.906,24.878c0.413,1.354,0.828,2.713,1.24,4.073c0.303,1.402,0.558,2.815,0.913,4.203
						c5.366,21.049,10.734,42.099,16.125,63.142c4.357,17.016,8.747,34.025,13.121,51.037c0.298,1.553,0.596,3.105,0.894,4.656
						c0.074,0.189,0.036,0.319-0.123,0.382c-1.418,0.205-2.86,0.313-4.253,0.632c-11.726,2.673-23.475,5.264-35.159,8.112
						c-14.213,3.465-28.639,6.071-42.657,10.324c-0.271-0.171-0.542-0.343-0.812-0.514c0.171-0.306,0.342-0.608,0.514-0.909
						c1.17-0.682,2.774-0.377,4.27-2.755c-4.447,2.101-4.616-1.436-5.336-4.196c-0.807-3.098-1.584-6.201-2.376-9.3
						c-3.512-13.745-7.026-27.493-10.538-41.238c-0.243,0.061-0.484,0.124-0.726,0.185c1.973,7.72,3.945,15.439,5.918,23.16
						c-1.326,1.682-0.098,3.32,0.462,4.972c-4.2-12.861-7.178-26.067-10.603-39.144c-1.648-6.284-3.791-12.479-4.593-18.973
						c1.617-2.202-0.08-4.488-0.589-6.604c-2.301-9.545-4.807-19.041-7.237-28.557c0.23,3.704,1.216,7.211,2.014,10.755
						c1.701,7.567,4.455,14.896,5.342,22.646c-3.623-12.573-7.51-25.07-10.822-37.725c-15.917-60.826-31.648-121.702-47.519-182.541
						C207.016,283.617,203.88,270.058,199.71,256.787z"/>
					<path fill-rule="evenodd" clip-rule="evenodd" fill="#FAC21F" d="M31.246,299.233c0.554-0.344,1.066-0.854,1.669-1.006
						c26.583-6.767,53.174-13.504,79.769-20.228c1.253-0.317,2.516-0.788,3.88-0.113c2.944,11.455,5.886,22.91,8.829,34.366
						c0.105,2.021,0.585,3.938,1.533,5.727c0.636,2.471,1.274,4.944,1.912,7.416l-0.08,0.246l0.183,0.184
						c0.289,1.165,0.577,2.33,0.865,3.495c0.024,1.842,0.416,3.586,1.337,5.196c0.512,1.941,1.024,3.883,1.536,5.82
						c-0.16,0.131-0.178,0.301-0.055,0.508c0.185,0.698,0.37,1.396,0.555,2.094c3.432,13.427,6.863,26.854,10.294,40.281
						c0.062-0.019,0.124-0.04,0.186-0.06c-0.295-1.777-0.588-3.555-0.884-5.331c0.461,0.736,0.92,1.472,1.38,2.209
						c5.981,23.133,11.96,46.266,17.94,69.396c2.125,8.414,4.25,16.827,6.375,25.243c4.962,21.453,11.723,42.404,17.304,63.686
						c0.899,3.432,2.133,6.984,4.209,9.956c0.605,2.194,1.208,4.389,1.812,6.581c-1.251,1.012-0.228,2.194,0.09,3.333
						c6.698,23.93,12.766,48.021,18.765,72.133c-19.66,5.208-39.428,9.973-59.226,14.64c-7.069,1.666-14.436,2.351-21.064,5.718
						c-0.515-0.491-1.03-0.982-1.546-1.476c-0.169-1.093-0.225-2.222-0.524-3.276c-6.157-21.651-12.146-43.353-18.269-65.011
						c-7.821-27.663-15.112-55.488-22.948-83.158c-8.878-31.358-17.343-62.839-25.87-94.298
						c-7.441-27.452-16.247-54.501-23.083-82.128c-0.112-0.452-0.209-0.605-0.646-0.323c0.07,0.763,0.146,1.598,0.223,2.435
						c-0.081,0.016-0.16,0.031-0.24,0.047C35.386,315.434,33.316,307.333,31.246,299.233z"/>
					<path fill-rule="evenodd" clip-rule="evenodd" fill="#00AEE7" d="M128.837,325.394c-0.638-2.472-1.276-4.945-1.908-7.404
						c-0.047-2.031-0.709-3.907-1.537-5.739c-2.943-11.456-5.885-22.911-8.829-34.366c27.715-7.033,55.43-14.065,83.146-21.098
						c4.17,13.271,7.306,26.829,10.816,40.28c15.871,60.839,31.602,121.715,47.519,182.541c3.312,12.654,7.199,25.151,10.822,37.725
						c0.157,0.587,0.313,1.174,0.471,1.759c0.802,6.494,2.945,12.688,4.593,18.973c3.425,13.076,6.403,26.282,10.606,39.149
						c2.574,8.728,4.166,17.73,7.244,26.31c-0.081,1.146,0.126,2.165,1.081,2.857c-0.172,0.301-0.343,0.604-0.517,0.909
						c-26.998,6.583-53.581,14.669-80.169,22.741c-0.566-1.477-1.278-2.911-1.678-4.43c-2.634-10.021-5.113-20.082-7.814-30.082
						c-3.655-13.532-6.621-27.254-10.889-40.619c-0.604-2.192-1.207-4.387-1.811-6.579c-0.365-1.699-0.592-3.448-1.12-5.089
						c-3.758-11.685-7.429-23.395-10.552-35.283c-4.587-17.892-9.176-35.781-13.767-53.669c-0.199-0.774-0.436-1.54-1.235-1.742
						c-0.253-1.104-0.4-2.258-1.214-3.102c-5.98-23.133-11.959-46.266-17.94-69.402c-3.263-12.453-6.522-24.902-9.789-37.35
						c-0.249-0.95-0.671-1.774-1.446-2.288l-0.124-0.192l-0.116,0.135c-0.512-1.941-1.024-3.883-1.533-5.81
						c-0.03-1.834-0.492-3.572-1.341-5.21c-0.289-1.165-0.577-2.33-0.864-3.49c0.002,0.005,0.181-0.273,0.181-0.273L128.837,325.394
						z"/>
					<path fill-rule="evenodd" clip-rule="evenodd" fill="#0C2B82" d="M539.068,549.935c-9.263-36.733-18.845-73.391-27.691-110.221
						c-7.569-31.518-13.517-63.4-21.38-94.869c-5.58-22.335-11.732-44.551-16.729-67.004c-5.895-26.5-10.987-53.164-17.455-79.552
						c-0.419-1.708-0.868-3.408-1.303-5.113c6.169-1.536,12.339-3.071,18.507-4.606c1.051-0.147,2.104-0.293,3.157-0.44
						c4.283-1.211,8.568-2.422,12.851-3.633c0.688,0.603,1.199,0.423,1.586-0.326c0.733-0.198,1.464-0.394,2.196-0.591
						c0.279-0.064,0.559-0.129,0.835-0.193c0.718-0.145,1.434-0.29,2.151-0.434c1.803,0.612,3.359-0.275,4.981-0.667
						c8.879-2.141,17.716-0.97,26.531,3.393c9.352,6.17,14.525,15.98,17.501,27.502c5.795,22.446,10.722,45.079,15.223,67.803
						c0.87,4.383,2.051,8.726,3.251,13.04c3.905,14.038,6.612,28.348,9.432,42.58c9.39,47.376,22.398,93.879,33.898,140.748
						c4.318,17.607,8.34,35.286,12.471,52.941c0.138,0.592-0.022,1.248-0.045,1.877c-0.978,0.184-1.955,0.367-2.936,0.55
						c-0.118-0.243-0.264-0.458-0.441-0.646c0.207-0.313,0.41-0.625,0.616-0.934c-0.212-0.078-0.452-0.262-0.634-0.216
						c-6.305,1.569-12.612,3.125-18.893,4.784c-1.315,0.347-2.962,0.081-3.686,1.892
						C575.066,541.709,557.066,545.822,539.068,549.935z"/>
					<path fill-rule="evenodd" clip-rule="evenodd" fill="#0C1534" d="M527.307,185.677c-8.815-4.363-17.652-5.534-26.531-3.393
						c-1.622,0.392-3.179,1.279-4.981,0.666c3.442-2.256,8.117-1.231,11.05-4.84c0.249-0.06,0.498-0.118,0.75-0.178
						c3.892,1.813,7.743,1.566,11.591,1.021c2.597,0.193,4.828,2.158,7.308,2.922c0.729,1.116,2.074-0.111,2.727,1.298
						C528.582,184.008,527.945,184.843,527.307,185.677z"/>
					<path fill-rule="evenodd" clip-rule="evenodd" fill="#0C1534" d="M476.175,188.129c-1.054,0.147-2.106,0.293-3.157,0.44
						c-1.777-1.223-3.254,0.083-4.859,0.284c-1.225,0.152-2.507,1.012-3.413-1.046c5.762-2.537,11.668-4.51,18.047-4.652
						c-1.638,0.437-3.256,0.975-4.922,1.287C475.992,184.792,475.38,185.906,476.175,188.129z"/>
					<path fill-rule="evenodd" clip-rule="evenodd" fill="#0C1534" d="M450.717,191.949c1.701-1.354,3.168-1.54,5.326-1.596
						C454.242,191.708,452.765,191.853,450.717,191.949z"/>
					<path fill-rule="evenodd" clip-rule="evenodd" fill="#0C1534" d="M460.092,568.568c1.524-1.21,3.31-1.384,5.161-1.294
						C463.531,567.705,461.81,568.136,460.092,568.568z"/>
					<path fill-rule="evenodd" clip-rule="evenodd" fill="#0C1534" d="M469.038,566.277c0.913-0.633,1.907-0.926,3.025-0.729
						C471.054,565.793,470.046,566.035,469.038,566.277z"/>
					<path fill-rule="evenodd" clip-rule="evenodd" fill="#532162" d="M284.325,233.792c-0.271,0.002-0.541,0.003-0.81,0.004
						C283.755,233.449,284.012,233.285,284.325,233.792z"/>
					<path fill-rule="evenodd" clip-rule="evenodd" fill="#0C1534" d="M466.766,566.856c0.235-0.066,0.473-0.134,0.705-0.202
						l-0.349,0.121L466.766,566.856z"/>
					<path fill-rule="evenodd" clip-rule="evenodd" fill="#050707" d="M519.185,178.953c-3.848,0.545-7.699,0.792-11.591-1.021
						C511.445,177.596,515.3,177.574,519.185,178.953z"/>
					<path fill-rule="evenodd" clip-rule="evenodd" fill="#E0246E" d="M389.839,301.033c-3.305-6.664-4.007-14.131-6.107-21.168
						c-0.559-1.873-1.599-3.866-0.668-5.867C386.012,282.838,388.573,291.775,389.839,301.033z"/>
					<path fill-rule="evenodd" clip-rule="evenodd" fill="#E0246E" d="M378.077,254.526c-1.969-1.607-1.975-4.197-2.455-6.405
						c-1.492-6.862-4.212-13.477-4.565-20.567C374.017,236.381,376.937,245.22,378.077,254.526z"/>
					<path fill-rule="evenodd" clip-rule="evenodd" fill="#E0246E" d="M382.658,272.221c-3.22-4.843-3.428-10.475-4.148-15.975
						C380.823,261.327,382.155,266.666,382.658,272.221z"/>
					<path fill-rule="evenodd" clip-rule="evenodd" fill="#E0246E" d="M439.335,499.688c-3.631-2.192-3.458-5.172-1.889-8.44
						C438.33,494.008,439.425,496.725,439.335,499.688z"/>
					<path fill-rule="evenodd" clip-rule="evenodd" fill="#EA2F77" d="M417.937,413.813c-0.967,0.157-2.667,0.521-2.409-0.998
						c0.311-1.829-1.768-4.898,1.227-5.565c0.141,0.646,0.282,1.293,0.427,1.936c-0.018,0.396-0.04,0.794-0.06,1.193
						C417.395,411.522,417.666,412.668,417.937,413.813z"/>
					<path fill-rule="evenodd" clip-rule="evenodd" fill="#E0246E" d="M403.192,356.177c-0.609,0.46-1.22,0.919-2.02,1.523
						c-0.568-2.747,0.44-4.863,0.956-7.11C402.878,352.391,403.662,354.184,403.192,356.177z"/>
					<path fill-rule="evenodd" clip-rule="evenodd" fill="#E0246E" d="M393.304,314.992c-1.206-0.879-1.69-2.509-2.928-3.604
						c-1.289-1.14,1.05-3.475,0.634-5.637C391.774,308.833,392.539,311.912,393.304,314.992z"/>
					<path fill-rule="evenodd" clip-rule="evenodd" fill="#E0246E" d="M404.951,361.717c-3.546,0.044-1.812-2.078-1.321-3.689
						C404.745,358.981,405.043,360.27,404.951,361.717z"/>
					<path fill-rule="evenodd" clip-rule="evenodd" fill="#EA2F77" d="M427.068,451.09c-1.613-0.128-1.657-1.725-1.995-2.986
						c-0.107-0.404-0.607-1.29,0.246-1.186c0.36,0.046,0.72,0.843,1.075,1.298C426.619,449.171,426.843,450.13,427.068,451.09z"/>
					<path fill-rule="evenodd" clip-rule="evenodd" fill="#EA2F77" d="M415.778,403.538c-0.412,0.352-0.89,0.786-1.255-0.107
						c-0.449-1.1-0.528-2.155,0.566-2.674C415.32,401.685,415.549,402.612,415.778,403.538z"/>
					<path fill-rule="evenodd" clip-rule="evenodd" fill="#E0246E" d="M396.139,326.157c-1.341-1.595-1.802-3.417-1.403-5.459
						C395.205,322.517,395.67,324.337,396.139,326.157z"/>
					<path fill-rule="evenodd" clip-rule="evenodd" fill="#EA2F77" d="M440.418,504.404c-1.08-0.491-1.222-1.218-0.545-2.156
						C440.056,502.967,440.233,503.686,440.418,504.404z"/>
					<path fill-rule="evenodd" clip-rule="evenodd" fill="#E0246E" d="M422.545,432.513c-0.309-0.145-0.614-0.289-0.924-0.433
						c0.141-0.201,0.281-0.401,0.424-0.603C422.214,431.823,422.379,432.168,422.545,432.513z"/>
					<path fill-rule="evenodd" clip-rule="evenodd" fill="#E0246E" d="M397.72,332.703c-0.097-0.186-0.214-0.362-0.28-0.56
						c-0.026-0.076,0.063-0.195,0.099-0.294C397.713,332.112,397.772,332.396,397.72,332.703z"/>
					<path fill-rule="evenodd" clip-rule="evenodd" fill="#E0246E" d="M406.907,371.062c-0.139-0.201-0.298-0.391-0.4-0.613
						c-0.028-0.061,0.111-0.219,0.171-0.333C406.756,370.432,406.832,370.747,406.907,371.062z"/>
					<path fill-rule="evenodd" clip-rule="evenodd" fill="#E0246E" d="M410.209,382.013c-0.258-0.167-0.333-0.398-0.229-0.691
						C410.17,381.51,410.247,381.74,410.209,382.013z"/>
					<path fill-rule="evenodd" clip-rule="evenodd" fill="#E0246E" d="M411.422,386.667c-0.281-0.215-0.339-0.475-0.176-0.781
						C411.422,386.122,411.479,386.383,411.422,386.667z"/>
					<path fill-rule="evenodd" clip-rule="evenodd" fill="#E0246E" d="M417.121,410.379c0.02-0.399,0.042-0.798,0.06-1.193
						C417.16,409.584,417.142,409.981,417.121,410.379z"/>
					<path fill-rule="evenodd" clip-rule="evenodd" fill="#E0246E" d="M421.631,430.742c-0.527-0.104-0.868-0.28-0.288-0.824
						C421.486,430.174,421.582,430.45,421.631,430.742z"/>
					<path fill-rule="evenodd" clip-rule="evenodd" fill="#E0246E" d="M344.298,465.315c1.521,1.1,1.589,2.995,2.013,4.646
						c9.283,36.236,18.548,72.476,27.795,108.721c0.422,1.65,1.258,3.36,0.351,5.016c-4.374-17.012-8.764-34.021-13.121-51.037
						c-5.391-21.043-10.76-42.093-16.125-63.142C344.856,468.131,344.602,466.718,344.298,465.315z"/>
					<path fill-rule="evenodd" clip-rule="evenodd" fill="#FAC21F" d="M292.861,606.381c-0.954-0.692-1.161-1.712-1.079-2.855
						c-1.813-10.61-5.156-20.854-7.71-31.289c-1.973-7.721-3.946-15.44-5.918-23.16c0.242-0.061,0.483-0.124,0.726-0.185
						c3.512,13.745,7.026,27.493,10.538,41.238c0.792,3.099,1.57,6.202,2.376,9.3c0.721,2.761,0.889,6.297,5.336,4.196
						C295.635,606.004,294.031,605.699,292.861,606.381z"/>
					<path fill-rule="evenodd" clip-rule="evenodd" fill="#D11501" d="M284.614,235.024c1.857,1.898,1.887,4.607,2.509,6.981
						c3.845,14.708,7.576,29.448,11.325,44.182c0.352,1.376,0.93,2.75,0.648,4.199C294.269,271.932,289.441,253.478,284.614,235.024
						z"/>
					<path fill-rule="evenodd" clip-rule="evenodd" fill="#FAC21F" d="M269.338,519.092c-0.158-0.585-0.314-1.172-0.471-1.759
						c-0.887-7.75-3.641-15.079-5.342-22.646c-0.797-3.544-1.784-7.051-2.014-10.755c2.431,9.516,4.937,19.012,7.237,28.557
						C269.259,514.604,270.955,516.89,269.338,519.092z"/>
					<path fill-rule="evenodd" clip-rule="evenodd" fill="#878996" d="M284.072,572.236c2.555,10.435,5.897,20.679,7.71,31.289
						c-3.08-8.581-4.672-17.584-7.246-26.312C283.974,575.557,282.746,573.918,284.072,572.236z"/>
					<path fill-rule="evenodd" clip-rule="evenodd" fill="#A1CA42" d="M178.312,507.949c3.122,11.889,6.793,23.599,10.551,35.283
						c0.528,1.641,0.755,3.39,1.12,5.089c-2.077-2.974-3.311-6.526-4.21-9.958c-5.581-21.281-12.342-42.232-17.304-63.688
						c0.172,0.038,0.343,0.04,0.51-0.002c1.507,5.661,2.914,11.356,4.555,16.979C175.12,497.086,175.724,502.831,178.312,507.949z"
						/>
					<path fill-rule="evenodd" clip-rule="evenodd" fill="#A1CA42" d="M212.176,630.031c-0.191,0.22-0.382,0.438-0.574,0.659
						c-0.271-0.007-0.542-0.015-0.814-0.025l-0.14-0.299c-5.998-24.111-12.066-48.203-18.764-72.133
						c-0.318-1.139-1.341-2.321-0.09-3.333c4.269,13.365,7.234,27.087,10.889,40.619c2.701,10,5.18,20.061,7.814,30.082
						C210.898,627.12,211.609,628.555,212.176,630.031z"/>
					<path fill-rule="evenodd" clip-rule="evenodd" fill="#C6CAB8" d="M142.774,377.829c0.296,1.776,0.589,3.554,0.884,5.331
						c-0.062,0.02-0.124,0.041-0.186,0.06c-3.431-13.427-6.862-26.854-10.294-40.282
						C136.981,354.395,139.624,366.184,142.774,377.829z"/>
					<path fill-rule="evenodd" clip-rule="evenodd" fill="#797D8A" d="M142.774,377.829c-3.15-11.645-5.793-23.434-9.596-34.892
						c-0.185-0.697-0.37-1.395-0.554-2.089c0.142-0.107,0.241-0.258,0.294-0.451c0.775,0.514,1.198,1.338,1.446,2.288
						c3.267,12.448,6.526,24.897,9.789,37.35C143.694,379.301,143.235,378.565,142.774,377.829z"/>
					<path fill-rule="evenodd" clip-rule="evenodd" fill="#C6CAB8" d="M168.979,474.674c-0.167,0.042-0.337,0.04-0.51,0.002
						c-2.125-8.414-4.249-16.827-6.375-25.241c0.814,0.846,0.961,2,1.213,3.099C165.2,459.911,167.088,467.292,168.979,474.674z"/>
					<path fill-rule="evenodd" clip-rule="evenodd" fill="#C6CAB8" d="M125.393,312.251c0.828,1.832,1.49,3.708,1.537,5.739
						C125.978,316.188,125.498,314.271,125.393,312.251z"/>
					<path fill-rule="evenodd" clip-rule="evenodd" fill="#C6CAB8" d="M129.805,329.319c0.849,1.638,1.311,3.375,1.341,5.21
						C130.221,332.906,129.829,331.161,129.805,329.319z"/>
					<path fill-rule="evenodd" clip-rule="evenodd" fill="#C6CAB8" d="M128.837,325.394l0.284,0.163c0,0-0.178,0.278-0.181,0.273
						c-0.001-0.005-0.184-0.189-0.184-0.189L128.837,325.394z"/>
					<path fill-rule="evenodd" clip-rule="evenodd" fill="#C6CAB8" d="M132.919,340.396c-0.053,0.193-0.152,0.344-0.294,0.451
						c-0.124-0.211-0.105-0.381,0.054-0.512c0,0.003,0.116-0.132,0.116-0.132L132.919,340.396z"/>
					<path fill-rule="evenodd" clip-rule="evenodd" fill="#797D8A" d="M168.979,474.674c-1.891-7.382-3.779-14.763-5.671-22.141
						c0.8,0.207,1.038,0.973,1.236,1.747c4.591,17.888,9.18,35.777,13.767,53.669c-2.587-5.118-3.191-10.863-4.777-16.297
						C171.893,486.03,170.486,480.335,168.979,474.674z"/>
					<path fill-rule="evenodd" clip-rule="evenodd" fill="#0C1534" d="M489.025,184.496c0.528-0.109,1.058-0.218,1.586-0.326
						C490.225,184.918,489.713,185.098,489.025,184.496z"/>
					<path fill-rule="evenodd" clip-rule="evenodd" fill="#0C1534" d="M492.808,183.579c0.279-0.064,0.559-0.13,0.835-0.193
						C493.366,183.449,493.087,183.514,492.808,183.579z"/>
					<path fill-rule="evenodd" clip-rule="evenodd" fill="#E0246E" d="M382.635,585.839c-1.262-0.112-2.51,0.644-4.546-0.568
						c19.252-5.89,38.148-10.443,57.226-14.416c-1.523,2.677-4.976,1.062-6.353,3.892c-0.464,0.106-0.926,0.211-1.39,0.315
						c-3.229-0.957-6-0.044-8.487,2.029c-0.502,0.119-1.002,0.242-1.505,0.363c-1.273-0.884-2.284-0.6-3.076,0.648
						c-1.675,0.886-3.484,1.239-5.354,1.362c-2.565-0.581-4.825,0.023-6.794,1.756c-1.029,0.273-2.06,0.543-3.089,0.814
						c-1.026-0.746-1.788-0.53-2.291,0.64c-1.886,0.959-3.882,1.503-5.986,1.647c-0.395-0.377-0.668-0.304-0.814,0.231
						c-0.993,0.253-1.985,0.506-2.979,0.759c-1.714-1.122-3.095-0.205-4.509,0.524L382.635,585.839z"/>
					<path fill-rule="evenodd" clip-rule="evenodd" fill="#EA2F77" d="M419.085,577.091c2.487-2.073,5.258-2.986,8.487-2.029
						C424.885,576.312,422.027,576.882,419.085,577.091z"/>
					<path fill-rule="evenodd" clip-rule="evenodd" fill="#EA2F77" d="M402.356,581.221c1.969-1.732,4.229-2.337,6.794-1.756
						C406.992,580.46,404.725,581.032,402.356,581.221z"/>
					<path fill-rule="evenodd" clip-rule="evenodd" fill="#EA2F77" d="M382.688,585.837c1.414-0.729,2.795-1.646,4.509-0.524
						C385.76,585.889,384.418,587.065,382.688,585.837z"/>
					<path fill-rule="evenodd" clip-rule="evenodd" fill="#EA2F77" d="M414.504,578.103c0.792-1.248,1.803-1.532,3.076-0.648
						C416.646,578.064,415.624,578.307,414.504,578.103z"/>
					<path fill-rule="evenodd" clip-rule="evenodd" fill="#EA2F77" d="M396.977,582.675c0.503-1.17,1.265-1.386,2.291-0.64
						C398.503,582.251,397.74,582.464,396.977,582.675z"/>
					<path fill-rule="evenodd" clip-rule="evenodd" fill="#EA2F77" d="M390.176,584.554c0.146-0.535,0.42-0.608,0.814-0.231
						C390.719,584.399,390.447,584.477,390.176,584.554z"/>
					<path fill-rule="evenodd" clip-rule="evenodd" fill="#0C1534" d="M130.157,652.005c0.852-0.28,1.701-0.577,2.568,0.242
						l-0.09,0.163c-0.678,0.178-1.355,0.357-2.032,0.535C130.456,652.632,130.307,652.316,130.157,652.005z"/>
					<path fill-rule="evenodd" clip-rule="evenodd" fill="#0C1534" d="M478.354,185.473c2.328-0.595,4.657-1.19,6.983-1.785
						c0.038,0.153,0.078,0.307,0.117,0.461c-2.367,0.604-4.736,1.21-7.104,1.815C478.354,185.8,478.354,185.635,478.354,185.473z"/>
					<path fill-rule="evenodd" clip-rule="evenodd" fill="#0C1534" d="M494.17,181.795c-0.424,0.241-0.71,0.479-1.034,0.561
						c-0.196,0.049-0.455-0.143-0.688-0.226c0.286-0.21,0.548-0.489,0.866-0.603C493.497,181.46,493.766,181.658,494.17,181.795z"/>
					<path fill-rule="evenodd" clip-rule="evenodd" fill="#E0246E" d="M371.254,560.351c-1.701-6.658-3.402-13.316-5.104-19.973
						c0.121-0.036,0.245-0.067,0.367-0.099c1.701,6.656,3.403,13.317,5.104,19.974C371.499,560.284,371.375,560.315,371.254,560.351
						z"/>
					<path fill-rule="evenodd" clip-rule="evenodd" fill="#E0246E" d="M361.169,521.397c1.71,3.597,2.865,7.39,2.885,11.474
						C361.361,529.555,363.295,524.908,361.169,521.397z"/>
					<path fill-rule="evenodd" clip-rule="evenodd" fill="#E0246E" d="M378.51,256.246c-0.144-0.574-0.288-1.147-0.433-1.72
						c-1.969-1.607-1.975-4.197-2.455-6.405c-1.492-6.862-4.212-13.477-4.565-20.567c-0.244-0.941-0.487-1.882-0.732-2.822
						c-0.578-2.485-1.159-4.968-1.738-7.453c-0.015-1.323-0.033-2.646-0.05-3.968c-8.413,1.212-16.76,2.699-24.816,5.441
						c-3.866,0.458-7.726,0.949-11.34,2.49c-0.602,0.093-1.204,0.187-1.805,0.28c-0.719,0.149-1.439,0.3-2.158,0.449
						c-0.807,0.193-1.614,0.387-2.421,0.58c-9.072,1.637-17.838,4.472-26.739,6.785c-4.513,0.787-8.974,1.773-13.22,3.588
						c-0.566,0.312-1.14,0.625-1.712,0.938c0.096,0.387,0.191,0.773,0.288,1.161c1.857,1.898,1.887,4.607,2.509,6.981
						c3.845,14.708,7.576,29.448,11.325,44.182c0.352,1.376,0.93,2.75,0.648,4.199c0.217,1.095,0.385,2.203,0.66,3.283
						c12.108,47.571,24.167,95.155,36.396,142.694c2.143,8.328,3.784,16.825,6.905,24.88c-2.19-8.815-4.58-17.595-6.685-26.427
						c2.104,8.832,4.494,17.609,6.686,26.425c0.413,1.354,0.828,2.713,1.24,4.073c1.521,1.1,1.589,2.995,2.013,4.646
						c9.283,36.236,18.548,72.476,27.795,108.721c0.422,1.65,1.258,3.36,0.351,5.016c0.298,1.553,0.596,3.105,0.895,4.656
						c2.493-0.632,5.326-0.183,7.283-2.515c-1.262-0.112-2.51,0.644-4.546-0.568c19.252-5.89,38.148-10.443,57.226-14.416
						c-1.523,2.677-4.976,1.062-6.353,3.892c9.568-1.421,19.061-3.197,28.397-5.685c-1.037-4.546-2.07-9.091-3.106-13.637
						c-0.982-7.743-3.269-15.175-5.507-22.619c0.102-1.421-0.515-2.534-1.323-3.562c-0.159-0.621-0.314-1.241-0.472-1.86
						c-1.053-4.031-2.108-8.061-3.159-12.09c-1.043-3.657-1.233-7.601-3.374-10.889c-1.08-0.491-1.222-1.218-0.545-2.156
						c-0.121-0.537-0.241-1.076-0.363-1.613c-0.057-0.316-0.118-0.632-0.175-0.947c-3.631-2.192-3.458-5.172-1.889-8.44
						c-0.786-3.133-1.575-6.262-2.362-9.393c-2.673-10.255-5.346-20.51-8.016-30.765c-1.613-0.128-1.657-1.725-1.995-2.986
						c-0.107-0.404-0.607-1.29,0.246-1.186c0.36,0.046,0.72,0.843,1.075,1.298c-0.611-2.46-1.224-4.915-1.837-7.373
						c-0.673-2.777-1.342-5.553-2.013-8.33c-0.309-0.145-0.614-0.289-0.924-0.433c0.141-0.201,0.281-0.401,0.424-0.603
						c-0.057-0.303-0.196-0.549-0.414-0.735c-0.527-0.104-0.868-0.28-0.288-0.824c0.003-0.001-0.06-0.022-0.06-0.022
						c-0.376-5.498-0.737-10.996-3.347-16.082c-0.967,0.157-2.667,0.521-2.409-0.998c0.311-1.829-1.768-4.898,1.227-5.565
						c-0.325-1.237-0.65-2.475-0.976-3.712c-0.412,0.352-0.89,0.786-1.255-0.107c-0.449-1.1-0.528-2.155,0.566-2.674
						c-0.412-1.591-0.825-3.179-1.237-4.771c-0.538-3.178-1.277-6.304-2.431-9.319c-0.281-0.215-0.339-0.475-0.176-0.781
						c-0.345-1.291-0.692-2.581-1.037-3.873c-0.258-0.167-0.333-0.398-0.229-0.691c-0.356-3.633-1.575-6.991-3.073-10.26
						c-0.139-0.201-0.298-0.391-0.4-0.613c-0.028-0.061,0.111-0.219,0.171-0.333c-0.563-2.801-0.362-5.742-1.727-8.399
						c-3.546,0.044-1.812-2.078-1.321-3.689c-0.144-0.617-0.291-1.233-0.438-1.85c-0.609,0.46-1.22,0.919-2.02,1.523
						c-0.568-2.747,0.44-4.863,0.956-7.11c-0.353-2.897-1.048-5.715-2.04-8.463c-0.291-2.594-0.887-5.117-1.821-7.561
						c-0.183-0.622-0.368-1.242-0.548-1.864c-0.097-0.186-0.214-0.362-0.28-0.56c-0.026-0.076,0.063-0.195,0.099-0.294
						c-0.468-1.897-0.933-3.795-1.399-5.692c-1.341-1.595-1.802-3.417-1.403-5.459c-0.478-1.901-0.955-3.803-1.432-5.706
						c-1.206-0.879-1.69-2.509-2.928-3.604c-1.289-1.14,1.05-3.475,0.634-5.637c-0.39-1.572-0.781-3.145-1.171-4.718
						c-3.305-6.664-4.007-14.131-6.107-21.168c-0.559-1.873-1.599-3.866-0.668-5.867c-0.133-0.593-0.27-1.186-0.405-1.777
						C379.438,267.378,379.23,261.746,378.51,256.246z M371.622,560.253c-0.123,0.031-0.247,0.062-0.368,0.098
						c-1.701-6.658-3.402-13.316-5.104-19.973c0.121-0.036,0.245-0.067,0.367-0.099C368.218,546.936,369.92,553.597,371.622,560.253
						z M364.054,532.871c-2.342-2.887-1.187-6.775-2.245-10.051c-0.204-0.479-0.417-0.953-0.641-1.423
						c0.277,0.456,0.483,0.932,0.641,1.423C363.161,525.993,364.036,529.32,364.054,532.871z M331.896,393.438
						c-0.512-0.199-1.01-0.498-1.487-0.882C330.886,392.939,331.384,393.238,331.896,393.438c-0.129-0.662-0.284-1.313-0.458-1.953
						C331.612,392.124,331.767,392.775,331.896,393.438z M306.759,278.891c0.023-0.251,0.046-0.502,0.07-0.752v0
						C306.805,278.39,306.782,278.641,306.759,278.891z M354.57,433.888c-0.222-0.094-0.441-0.207-0.664-0.255
						c0.224,0.048,0.443,0.161,0.665,0.253C354.57,433.886,354.57,433.888,354.57,433.888z M331.93,338.91
						c-0.134-0.217-0.253-0.569-0.407-0.609C331.677,338.341,331.796,338.693,331.93,338.91L331.93,338.91z M340.714,248.19
						c0,0,0.01-0.023,0.009-0.022l0.001,0L340.714,248.19z M417.528,494.461L417.528,494.461c0.186,0.451,0.421,0.905,0.769,0.937
						C417.949,495.366,417.714,494.914,417.528,494.461z M369.504,253.474c-0.407,0.163-0.795,0.128-1.092-0.176
						c0.298,0.304,0.685,0.338,1.091,0.175c0.326-0.152,0.598-0.373,0.76-0.665C370.101,253.1,369.828,253.323,369.504,253.474z
						 M386.882,309.931c0.02-0.255,0.09-0.496,0.144-0.742c0,0.001,0,0.001,0,0.001
						C386.972,309.436,386.901,309.677,386.882,309.931z"/>
					<path fill-rule="evenodd" clip-rule="evenodd" fill="#0C1534" d="M366.557,593.536c-0.109-0.922-0.179-1.835,0.812-2
						c0.165-0.027,0.547,0.236,0.555,0.354c0.06,1.135-0.736,1.302-1.374,1.64L366.557,593.536z"/>
					<path fill-rule="evenodd" clip-rule="evenodd" fill="#0C1534" d="M302.163,607.613c-0.221,0.146-0.399,0.312-0.604,0.368
						c-0.05,0.015-0.195-0.324-0.296-0.5c0.1-0.066,0.21-0.209,0.3-0.184C301.757,607.353,301.94,607.49,302.163,607.613z"/>
					<path fill-rule="evenodd" clip-rule="evenodd" fill="#0C1534" d="M304.148,609.486c-0.105-0.04-0.211-0.08-0.317-0.117
						c0.107,0.035,0.214,0.073,0.321,0.11L304.148,609.486z"/>
					<path fill-rule="evenodd" clip-rule="evenodd" fill="#0C1534" d="M132.726,652.247c0.218,0.18,0.436,0.359,0.654,0.539
						c-0.1,0.141-0.201,0.282-0.3,0.423c-0.147-0.266-0.296-0.535-0.444-0.803C132.636,652.41,132.726,652.247,132.726,652.247z"/>
				</g>
			</g>
		</g>
		<g>
			<defs>
				<path id="SVGID_20_" d="M575.09,461.282c6.01,32.6-15.677,67.86-47.268,77.657c-95.868,29.328-192.894,54.122-291.078,74.388
					c-32.418,6.561-68.362-13.973-78.729-45.459c-23.053-71.048-41.509-143.268-55.371-216.663
					c-6.01-32.601,15.675-67.862,47.266-77.658c95.868-29.327,192.894-54.123,291.078-74.387
					c32.418-6.562,68.361,13.971,78.729,45.458C542.771,315.665,561.227,387.886,575.09,461.282z"/>
			</defs>
			<clipPath id="SVGID_21_">
				<use xlink:href="#SVGID_20_"  overflow="visible"/>
			</clipPath>
			
				<radialGradient id="SVGID_22_" cx="310.835" cy="394.918" r="229.3638" gradientTransform="matrix(0.9689 -0.2476 0.2476 0.9689 -65.8877 103.2612)" gradientUnits="userSpaceOnUse">
				<stop  offset="0" style="stop-color:#000000;stop-opacity:0"/>
				<stop  offset="1" style="stop-color:#000000;stop-opacity:0.6"/>
			</radialGradient>
			<path clip-path="url(#SVGID_21_)" fill="url(#SVGID_22_)" d="M629.516,537.225c0.297,1.159-0.404,2.342-1.564,2.637
				L137.132,665.294c-1.16,0.297-2.342-0.403-2.639-1.562L36.586,280.617c-0.297-1.161,0.404-2.342,1.565-2.639l490.817-125.433
				c1.16-0.297,2.343,0.404,2.639,1.564L629.516,537.225z"/>
		</g>
		
			<linearGradient id="SVGID_23_" gradientUnits="userSpaceOnUse" x1="593.0566" y1="254.0479" x2="620.9751" y2="302.4041" gradientTransform="matrix(0.9689 -0.2476 0.2476 0.9689 -65.8877 103.2612)">
			<stop  offset="0" style="stop-color:#A0AAAC"/>
			<stop  offset="0.0198" style="stop-color:#B8C0C1"/>
			<stop  offset="0.0499" style="stop-color:#D7DBDC"/>
			<stop  offset="0.0794" style="stop-color:#EDEFEF"/>
			<stop  offset="0.1075" style="stop-color:#FAFBFB"/>
			<stop  offset="0.133" style="stop-color:#FFFFFF"/>
			<stop  offset="0.5342" style="stop-color:#525252"/>
			<stop  offset="0.5738" style="stop-color:#4D4D4D"/>
			<stop  offset="0.6212" style="stop-color:#3E3E3E"/>
			<stop  offset="0.6728" style="stop-color:#262626"/>
			<stop  offset="0.7269" style="stop-color:#050505"/>
			<stop  offset="0.7334" style="stop-color:#000000"/>
			<stop  offset="0.7508" style="stop-color:#101010"/>
			<stop  offset="0.7896" style="stop-color:#2D2D2D"/>
			<stop  offset="0.8282" style="stop-color:#414141"/>
			<stop  offset="0.8661" style="stop-color:#4E4E4E"/>
			<stop  offset="0.9026" style="stop-color:#525252"/>
		</linearGradient>
		<circle fill="url(#SVGID_23_)" cx="591.114" cy="222.525" r="27.914"/>
		
			<linearGradient id="SVGID_24_" gradientUnits="userSpaceOnUse" x1="607.0156" y1="256.1265" x2="607.0156" y2="300.3228" gradientTransform="matrix(0.9689 -0.2476 0.2476 0.9689 -65.8877 103.2612)">
			<stop  offset="0" style="stop-color:#79797C"/>
			<stop  offset="0.2158" style="stop-color:#767679"/>
			<stop  offset="0.3919" style="stop-color:#6C6C6F"/>
			<stop  offset="0.554" style="stop-color:#5B5B5E"/>
			<stop  offset="0.7077" style="stop-color:#444446"/>
			<stop  offset="0.854" style="stop-color:#262627"/>
			<stop  offset="0.9956" style="stop-color:#010101"/>
			<stop  offset="1" style="stop-color:#000000"/>
		</linearGradient>
		<circle fill="url(#SVGID_24_)" cx="591.114" cy="222.525" r="22.097"/>
		<circle opacity="0.6" fill="#0C0C0B" cx="592.189" cy="221.986" r="13.084"/>
		
			<linearGradient id="SVGID_25_" gradientUnits="userSpaceOnUse" x1="614.8779" y1="273.6885" x2="601.5029" y2="273.6885" gradientTransform="matrix(0.9689 -0.2476 0.2476 0.9689 -65.8877 103.2612)">
			<stop  offset="0" style="stop-color:#79797C"/>
			<stop  offset="0.3373" style="stop-color:#969697"/>
			<stop  offset="0.7624" style="stop-color:#B5B5B4"/>
			<stop  offset="1" style="stop-color:#C1C1BF"/>
		</linearGradient>
		<polygon fill="url(#SVGID_25_)" points="604.203,241.989 591.245,245.3 578.057,193.691 591.015,190.379 		"/>
		
			<linearGradient id="SVGID_26_" gradientUnits="userSpaceOnUse" x1="568.0938" y1="337.1689" x2="596.0122" y2="385.5251" gradientTransform="matrix(0.6692 -0.7431 0.7431 0.6692 -45.5635 493.0884)">
			<stop  offset="0" style="stop-color:#A0AAAC"/>
			<stop  offset="0.0198" style="stop-color:#B8C0C1"/>
			<stop  offset="0.0499" style="stop-color:#D7DBDC"/>
			<stop  offset="0.0794" style="stop-color:#EDEFEF"/>
			<stop  offset="0.1075" style="stop-color:#FAFBFB"/>
			<stop  offset="0.133" style="stop-color:#FFFFFF"/>
			<stop  offset="0.5342" style="stop-color:#525252"/>
			<stop  offset="0.5738" style="stop-color:#4D4D4D"/>
			<stop  offset="0.6212" style="stop-color:#3E3E3E"/>
			<stop  offset="0.6728" style="stop-color:#262626"/>
			<stop  offset="0.7269" style="stop-color:#050505"/>
			<stop  offset="0.7334" style="stop-color:#000000"/>
			<stop  offset="0.7508" style="stop-color:#101010"/>
			<stop  offset="0.7896" style="stop-color:#2D2D2D"/>
			<stop  offset="0.8282" style="stop-color:#414141"/>
			<stop  offset="0.8661" style="stop-color:#4E4E4E"/>
			<stop  offset="0.9026" style="stop-color:#525252"/>
		</linearGradient>
		<circle fill="url(#SVGID_26_)" cx="612.449" cy="302.36" r="27.913"/>
		
			<linearGradient id="SVGID_27_" gradientUnits="userSpaceOnUse" x1="582.0527" y1="339.2495" x2="582.0527" y2="383.4448" gradientTransform="matrix(0.6692 -0.7431 0.7431 0.6692 -45.5635 493.0884)">
			<stop  offset="0" style="stop-color:#79797C"/>
			<stop  offset="0.2158" style="stop-color:#767679"/>
			<stop  offset="0.3919" style="stop-color:#6C6C6F"/>
			<stop  offset="0.554" style="stop-color:#5B5B5E"/>
			<stop  offset="0.7077" style="stop-color:#444446"/>
			<stop  offset="0.854" style="stop-color:#262627"/>
			<stop  offset="0.9956" style="stop-color:#010101"/>
			<stop  offset="1" style="stop-color:#000000"/>
		</linearGradient>
		<circle fill="url(#SVGID_27_)" cx="612.448" cy="302.36" r="22.097"/>
		<circle opacity="0.6" fill="#0C0C0B" cx="613.044" cy="301.315" r="13.084"/>
		
			<linearGradient id="SVGID_28_" gradientUnits="userSpaceOnUse" x1="589.915" y1="356.8105" x2="576.54" y2="356.8105" gradientTransform="matrix(0.6692 -0.7431 0.7431 0.6692 -45.5635 493.0884)">
			<stop  offset="0" style="stop-color:#79797C"/>
			<stop  offset="0.3373" style="stop-color:#969697"/>
			<stop  offset="0.7624" style="stop-color:#B5B5B4"/>
			<stop  offset="1" style="stop-color:#C1C1BF"/>
		</linearGradient>
		<polygon fill="url(#SVGID_28_)" points="634.131,311.304 625.181,321.242 585.597,285.598 594.547,275.66 		"/>
		<path fill="#72726D" d="M693.623,476.245c1.901,7.442-2.591,15.019-10.034,16.92l-43.425,11.1
			c-7.442,1.901-15.02-2.592-16.921-10.033l-33.082-129.449c-1.902-7.443,2.59-15.019,10.033-16.921l43.425-11.098
			c7.443-1.902,15.019,2.59,16.922,10.033L693.623,476.245z"/>
		
			<linearGradient id="SVGID_29_" gradientUnits="userSpaceOnUse" x1="607.0146" y1="421.0957" x2="607.0146" y2="414.1172" gradientTransform="matrix(0.9689 -0.2476 0.2476 0.9689 -65.8877 103.2612)">
			<stop  offset="0.133" style="stop-color:#BBC2C2"/>
			<stop  offset="0.5342" style="stop-color:#525252"/>
			<stop  offset="0.5738" style="stop-color:#4D4D4D"/>
			<stop  offset="0.6212" style="stop-color:#3E3E3E"/>
			<stop  offset="0.6728" style="stop-color:#262626"/>
			<stop  offset="0.7269" style="stop-color:#050505"/>
			<stop  offset="0.7334" style="stop-color:#000000"/>
			<stop  offset="0.7508" style="stop-color:#101010"/>
			<stop  offset="0.7896" style="stop-color:#2D2D2D"/>
			<stop  offset="0.8282" style="stop-color:#414141"/>
			<stop  offset="0.8661" style="stop-color:#4E4E4E"/>
			<stop  offset="0.9026" style="stop-color:#525252"/>
		</linearGradient>
		<path fill="url(#SVGID_29_)" d="M652.67,350.655c0.477,1.867-0.649,3.768-2.517,4.245l-47.328,12.095
			c-1.867,0.477-3.767-0.65-4.244-2.517l0,0c-0.477-1.867,0.65-3.767,2.517-4.245l47.328-12.095
			C650.292,347.662,652.193,348.789,652.67,350.655L652.67,350.655z"/>
		
			<linearGradient id="SVGID_30_" gradientUnits="userSpaceOnUse" x1="607.1211" y1="433.2393" x2="607.1211" y2="426.2607" gradientTransform="matrix(0.9689 -0.2476 0.2476 0.9689 -65.8877 103.2612)">
			<stop  offset="0.133" style="stop-color:#BBC2C2"/>
			<stop  offset="0.5342" style="stop-color:#525252"/>
			<stop  offset="0.5738" style="stop-color:#4D4D4D"/>
			<stop  offset="0.6212" style="stop-color:#3E3E3E"/>
			<stop  offset="0.6728" style="stop-color:#262626"/>
			<stop  offset="0.7269" style="stop-color:#050505"/>
			<stop  offset="0.7334" style="stop-color:#000000"/>
			<stop  offset="0.7508" style="stop-color:#101010"/>
			<stop  offset="0.7896" style="stop-color:#2D2D2D"/>
			<stop  offset="0.8282" style="stop-color:#414141"/>
			<stop  offset="0.8661" style="stop-color:#4E4E4E"/>
			<stop  offset="0.9026" style="stop-color:#525252"/>
		</linearGradient>
		<path fill="url(#SVGID_30_)" d="M655.779,362.395c0.477,1.867-0.65,3.767-2.517,4.244l-47.328,12.095
			c-1.866,0.477-3.768-0.65-4.245-2.517l0,0c-0.477-1.867,0.65-3.767,2.518-4.244l47.327-12.095
			C653.402,359.401,655.302,360.528,655.779,362.395L655.779,362.395z"/>
		
			<linearGradient id="SVGID_31_" gradientUnits="userSpaceOnUse" x1="606.6133" y1="445.5205" x2="606.6133" y2="438.542" gradientTransform="matrix(0.9689 -0.2476 0.2476 0.9689 -65.8877 103.2612)">
			<stop  offset="0.133" style="stop-color:#BBC2C2"/>
			<stop  offset="0.5342" style="stop-color:#525252"/>
			<stop  offset="0.5738" style="stop-color:#4D4D4D"/>
			<stop  offset="0.6212" style="stop-color:#3E3E3E"/>
			<stop  offset="0.6728" style="stop-color:#262626"/>
			<stop  offset="0.7269" style="stop-color:#050505"/>
			<stop  offset="0.7334" style="stop-color:#000000"/>
			<stop  offset="0.7508" style="stop-color:#101010"/>
			<stop  offset="0.7896" style="stop-color:#2D2D2D"/>
			<stop  offset="0.8282" style="stop-color:#414141"/>
			<stop  offset="0.8661" style="stop-color:#4E4E4E"/>
			<stop  offset="0.9026" style="stop-color:#525252"/>
		</linearGradient>
		<path fill="url(#SVGID_31_)" d="M658.329,374.419c0.477,1.867-0.65,3.767-2.517,4.244l-47.328,12.096
			c-1.867,0.477-3.768-0.65-4.244-2.517l0,0c-0.478-1.867,0.649-3.768,2.517-4.245l47.327-12.095
			C655.951,371.425,657.852,372.552,658.329,374.419L658.329,374.419z"/>
		
			<linearGradient id="SVGID_32_" gradientUnits="userSpaceOnUse" x1="607.0146" y1="458.1963" x2="607.0146" y2="451.2178" gradientTransform="matrix(0.9689 -0.2476 0.2476 0.9689 -65.8877 103.2612)">
			<stop  offset="0.133" style="stop-color:#BBC2C2"/>
			<stop  offset="0.5342" style="stop-color:#525252"/>
			<stop  offset="0.5738" style="stop-color:#4D4D4D"/>
			<stop  offset="0.6212" style="stop-color:#3E3E3E"/>
			<stop  offset="0.6728" style="stop-color:#262626"/>
			<stop  offset="0.7269" style="stop-color:#050505"/>
			<stop  offset="0.7334" style="stop-color:#000000"/>
			<stop  offset="0.7508" style="stop-color:#101010"/>
			<stop  offset="0.7896" style="stop-color:#2D2D2D"/>
			<stop  offset="0.8282" style="stop-color:#414141"/>
			<stop  offset="0.8661" style="stop-color:#4E4E4E"/>
			<stop  offset="0.9026" style="stop-color:#525252"/>
		</linearGradient>
		<path fill="url(#SVGID_32_)" d="M661.856,386.601c0.477,1.867-0.649,3.769-2.518,4.245l-47.327,12.095
			c-1.867,0.477-3.767-0.649-4.244-2.516l0,0c-0.477-1.868,0.649-3.768,2.517-4.245l47.328-12.095
			C659.479,383.607,661.379,384.734,661.856,386.601L661.856,386.601z"/>
		
			<linearGradient id="SVGID_33_" gradientUnits="userSpaceOnUse" x1="607.1201" y1="470.3398" x2="607.1201" y2="463.3613" gradientTransform="matrix(0.9689 -0.2476 0.2476 0.9689 -65.8877 103.2612)">
			<stop  offset="0.133" style="stop-color:#BBC2C2"/>
			<stop  offset="0.5342" style="stop-color:#525252"/>
			<stop  offset="0.5738" style="stop-color:#4D4D4D"/>
			<stop  offset="0.6212" style="stop-color:#3E3E3E"/>
			<stop  offset="0.6728" style="stop-color:#262626"/>
			<stop  offset="0.7269" style="stop-color:#050505"/>
			<stop  offset="0.7334" style="stop-color:#000000"/>
			<stop  offset="0.7508" style="stop-color:#101010"/>
			<stop  offset="0.7896" style="stop-color:#2D2D2D"/>
			<stop  offset="0.8282" style="stop-color:#414141"/>
			<stop  offset="0.8661" style="stop-color:#4E4E4E"/>
			<stop  offset="0.9026" style="stop-color:#525252"/>
		</linearGradient>
		<path fill="url(#SVGID_33_)" d="M664.965,398.341c0.478,1.866-0.649,3.766-2.516,4.243L615.12,414.68
			c-1.866,0.477-3.767-0.65-4.244-2.517l0,0c-0.477-1.867,0.649-3.768,2.518-4.244l47.327-12.096
			C662.588,395.347,664.487,396.474,664.965,398.341L664.965,398.341z"/>
		
			<linearGradient id="SVGID_34_" gradientUnits="userSpaceOnUse" x1="606.6143" y1="482.6221" x2="606.6143" y2="475.6426" gradientTransform="matrix(0.9689 -0.2476 0.2476 0.9689 -65.8877 103.2612)">
			<stop  offset="0.133" style="stop-color:#BBC2C2"/>
			<stop  offset="0.5342" style="stop-color:#525252"/>
			<stop  offset="0.5738" style="stop-color:#4D4D4D"/>
			<stop  offset="0.6212" style="stop-color:#3E3E3E"/>
			<stop  offset="0.6728" style="stop-color:#262626"/>
			<stop  offset="0.7269" style="stop-color:#050505"/>
			<stop  offset="0.7334" style="stop-color:#000000"/>
			<stop  offset="0.7508" style="stop-color:#101010"/>
			<stop  offset="0.7896" style="stop-color:#2D2D2D"/>
			<stop  offset="0.8282" style="stop-color:#414141"/>
			<stop  offset="0.8661" style="stop-color:#4E4E4E"/>
			<stop  offset="0.9026" style="stop-color:#525252"/>
		</linearGradient>
		<path fill="url(#SVGID_34_)" d="M667.515,410.364c0.478,1.867-0.649,3.768-2.516,4.244l-47.329,12.096
			c-1.866,0.478-3.767-0.649-4.243-2.518l0,0c-0.478-1.866,0.648-3.766,2.516-4.243l47.328-12.096
			C665.138,407.371,667.037,408.498,667.515,410.364L667.515,410.364z"/>
	</g>
</g>
</svg>
