<?xml version="1.0" encoding="utf-8"?>
<!-- Generator: Adobe Illustrator 16.0.0, SVG Export Plug-In . SVG Version: 6.00 Build 0)  -->
<!DOCTYPE svg PUBLIC "-//W3C//DTD SVG 1.1//EN" "http://www.w3.org/Graphics/SVG/1.1/DTD/svg11.dtd">
<svg version="1.1" xmlns="http://www.w3.org/2000/svg" xmlns:xlink="http://www.w3.org/1999/xlink" x="0px" y="0px" width="768px"
	 height="768px" viewBox="0 0 768 768" enable-background="new 0 0 768 768" xml:space="preserve">
<g id="Layer_9">
	<rect fill="#D6A11E" width="768" height="768"/>
</g>
<g id="Layer_3">
	<radialGradient id="SVGID_1_" cx="380.8955" cy="401.2031" r="532.4561" gradientUnits="userSpaceOnUse">
		<stop  offset="0" style="stop-color:#FFFFFF"/>
		<stop  offset="0.8446" style="stop-color:#FFFFFF;stop-opacity:0"/>
	</radialGradient>
	<path opacity="0.5" fill="url(#SVGID_1_)" d="M909.404,406.402l2.15,0.03l-43.312-195.31L403.699,386.442
		c-1.708-3.314-3.931-6.317-6.568-8.902l384.791-326.88L620.711-67.802l-0.838,1.565l-1.872-1.369l-232.556,437.6
		c-3.058-1.19-6.326-1.957-9.735-2.232l42.126-297.917l29.37-200.921l-0.972,0.085l0.291-2.053l-199.201,18.458l17.146,71.6
		l96.773,412.634c-1.225,0.438-2.419,0.94-3.577,1.507L135.743-82.79l-154.6,126.973L347.314,378.91
		c-1.835,2.006-3.434,4.229-4.76,6.625l-453.559-206.827l-38.759,196.264l488.044,25.562c-0.029,0.582-0.044,1.166-0.044,1.754
		c0,2.58,0.291,5.092,0.826,7.512l-486.392,116.201l90.13,178.599l402.514-281.333c2.391,3.137,5.305,5.852,8.612,8.019
		l-79.323,114.173L64.574,840.968l3.686,1.494l-2.262,3.256l186.201,73.148l60.391-255.974l55.937-226.238
		c1.43,0.181,2.882,0.283,4.361,0.283c3.856,0,7.561-0.639,11.025-1.803l63.991,500.315l187.224-70.487L395.27,428.729
		c1.827-1.547,3.49-3.282,4.963-5.173L771.2,760.729l96.761-175.097L406.487,410.771c0.684-2.715,1.05-5.556,1.05-8.482
		c0-0.443-0.017-0.882-0.033-1.32l502.276,7.126L909.404,406.402z"/>
</g>
<g id="Layer_8">
	<g>
		<defs>
			<rect id="SVGID_2_" width="768" height="768"/>
		</defs>
		<clipPath id="SVGID_3_">
			<use xlink:href="#SVGID_2_"  overflow="visible"/>
		</clipPath>
		<path clip-path="url(#SVGID_3_)" fill="#261F1E" d="M98.718,457.867c0,0-102.186,28.157-114.578,151.579
			S-27.816,768.53-68.034,791.46s4.348,13.471,4.348,13.471s56.521-5.367,64.13-184.367c0,0,5.576-99.541,94.636-138.728"/>
	</g>
	<g>
		<linearGradient id="SVGID_4_" gradientUnits="userSpaceOnUse" x1="256.3286" y1="296.627" x2="490.0254" y2="296.627">
			<stop  offset="0" style="stop-color:#432222"/>
			<stop  offset="0.2446" style="stop-color:#422222"/>
			<stop  offset="1" style="stop-color:#592826"/>
		</linearGradient>
		<polygon fill="url(#SVGID_4_)" points="486.717,504.908 256.329,424.441 274.808,88.345 490.023,182.801 490.025,502.661 		"/>
		<polygon fill="#9E5B52" points="486.717,504.908 256.329,424.441 301.981,630.345 		"/>
		<polygon fill="#9E5B52" points="68.286,209.66 274.808,69.774 508.504,150.242 301.981,290.127 		"/>
		<polygon fill="#8C4841" points="301.981,630.345 320.46,617.854 320.459,297.994 490.023,182.801 490.025,502.661 
			508.504,490.107 508.504,150.242 301.981,290.127 		"/>
		<polygon fill="#75332D" points="301.981,630.345 68.286,549.877 68.286,209.66 301.981,290.127 		"/>
		<polygon fill="#353331" points="52.286,300.66 52.286,379.045 285.778,459.514 285.778,380.972 		"/>
		<polygon fill="#666462" points="68.286,290.127 301.981,370.595 285.778,380.972 52.286,300.66 		"/>
		<polygon fill="#141413" points="61.286,313.273 61.286,372.627 276.778,446.893 276.778,387.395 		"/>
		<g>
			<path fill="#E9F4D7" d="M64.286,355.793v-4.036l8.072,2.78v-16.145l-4.036-1.389v-4.036l4.036,1.39v-4.036l4.036,1.389v24.216
				l8.072,2.78v4.036L64.286,355.793z"/>
			<path fill="#E9F4D7" d="M88.502,360.096v-20.18l4.036,1.39v12.108l4.036,1.39v4.036l-4.036-1.39v4.036L88.502,360.096z
				 M92.538,341.306v-4.036l12.108,4.169v4.036L92.538,341.306z M92.538,365.522v-4.036l12.108,4.169v4.036L92.538,365.522z
				 M96.574,354.803v-4.036l4.036,1.39v4.036L96.574,354.803z M104.646,365.655v-12.108l-4.036-1.39v-4.036l4.036,1.39v-4.036
				l4.036,1.39v20.18L104.646,365.655z"/>
			<path fill="#E9F4D7" d="M112.718,376.506v-12.108l4.036,1.39v12.108L112.718,376.506z"/>
			<path fill="#E9F4D7" d="M120.791,371.214v-20.18l4.036,1.389v12.108l4.036,1.39v4.036l-4.036-1.39v4.036L120.791,371.214z
				 M124.827,352.423v-4.036l12.108,4.169v4.036L124.827,352.423z M124.827,376.639v-4.036l12.108,4.169v4.036L124.827,376.639z
				 M128.863,365.921v-4.036l4.036,1.39v4.036L128.863,365.921z M136.935,376.772v-12.108l-4.036-1.39v-4.036l4.036,1.39v-4.036
				l4.036,1.39v20.18L136.935,376.772z"/>
			<path fill="#E9F4D7" d="M145.007,379.552v-20.18l4.036,1.389v12.108l4.036,1.39v4.036l-4.036-1.39v4.036L145.007,379.552z
				 M149.043,360.761v-4.036l12.108,4.169v4.036L149.043,360.761z M149.043,384.978v-4.036l12.108,4.169v4.036L149.043,384.978z
				 M153.079,374.26v-4.036l4.036,1.39v4.036L153.079,374.26z M161.151,385.111v-12.108l-4.036-1.39v-4.036l4.036,1.39v-4.036
				l4.036,1.39v20.181L161.151,385.111z"/>
			<path fill="#E9F4D7" d="M169.223,387.891v-20.18l4.036,1.389v12.109l4.036,1.39v4.037l-4.036-1.391v4.037L169.223,387.891z
				 M173.259,369.1v-4.036l12.108,4.169v4.036L173.259,369.1z M173.259,393.316v-4.035l12.108,4.168v4.037L173.259,393.316z
				 M177.295,382.598v-4.036l4.036,1.39v4.036L177.295,382.598z M185.368,393.449v-12.108l-4.036-1.39v-4.036l4.036,1.39v-4.036
				l4.036,1.39v20.181L185.368,393.449z"/>
			<path fill="#E9F4D7" d="M193.44,404.302v-12.108l4.036,1.39v12.107L193.44,404.302z"/>
			<path fill="#E9F4D7" d="M201.512,399.009v-20.18l4.036,1.39v12.108l4.036,1.391v4.035l-4.036-1.39v4.036L201.512,399.009z
				 M205.548,380.218v-4.037l12.108,4.169v4.036L205.548,380.218z M205.548,404.436v-4.037l12.108,4.17v4.036L205.548,404.436z
				 M209.584,393.717v-4.037l4.036,1.391v4.036L209.584,393.717z M217.656,404.568V392.46l-4.036-1.39v-4.036l4.036,1.39v-4.037
				l4.036,1.39v20.18L217.656,404.568z"/>
			<path fill="#E9F4D7" d="M225.728,407.348v-20.18l4.036,1.389v12.108l4.036,1.39v4.035l-4.036-1.389v4.036L225.728,407.348z
				 M229.764,388.557v-4.037l12.108,4.169v4.037L229.764,388.557z M229.764,412.773v-4.036l12.108,4.169v4.036L229.764,412.773z
				 M233.8,402.055v-4.036l4.036,1.39v4.036L233.8,402.055z M241.873,412.906v-12.108l-4.036-1.39v-4.035l4.036,1.389v-4.035
				l4.036,1.389v20.181L241.873,412.906z"/>
			<path fill="#E9F4D7" d="M249.945,399.542v-4.036l4.036,1.39v4.036L249.945,399.542z M249.945,419.722v-8.072l4.036,1.391v4.036
				l12.108,4.169v-4.036l4.036,1.389v8.072L249.945,419.722z M253.981,396.896v-4.036l12.108,4.169v4.036L253.981,396.896z
				 M253.981,413.04v-4.036l4.036,1.389v4.036L253.981,413.04z M258.017,410.393v-4.036l8.072,2.78v4.036L258.017,410.393z
				 M266.089,409.137v-8.072l4.036,1.39v8.071L266.089,409.137z"/>
		</g>
		<polygon fill="#111010" points="552.156,696.941 552.154,656.707 318.458,576.24 318.458,616.474 		"/>
		<polygon fill="#383636" points="722.49,581.227 723.721,540.921 552.154,656.707 552.156,696.941 		"/>
		<polygon fill="#383636" points="721.49,580.227 722.721,539.921 551.154,655.707 551.156,695.941 		"/>
		<path fill="#383636" d="M573.691,683.959c0,11.043-8.951,16.911-19.994,13.109s-19.994-15.837-19.994-26.88
			c0-11.042,8.951-16.911,19.994-13.109S573.691,672.916,573.691,683.959z"/>
		<path fill="#383636" d="M743.715,566.958c0,11.043-8.951,16.911-19.994,13.109s-19.994-15.837-19.994-26.88
			c0-11.042,8.951-16.911,19.994-13.109S743.715,555.915,743.715,566.958z"/>
		<polygon fill="#383636" points="566.281,696.941 740.883,576.24 723.721,560.073 553.697,677.074 		"/>
		<path fill="#999898" d="M570.609,682.897c0,9.341-7.572,14.305-16.912,11.089s-16.912-13.396-16.912-22.736
			c0-9.34,7.572-14.305,16.912-11.089S570.609,673.557,570.609,682.897z"/>
		<path fill="#999898" d="M476.502,651.223c0,9.341-7.57,14.305-16.912,11.089c-9.34-3.216-16.912-13.396-16.912-22.736
			c0-9.34,7.572-14.305,16.912-11.089C468.932,631.702,476.502,641.882,476.502,651.223z"/>
		<path fill="#999898" d="M388.111,620.297c0,9.341-7.572,14.305-16.913,11.089c-9.34-3.216-16.912-13.396-16.912-22.736
			c0-9.34,7.572-14.305,16.912-11.089C380.54,600.776,388.111,610.956,388.111,620.297z"/>
		<linearGradient id="SVGID_5_" gradientUnits="userSpaceOnUse" x1="342.0488" y1="379.54" x2="613.5757" y2="651.067">
			<stop  offset="0.5008" style="stop-color:#2B2825"/>
			<stop  offset="0.5642" style="stop-color:#312F2D"/>
			<stop  offset="0.6795" style="stop-color:#373434"/>
			<stop  offset="1" style="stop-color:#383636"/>
		</linearGradient>
		<polygon fill="url(#SVGID_5_)" points="320.46,401.128 723.721,540.921 552.154,656.707 318.458,576.24 		"/>
		<polygon fill="#FFFFFF" points="157.372,484.49 269.407,408.604 396.184,452.257 284.149,528.144 		"/>
		<polygon fill="#FFFFFF" points="306.662,535.399 418.697,459.514 545.475,503.166 433.439,579.053 		"/>
		<polygon fill="#FFFFFF" points="454.285,587.167 566.32,511.281 693.098,554.934 581.062,630.82 		"/>
		<polygon fill="#FFFFFF" points="306.662,535.399 418.697,459.514 545.475,503.166 433.439,579.053 		"/>
		<g opacity="0.5">
			<path fill="#EDE7E6" d="M102.417,247.039l10.405,3.582l7.25,25.678l7.157-20.717l10.103,3.479l-11.961,28.094l-10.789-3.715
				L102.417,247.039z"/>
			<path fill="#EDE7E6" d="M137.793,275.347c0-5.259,1.465-8.849,4.395-10.77s7.01-1.98,12.239-0.18
				c5.361,1.846,9.492,4.707,12.393,8.584s4.351,8.408,4.351,13.594c0,3.766-0.634,6.635-1.9,8.607
				c-1.268,1.974-3.099,3.218-5.493,3.734c-2.396,0.515-5.38,0.157-8.954-1.073c-3.633-1.251-6.64-2.865-9.02-4.842
				c-2.381-1.977-4.311-4.473-5.79-7.486C138.534,282.501,137.793,279.112,137.793,275.347z M147.748,278.819
				c0,3.252,0.604,5.796,1.812,7.633c1.209,1.837,2.853,3.114,4.933,3.83c2.139,0.736,3.794,0.61,4.967-0.377
				c1.171-0.989,1.758-3.284,1.758-6.888c0-3.032-0.612-5.458-1.835-7.278c-1.224-1.82-2.883-3.091-4.978-3.812
				c-2.007-0.69-3.618-0.535-4.834,0.467C148.355,273.396,147.748,275.538,147.748,278.819z"/>
			<path fill="#EDE7E6" d="M173.105,271.378l30.256,10.418v7.953l-10.151-3.495v24.258l-9.954-3.427v-24.258l-10.15-3.496V271.378z"
				/>
			<path fill="#EDE7E6" d="M207.841,283.338l26.676,9.186v6.878l-16.699-5.75v5.119l15.49,5.334v6.569l-15.49-5.333v6.35
				L235,317.607v7.295l-27.158-9.352V283.338z"/>
			<path fill="#EDE7E6" d="M238.626,315.494l9.47,2.668c0.205,1.608,0.622,2.924,1.253,3.947c1.024,1.656,2.489,2.812,4.395,3.469
				c1.42,0.488,2.516,0.533,3.284,0.131c0.77-0.401,1.153-1.042,1.153-1.921c0-0.835-0.366-1.708-1.098-2.619
				c-0.733-0.912-2.433-2.12-5.098-3.623c-4.366-2.485-7.479-4.86-9.339-7.127c-1.875-2.271-2.812-4.667-2.812-7.187
				c0-1.655,0.479-3.054,1.439-4.196c0.959-1.142,2.402-1.802,4.328-1.981c1.927-0.178,4.566,0.31,7.921,1.465
				c4.116,1.417,7.255,3.264,9.416,5.538c2.16,2.274,3.445,5.152,3.855,8.634l-9.382-2.682c-0.249-1.535-0.772-2.771-1.571-3.705
				c-0.798-0.934-1.9-1.643-3.307-2.127c-1.157-0.398-2.029-0.453-2.615-0.164s-0.879,0.784-0.879,1.487
				c0,0.513,0.242,1.058,0.726,1.634c0.469,0.587,1.582,1.365,3.34,2.337c4.351,2.436,7.467,4.458,9.35,6.065
				c1.882,1.607,3.252,3.27,4.108,4.984c0.857,1.717,1.285,3.453,1.285,5.211c0,2.065-0.57,3.773-1.713,5.123
				s-2.74,2.121-4.791,2.316c-2.051,0.194-4.636-0.245-7.756-1.319c-5.479-1.886-9.272-4.247-11.382-7.083
				S238.904,318.841,238.626,315.494z"/>
		</g>
		<polygon fill="#9B9797" points="429.834,539.036 439.488,543.206 503.348,499.194 493.395,495.36 		"/>
		<polygon fill="#9B9797" points="389.311,524.662 398.965,528.832 462.826,484.82 452.871,480.986 		"/>
		<g>
			<path fill="#D6D4D4" d="M394.1,518.79c10.168,3.166,13.146,11.521,6.648,18.663c-6.496,7.14-20.006,10.359-30.176,7.192
				c-10.169-3.167-13.146-11.522-6.651-18.662C370.418,518.842,383.929,515.622,394.1,518.79z"/>
			<polygon fill="#309E3A" points="355.155,545.955 361.895,532.192 386.363,530.351 353.634,507.058 397.666,510.291 
				401.883,536.056 			"/>
			<path fill="#D6D4D4" d="M442.082,533.226c10.17,3.167,13.146,11.522,6.65,18.663s-20.008,10.36-30.178,7.193
				c-10.168-3.167-13.146-11.523-6.65-18.662C418.402,533.279,431.912,530.059,442.082,533.226z"/>
			<polygon fill="#B71515" points="406.598,560.315 401.201,549.8 456.939,538.134 458.646,543.714 			"/>
			<polygon fill="#B71515" points="432.188,568.285 423.219,532.681 431.602,530.242 446.037,558.614 			"/>
		</g>
		<polygon fill="#FFFFFF" points="454.285,587.167 566.32,511.281 693.098,554.934 581.062,630.82 		"/>
		<polygon fill="#9B9797" points="577.457,590.804 587.111,594.974 650.971,550.962 641.018,547.128 		"/>
		<polygon fill="#9B9797" points="536.934,576.43 546.588,580.6 610.449,536.588 600.494,532.754 		"/>
		<g>
			<path fill="#D6D4D4" d="M541.723,570.558c10.168,3.166,13.146,11.521,6.648,18.663c-6.496,7.14-20.006,10.359-30.176,7.192
				s-13.146-11.522-6.652-18.662C518.041,570.609,531.553,567.39,541.723,570.558z"/>
			<polygon fill="#309E3A" points="502.777,597.723 509.518,583.96 533.986,582.118 501.256,558.825 545.289,562.059 
				549.506,587.823 			"/>
			<path fill="#D6D4D4" d="M589.705,584.993c10.17,3.167,13.146,11.522,6.65,18.663s-20.008,10.36-30.178,7.193
				c-10.168-3.167-13.146-11.523-6.65-18.662C566.025,585.047,579.535,581.826,589.705,584.993z"/>
			<polygon fill="#B71515" points="554.221,612.083 548.824,601.567 604.562,589.901 606.27,595.481 			"/>
			<polygon fill="#B71515" points="579.811,620.053 570.842,584.448 579.225,582.01 593.66,610.382 			"/>
		</g>
		<polygon fill="#FFFFFF" points="157.372,484.49 269.407,408.604 396.184,452.257 284.149,528.144 		"/>
		<polygon fill="#9B9797" points="280.543,488.127 290.198,492.297 354.058,448.285 344.104,444.451 		"/>
		<polygon fill="#9B9797" points="240.021,473.753 249.675,477.923 313.536,433.911 303.582,430.077 		"/>
		<g>
			<path fill="#D6D4D4" d="M244.809,467.881c10.169,3.166,13.146,11.521,6.649,18.663c-6.496,7.14-20.007,10.359-30.177,7.192
				c-10.169-3.167-13.146-11.522-6.651-18.662C221.128,467.933,234.639,464.713,244.809,467.881z"/>
			<polygon fill="#309E3A" points="205.865,495.046 212.604,481.283 237.073,479.441 204.344,456.148 248.376,459.382 
				252.592,485.146 			"/>
			<path fill="#D6D4D4" d="M292.792,482.316c10.17,3.167,13.147,11.522,6.65,18.663c-6.496,7.141-20.007,10.36-30.178,7.193
				c-10.168-3.167-13.146-11.523-6.649-18.662C269.113,482.37,282.622,479.149,292.792,482.316z"/>
			<polygon fill="#B71515" points="257.308,509.406 251.912,498.891 307.649,487.225 309.356,492.805 			"/>
			<polygon fill="#B71515" points="282.897,517.376 273.928,481.771 282.311,479.333 296.747,507.705 			"/>
		</g>
		<polygon fill="#75332D" points="301.981,630.345 68.286,549.877 68.286,209.66 301.981,290.127 		"/>
		<radialGradient id="SVGID_6_" cx="285.0879" cy="54.1694" r="145.7537" gradientUnits="userSpaceOnUse">
			<stop  offset="0" style="stop-color:#B18575"/>
			<stop  offset="1" style="stop-color:#9E5B52"/>
		</radialGradient>
		<polygon fill="url(#SVGID_6_)" points="68.286,209.66 274.808,69.774 508.504,150.242 301.981,290.127 		"/>
		<polygon fill="#353331" points="52.286,300.66 52.286,379.045 285.778,459.514 285.778,380.972 		"/>
		<polygon fill="#666462" points="68.286,290.127 301.981,370.595 285.778,380.972 52.286,300.66 		"/>
		<polygon fill="#141413" points="61.286,313.273 61.286,372.627 276.778,446.893 276.778,387.395 		"/>
		<g>
			<path fill="#E9F4D7" d="M64.286,355.793v-4.036l8.072,2.78v-16.145l-4.036-1.389v-4.036l4.036,1.39v-4.036l4.036,1.389v24.216
				l8.072,2.78v4.036L64.286,355.793z"/>
			<path fill="#E9F4D7" d="M88.502,360.096v-20.18l4.036,1.39v12.108l4.036,1.39v4.036l-4.036-1.39v4.036L88.502,360.096z
				 M92.538,341.306v-4.036l12.108,4.169v4.036L92.538,341.306z M92.538,365.522v-4.036l12.108,4.169v4.036L92.538,365.522z
				 M96.574,354.803v-4.036l4.036,1.39v4.036L96.574,354.803z M104.646,365.655v-12.108l-4.036-1.39v-4.036l4.036,1.39v-4.036
				l4.036,1.39v20.18L104.646,365.655z"/>
			<path fill="#E9F4D7" d="M112.718,376.506v-12.108l4.036,1.39v12.108L112.718,376.506z"/>
			<path fill="#E9F4D7" d="M120.791,371.214v-20.18l4.036,1.389v12.108l4.036,1.39v4.036l-4.036-1.39v4.036L120.791,371.214z
				 M124.827,352.423v-4.036l12.108,4.169v4.036L124.827,352.423z M124.827,376.639v-4.036l12.108,4.169v4.036L124.827,376.639z
				 M128.863,365.921v-4.036l4.036,1.39v4.036L128.863,365.921z M136.935,376.772v-12.108l-4.036-1.39v-4.036l4.036,1.39v-4.036
				l4.036,1.39v20.18L136.935,376.772z"/>
			<path fill="#E9F4D7" d="M145.007,379.552v-20.18l4.036,1.389v12.108l4.036,1.39v4.036l-4.036-1.39v4.036L145.007,379.552z
				 M149.043,360.761v-4.036l12.108,4.169v4.036L149.043,360.761z M149.043,384.978v-4.036l12.108,4.169v4.036L149.043,384.978z
				 M153.079,374.26v-4.036l4.036,1.39v4.036L153.079,374.26z M161.151,385.111v-12.108l-4.036-1.39v-4.036l4.036,1.39v-4.036
				l4.036,1.39v20.181L161.151,385.111z"/>
			<path fill="#E9F4D7" d="M169.223,387.891v-20.18l4.036,1.389v12.109l4.036,1.39v4.037l-4.036-1.391v4.037L169.223,387.891z
				 M173.259,369.1v-4.036l12.108,4.169v4.036L173.259,369.1z M173.259,393.316v-4.035l12.108,4.168v4.037L173.259,393.316z
				 M177.295,382.598v-4.036l4.036,1.39v4.036L177.295,382.598z M185.368,393.449v-12.108l-4.036-1.39v-4.036l4.036,1.39v-4.036
				l4.036,1.39v20.181L185.368,393.449z"/>
			<path fill="#E9F4D7" d="M193.44,404.302v-12.108l4.036,1.39v12.107L193.44,404.302z"/>
			<path fill="#E9F4D7" d="M201.512,399.009v-20.18l4.036,1.39v12.108l4.036,1.391v4.035l-4.036-1.39v4.036L201.512,399.009z
				 M205.548,380.218v-4.037l12.108,4.169v4.036L205.548,380.218z M205.548,404.436v-4.037l12.108,4.17v4.036L205.548,404.436z
				 M209.584,393.717v-4.037l4.036,1.391v4.036L209.584,393.717z M217.656,404.568V392.46l-4.036-1.39v-4.036l4.036,1.39v-4.037
				l4.036,1.39v20.18L217.656,404.568z"/>
			<path fill="#E9F4D7" d="M225.728,407.348v-20.18l4.036,1.389v12.108l4.036,1.39v4.035l-4.036-1.389v4.036L225.728,407.348z
				 M229.764,388.557v-4.037l12.108,4.169v4.037L229.764,388.557z M229.764,412.773v-4.036l12.108,4.169v4.036L229.764,412.773z
				 M233.8,402.055v-4.036l4.036,1.39v4.036L233.8,402.055z M241.873,412.906v-12.108l-4.036-1.39v-4.035l4.036,1.389v-4.035
				l4.036,1.389v20.181L241.873,412.906z"/>
			<path fill="#E9F4D7" d="M249.945,399.542v-4.036l4.036,1.39v4.036L249.945,399.542z M249.945,419.722v-8.072l4.036,1.391v4.036
				l12.108,4.169v-4.036l4.036,1.389v8.072L249.945,419.722z M253.981,396.896v-4.036l12.108,4.169v4.036L253.981,396.896z
				 M253.981,413.04v-4.036l4.036,1.389v4.036L253.981,413.04z M258.017,410.393v-4.036l8.072,2.78v4.036L258.017,410.393z
				 M266.089,409.137v-8.072l4.036,1.39v8.071L266.089,409.137z"/>
		</g>
		<g opacity="0.8">
			<g>
				<path fill="#EDE7E6" d="M102.417,247.039l10.405,3.582l7.25,25.678l7.157-20.717l10.103,3.479l-11.961,28.094l-10.789-3.715
					L102.417,247.039z"/>
				<path fill="#2B2825" d="M128.147,293.397l-7.768-2.674L119.593,293l-0.797-2.822l-8.174-2.814l-16.159-48.351l22.46,7.732
					l3.629,12.853l3.583-10.369l19.9,6.852L128.147,293.397z M130.325,261.935l-1.503,4.351l1.808-4.246L130.325,261.935z"/>
			</g>
			<g>
				<path fill="#EDE7E6" d="M137.793,275.347c0-5.259,1.465-8.849,4.395-10.77s7.01-1.98,12.239-0.18
					c5.361,1.846,9.492,4.707,12.393,8.584s4.351,8.408,4.351,13.594c0,3.766-0.634,6.635-1.9,8.607
					c-1.268,1.974-3.099,3.218-5.493,3.734c-2.396,0.515-5.38,0.157-8.954-1.073c-3.633-1.251-6.64-2.865-9.02-4.842
					c-2.381-1.977-4.311-4.473-5.79-7.486C138.534,282.501,137.793,279.112,137.793,275.347z M147.748,278.819
					c0,3.252,0.604,5.796,1.812,7.633c1.209,1.837,2.853,3.114,4.933,3.83c2.139,0.736,3.794,0.61,4.967-0.377
					c1.171-0.989,1.758-3.284,1.758-6.888c0-3.032-0.612-5.458-1.835-7.278c-1.224-1.82-2.883-3.091-4.978-3.812
					c-2.007-0.69-3.618-0.535-4.834,0.467C148.355,273.396,147.748,275.538,147.748,278.819z"/>
				<path fill="#2B2825" d="M161.503,304.145c-2.515,0-5.232-0.515-8.308-1.573c-4.189-1.442-7.751-3.368-10.586-5.723
					c-2.914-2.419-5.298-5.491-7.084-9.129c-1.812-3.693-2.731-7.856-2.731-12.373c0-7.026,2.238-12.057,6.653-14.951
					c4.241-2.781,9.841-3.057,16.609-0.726c6.301,2.169,11.27,5.64,14.768,10.316c3.548,4.743,5.347,10.324,5.347,16.589
					c0,4.788-0.881,8.487-2.693,11.309c-1.978,3.08-4.968,5.126-8.646,5.92C163.779,304.031,162.661,304.145,161.503,304.145z
					 M166.138,285.374c-0.218,2.937-0.983,6.265-3.452,8.351c-0.162,0.136-0.327,0.265-0.497,0.388
					c0.19-0.02,0.369-0.047,0.537-0.083c1.091-0.235,1.791-0.698,2.336-1.548c0.414-0.644,1.107-2.268,1.107-5.905
					C166.17,286.168,166.16,285.768,166.138,285.374z M152.89,276.694c-0.076,0.465-0.143,1.15-0.143,2.125
					c0,2.793,0.539,4.199,0.99,4.886c0.586,0.891,1.328,1.475,2.327,1.83c0.082-0.551,0.152-1.362,0.152-2.518
					c0-1.978-0.341-3.53-0.986-4.49C154.641,277.648,153.895,277.063,152.89,276.694z M146.932,268.122
					c-0.807,0.075-1.466,0.285-2.002,0.637c-1.766,1.158-2.136,4.222-2.136,6.588c0,0.453,0.013,0.897,0.038,1.332
					c0.31-3.755,1.482-6.431,3.558-8.143C146.566,268.391,146.747,268.252,146.932,268.122z M152.146,271.503v5l0,0V271.503z"/>
			</g>
			<g>
				<path fill="#EDE7E6" d="M173.105,271.378l30.256,10.418v7.953l-10.151-3.495v24.258l-9.954-3.427v-24.258l-10.15-3.496V271.378z
					"/>
				<polygon fill="#2B2825" points="198.209,317.521 178.255,310.652 178.255,286.394 168.105,282.897 168.105,264.369 
					208.361,278.23 208.361,296.759 198.209,293.264 				"/>
			</g>
			<g>
				<path fill="#EDE7E6" d="M207.841,283.338l26.676,9.186v6.878l-16.699-5.75v5.119l15.49,5.334v6.569l-15.49-5.333v6.35
					L235,317.607v7.295l-27.158-9.352V283.338z"/>
				<polygon fill="#2B2825" points="240,331.912 202.841,319.117 202.841,276.329 239.517,288.958 239.517,306.412 238.308,305.995 
					238.308,313.458 240,314.041 				"/>
			</g>
			<g>
				<path fill="#EDE7E6" d="M238.626,315.494l9.47,2.668c0.205,1.608,0.622,2.924,1.253,3.947c1.024,1.656,2.489,2.812,4.395,3.469
					c1.42,0.488,2.516,0.533,3.284,0.131c0.77-0.401,1.153-1.042,1.153-1.921c0-0.835-0.366-1.708-1.098-2.619
					c-0.733-0.912-2.433-2.12-5.098-3.623c-4.366-2.485-7.479-4.86-9.339-7.127c-1.875-2.271-2.812-4.667-2.812-7.187
					c0-1.655,0.479-3.054,1.439-4.196c0.959-1.142,2.402-1.802,4.328-1.981c1.927-0.178,4.566,0.31,7.921,1.465
					c4.116,1.417,7.255,3.264,9.416,5.538c2.16,2.274,3.445,5.152,3.855,8.634l-9.382-2.682c-0.249-1.535-0.772-2.771-1.571-3.705
					c-0.798-0.934-1.9-1.643-3.307-2.127c-1.157-0.398-2.029-0.453-2.615-0.164s-0.879,0.784-0.879,1.487
					c0,0.513,0.242,1.058,0.726,1.634c0.469,0.587,1.582,1.365,3.34,2.337c4.351,2.436,7.467,4.458,9.35,6.065
					c1.882,1.607,3.252,3.27,4.108,4.984c0.857,1.717,1.285,3.453,1.285,5.211c0,2.065-0.57,3.773-1.713,5.123
					s-2.74,2.121-4.791,2.316c-2.051,0.194-4.636-0.245-7.756-1.319c-5.479-1.886-9.272-4.247-11.382-7.083
					S238.904,318.841,238.626,315.494z"/>
				<path fill="#2B2825" d="M260.364,338.216c-2.456,0-5.205-0.536-8.403-1.637c-6.513-2.242-11.016-5.129-13.766-8.827
					c-2.667-3.584-4.198-7.57-4.552-11.847l-0.595-7.179l3.209,0.904c-0.946-2.042-1.424-4.183-1.424-6.4
					c0-2.816,0.903-5.379,2.611-7.413c1.258-1.498,3.614-3.363,7.692-3.744c2.633-0.242,5.914,0.304,10.013,1.716
					c4.862,1.674,8.702,3.969,11.413,6.821c2.911,3.065,4.659,6.932,5.197,11.493l0.878,7.456l-1.164-0.333
					c0.913,2.116,1.374,4.299,1.374,6.503c0,3.272-0.975,6.083-2.897,8.354c-1.981,2.34-4.793,3.745-8.133,4.063
					C261.348,338.193,260.859,338.216,260.364,338.216z M262.842,326.013c-0.222,0.702-0.55,1.357-0.973,1.949
					c0.27-0.123,0.385-0.259,0.451-0.337C262.454,327.467,262.791,327.068,262.842,326.013z"/>
			</g>
		</g>
		<g>
			<polygon fill="#8C4841" points="508.504,150.242 301.981,290.127 301.981,630.345 320.46,617.854 320.459,297.994 
				490.023,182.801 490.023,219.903 508.504,208.073 			"/>
		</g>
		<polygon fill="#565452" points="301.981,448.506 285.778,459.514 285.778,380.972 301.981,370.595 		"/>
	</g>
	<g>
		<path fill="#EDE7E6" d="M102.417,247.039l10.405,3.582l7.25,25.678l7.157-20.717l10.103,3.479l-11.961,28.094l-10.789-3.715
			L102.417,247.039z"/>
		<path fill="#EDE7E6" d="M137.793,275.347c0-5.259,1.465-8.849,4.395-10.77s7.01-1.98,12.239-0.18
			c5.361,1.846,9.492,4.707,12.393,8.584s4.351,8.408,4.351,13.594c0,3.766-0.634,6.635-1.9,8.607
			c-1.268,1.974-3.099,3.218-5.493,3.734c-2.396,0.515-5.38,0.157-8.954-1.073c-3.633-1.251-6.64-2.865-9.02-4.842
			c-2.381-1.977-4.311-4.473-5.79-7.486C138.534,282.501,137.793,279.112,137.793,275.347z M147.748,278.819
			c0,3.252,0.604,5.796,1.812,7.633c1.209,1.837,2.853,3.114,4.933,3.83c2.139,0.736,3.794,0.61,4.967-0.377
			c1.171-0.989,1.758-3.284,1.758-6.888c0-3.032-0.612-5.458-1.835-7.278c-1.224-1.82-2.883-3.091-4.978-3.812
			c-2.007-0.69-3.618-0.535-4.834,0.467C148.355,273.396,147.748,275.538,147.748,278.819z"/>
		<path fill="#EDE7E6" d="M173.105,271.378l30.256,10.418v7.953l-10.151-3.495v24.258l-9.954-3.427v-24.258l-10.15-3.496V271.378z"
			/>
		<path fill="#EDE7E6" d="M207.841,283.338l26.676,9.186v6.878l-16.699-5.75v5.119l15.49,5.334v6.569l-15.49-5.333v6.35L235,317.607
			v7.295l-27.158-9.352V283.338z"/>
		<path fill="#EDE7E6" d="M238.626,315.494l9.47,2.668c0.205,1.608,0.622,2.924,1.253,3.947c1.024,1.656,2.489,2.812,4.395,3.469
			c1.42,0.488,2.516,0.533,3.284,0.131c0.77-0.401,1.153-1.042,1.153-1.921c0-0.835-0.366-1.708-1.098-2.619
			c-0.733-0.912-2.433-2.12-5.098-3.623c-4.366-2.485-7.479-4.86-9.339-7.127c-1.875-2.271-2.812-4.667-2.812-7.187
			c0-1.655,0.479-3.054,1.439-4.196c0.959-1.142,2.402-1.802,4.328-1.981c1.927-0.178,4.566,0.31,7.921,1.465
			c4.116,1.417,7.255,3.264,9.416,5.538c2.16,2.274,3.445,5.152,3.855,8.634l-9.382-2.682c-0.249-1.535-0.772-2.771-1.571-3.705
			c-0.798-0.934-1.9-1.643-3.307-2.127c-1.157-0.398-2.029-0.453-2.615-0.164s-0.879,0.784-0.879,1.487
			c0,0.513,0.242,1.058,0.726,1.634c0.469,0.587,1.582,1.365,3.34,2.337c4.351,2.436,7.467,4.458,9.35,6.065
			c1.882,1.607,3.252,3.27,4.108,4.984c0.857,1.717,1.285,3.453,1.285,5.211c0,2.065-0.57,3.773-1.713,5.123
			s-2.74,2.121-4.791,2.316c-2.051,0.194-4.636-0.245-7.756-1.319c-5.479-1.886-9.272-4.247-11.382-7.083
			S238.904,318.841,238.626,315.494z"/>
	</g>
</g>
</svg>
