<?xml version="1.0" encoding="utf-8"?>
<!-- Generator: Adobe Illustrator 16.0.0, SVG Export Plug-In . SVG Version: 6.00 Build 0)  -->
<!DOCTYPE svg PUBLIC "-//W3C//DTD SVG 1.1//EN" "http://www.w3.org/Graphics/SVG/1.1/DTD/svg11.dtd">
<svg version="1.1" xmlns="http://www.w3.org/2000/svg" xmlns:xlink="http://www.w3.org/1999/xlink" x="0px" y="0px" width="768px"
	 height="768px" viewBox="0 0 768 768" enable-background="new 0 0 768 768" xml:space="preserve">
<g id="hands">
</g>
<g id="suit">
	<path fill="#1E1D23" d="M262.495,733.969c0,17.139-12.406,31.031-27.709,31.031l0,0c-15.303,0-27.708-13.893-27.708-31.031v-6.99
		c0-17.139,12.406-31.031,27.708-31.031l0,0c15.303,0,27.709,13.893,27.709,31.031V733.969z"/>
	<linearGradient id="SVGID_1_" gradientUnits="userSpaceOnUse" x1="211.2695" y1="628.0312" x2="258.0889" y2="628.0312">
		<stop  offset="0" style="stop-color:#EDC1A3"/>
		<stop  offset="0.4434" style="stop-color:#EDC4A6"/>
		<stop  offset="0.7609" style="stop-color:#EDCDAF"/>
	</linearGradient>
	<path fill="url(#SVGID_1_)" d="M258.089,720.196c0,12.93-10.481,23.41-23.41,23.41l0,0c-12.929,0-23.41-10.48-23.41-23.41v-184.33
		c0-12.93,10.48-23.41,23.41-23.41l0,0c12.929,0,23.41,10.48,23.41,23.41V720.196z"/>
	<path d="M282.147,751.355c0,7.318,8.053,13.251,17.989,13.251h30.324c9.935,0,17.988-5.933,17.988-13.251v-20.614
		c0-7.32-8.054-13.253-17.988-13.253h-30.324c-9.936,0-17.989,5.933-17.989,13.253V751.355z"/>
	<path fill="#1E1D23" d="M378.389,601.193c0,25.981-27.311,25.757-61,25.757h-72.512c-33.689,0-61,0.225-61-25.757V478.505
		c0-25.982,27.311-47.044,61-47.044h72.512c33.689,0,61,21.062,61,47.044V601.193z"/>
</g>
<g id="Layer_8">
	<path fill="#2D394C" d="M426.253,349.06c2.687,5.304-6.29,14.116-20.043,19.682l-5.387,2.18
		c-13.753,5.565-27.085,5.778-29.771,0.478l-58.829-116.152c-2.688-5.303,6.288-14.117,20.043-19.682l5.386-2.179
		c13.753-5.566,27.084-5.779,29.77-0.477L426.253,349.06z"/>
	<path fill="#32396B" d="M191.136,431.388c0,21.438,26.539,21.072,59.275,21.072h57.44c32.737,0,59.276,0.366,59.276-21.072
		l20.323-139.19c0-21.438-26.539-38.817-59.276-38.817h-104.86c-32.737,0-59.274,17.379-59.274,38.817L191.136,431.388z"/>
	<path fill="#32396B" d="M397.514,362.489v-91.395c0-17.044-10.955-30.86-24.469-30.86H182.199
		c-13.514,0-24.469,13.816-24.469,30.86v91.395H397.514z"/>
	<path fill="#32396B" d="M434.139,359.898c-0.641,1.971-2.756,3.047-4.727,2.405l-52.814-17.197
		c-1.969-0.641-3.046-2.756-2.405-4.727l34.36-105.525c0.641-1.969,2.758-3.046,4.727-2.405l52.814,17.197
		c1.969,0.642,3.047,2.757,2.404,4.727L434.139,359.898z"/>
	<rect x="150.95" y="-0.778" fill="none" width="358.694" height="353.261"/>
	<path opacity="0.2" fill="#191717" d="M266.649,254.854c2.3-1.85,5.075-3.085,8.014-3.725c0.77-2.368,2.291-4.614,4.598-6.479
		l15.929-12.884c6.986-5.65,18.375-5.701,25.439-0.114l19.978,15.802c7.063,5.587,7.128,14.697,0.142,20.348l-15.928,12.882
		l15.633,12.366c7.063,5.587,7.128,14.697,0.143,20.348l-61.369,49.637c-3.465,2.802-8.012,4.223-12.577,4.266V254.854z"/>
	<path opacity="0.2" fill="#191717" d="M290.566,259.61c-2.3-1.85-5.075-3.085-8.014-3.725c-0.77-2.368-2.291-4.614-4.598-6.479
		l-15.928-12.884c-6.986-5.65-18.375-5.701-25.438-0.114L216.61,252.21c-7.064,5.587-7.128,14.697-0.144,20.348l15.931,12.882
		l-15.633,12.366c-7.065,5.587-7.129,14.697-0.146,20.348l61.371,49.637c3.465,2.802,8.011,4.223,12.577,4.266V259.61z"/>
	<path fill="#AD3D34" d="M313.501,342.594c0,18.03-6.165,32.646-13.769,32.646h-43.224c-7.605,0-13.77-14.616-13.77-32.646v-72.167
		c0-18.032,6.165-32.647,13.77-32.647h43.224c7.604,0,13.769,14.615,13.769,32.647V342.594z"/>
	<path fill="#32396B" d="M345.734,342.897c2.707,14.938-7.209,29.243-22.148,31.95l-134.372,24.348
		c-14.939,2.707-29.244-7.209-31.95-22.148l0,0c-2.707-14.938,7.209-29.243,22.148-31.95l134.372-24.348
		C328.723,318.042,343.028,327.958,345.734,342.897L345.734,342.897z"/>
</g>
<g id="Layer_6">
	<path fill="#CCC26A" d="M304.765,179.604c6.056,29.625-13.05,58.55-42.675,64.607l-21.463,4.387
		c-29.625,6.057-58.55-13.049-64.606-42.674l-17.17-83.99c-6.056-29.625,13.05-58.55,42.675-64.606l21.463-4.388
		c29.625-6.056,58.55,13.049,64.606,42.675L304.765,179.604z"/>
	<path fill="#E8E07E" d="M394.236,149.973c6.289,30.767-18.218,61.761-54.741,69.227l-26.459,5.409
		c-36.522,7.466-71.228-11.422-77.518-42.189l-17.832-87.228c-6.29-30.767,18.218-61.76,54.74-69.227l26.459-5.409
		c36.522-7.467,71.228,11.422,77.518,42.189L394.236,149.973z"/>
	
		<linearGradient id="SVGID_2_" gradientUnits="userSpaceOnUse" x1="309.3647" y1="210.2603" x2="309.3647" y2="83.4097" gradientTransform="matrix(0.9797 -0.2003 0.2003 0.9797 -53.043 51.6187)">
		<stop  offset="0" style="stop-color:#EDC1A3"/>
		<stop  offset="0.4434" style="stop-color:#EDC4A6"/>
		<stop  offset="0.7609" style="stop-color:#EDCDAF"/>
	</linearGradient>
	<path fill="url(#SVGID_2_)" d="M375.568,178.592c2.916-8.788,3.669-17.992,1.8-27.136l-7.107-34.762
		c-7.205-35.246-50.361-56.19-96.392-46.78l-14.238,2.911c-46.03,9.41-77.503,45.611-70.298,80.857l7.106,34.762
		c1.87,9.144,6.175,17.313,12.306,24.252L375.568,178.592z"/>
	<linearGradient id="SVGID_3_" gradientUnits="userSpaceOnUse" x1="279.7261" y1="224.6665" x2="279.7261" y2="257.875">
		<stop  offset="0" style="stop-color:#C78C86"/>
		<stop  offset="0.0747" style="stop-color:#CD978D"/>
		<stop  offset="0.2734" style="stop-color:#DBAF9C"/>
		<stop  offset="0.4848" style="stop-color:#E5C0A7"/>
		<stop  offset="0.7151" style="stop-color:#EBCAAD"/>
		<stop  offset="1" style="stop-color:#EDCDAF"/>
	</linearGradient>
	<ellipse fill="url(#SVGID_3_)" cx="279.726" cy="241.271" rx="30.418" ry="16.604"/>
	
		<rect x="206.725" y="192.089" transform="matrix(0.9797 -0.2003 0.2003 0.9797 -32.9319 62.3758)" fill="#E55C65" width="170.167" height="3.711"/>
	<circle fill="#395360" cx="258.089" cy="166.694" r="8.778"/>
	<circle fill="#395360" cx="334.378" cy="151.097" r="8.778"/>
	<path fill="#CC8569" d="M310.024,165.118c0.817,3.998-2.618,8.077-7.673,9.11l0,0c-5.056,1.033-9.816-1.37-10.633-5.368
		l-1.58-7.729c-0.817-3.998,2.618-8.077,7.673-9.11l0,0c5.056-1.033,9.816,1.37,10.633,5.368L310.024,165.118z"/>
	<path fill="#E5998C" d="M184.168,178.409c-1.574-7.698,3.391-15.213,11.087-16.787l0,0c7.697-1.574,15.213,3.39,16.787,11.088
		l1.734,8.483c1.574,7.698-3.391,15.213-11.088,16.787l0,0c-7.697,1.573-15.212-3.391-16.786-11.088L184.168,178.409z"/>
	<linearGradient id="SVGID_4_" gradientUnits="userSpaceOnUse" x1="419.9043" y1="235.875" x2="494.1445" y2="235.875">
		<stop  offset="0" style="stop-color:#EDC1A3"/>
		<stop  offset="0.4434" style="stop-color:#EDC4A6"/>
		<stop  offset="0.7609" style="stop-color:#EDCDAF"/>
	</linearGradient>
	<path fill="url(#SVGID_4_)" d="M490.785,221.41l-8.277-10.961c-3.092-4.095-6.938-6.402-8.592-5.154l-21.795,16.462l-4.572-6.053
		c-1.248-1.653-3.6-1.981-5.252-0.733l-20.902,15.788c-1.654,1.248-1.98,3.6-0.732,5.252l5.777,7.65
		c0.33,1.882,1.469,4.318,3.252,6.679l8.279,10.961c3.092,4.096,6.938,6.402,8.592,5.154l46.83-35.372
		C495.047,229.836,493.881,225.506,490.785,221.41z"/>
	<path fill="#A08B50" d="M272.446,137.608c-0.131,2.298-2.1,4.055-4.396,3.924l-27.955-1.59c-2.297-0.131-4.054-2.099-3.923-4.397
		l0,0c0.13-2.297,2.099-4.054,4.397-3.923l27.955,1.59C270.82,133.342,272.577,135.311,272.446,137.608L272.446,137.608z"/>
	<path fill="#A08B50" d="M349.184,125.976c0.461,2.254-0.993,4.456-3.248,4.917l-27.433,5.608c-2.254,0.46-4.456-0.994-4.917-3.248
		l0,0c-0.461-2.254,0.994-4.456,3.248-4.917l27.433-5.608C346.521,122.268,348.723,123.722,349.184,125.976L349.184,125.976z"/>
	<path fill="#395360" d="M253.784,166.913c0.24,1.172-0.517,2.317-1.688,2.557l-4.245,0.868c-1.173,0.24-2.317-0.517-2.557-1.688
		l0,0c-0.24-1.172,0.517-2.317,1.689-2.557l4.245-0.868C252.4,164.984,253.544,165.741,253.784,166.913L253.784,166.913z"/>
	<path fill="#395360" d="M346.369,147.986c0.239,1.172-0.517,2.317-1.689,2.557l-4.245,0.868c-1.172,0.24-2.317-0.517-2.557-1.688
		l0,0c-0.24-1.172,0.517-2.317,1.689-2.557l4.246-0.868C344.984,146.057,346.129,146.813,346.369,147.986L346.369,147.986z"/>
	<path fill="#CCC26A" d="M162.017,109.122c-2.747-13.437,7.819-26.945,23.602-30.171l0,0c15.781-3.227,30.802,5.051,33.549,18.488
		l9.814,48.007c2.747,13.438-7.819,26.946-23.601,30.172l0,0c-15.782,3.227-30.803-5.051-33.55-18.488L162.017,109.122z"/>
	<path fill="#E55C65" d="M318.079,189.241c-2.307-3.378-7.027-5.7-12.491-5.7c-7.335,0-13.343,4.177-13.94,9.492L318.079,189.241z"
		/>
	<linearGradient id="SVGID_5_" gradientUnits="userSpaceOnUse" x1="212.5708" y1="229.208" x2="359.272" y2="229.208">
		<stop  offset="0" style="stop-color:#EDC1A3"/>
		<stop  offset="0.4434" style="stop-color:#EDC4A6"/>
		<stop  offset="0.7609" style="stop-color:#EDCDAF"/>
	</linearGradient>
	<path fill="url(#SVGID_5_)" d="M212.571,218.542c11.067,13.045,27.57,21.333,46.018,21.333h54.666
		c18.447,0,34.95-8.288,46.018-21.333H212.571z"/>
	
		<rect x="212.997" y="216.748" transform="matrix(1 -0.0051 0.0051 1 -1.1135 1.4652)" fill="#E55C65" width="146.275" height="3.711"/>
	<path fill="#E55C65" d="M285.112,218.116c1.833,3.657,6.199,6.59,11.614,7.323c7.27,0.983,13.783-2.351,15.087-7.537
		L285.112,218.116z"/>
	<circle fill="#FFFFFF" cx="229.416" cy="241.932" r="9.667"/>
	<circle fill="#FFFFFF" cx="253.828" cy="254.874" r="9.667"/>
	<circle fill="#FFFFFF" cx="281.672" cy="254.874" r="9.667"/>
	<circle fill="#FFFFFF" cx="310.144" cy="252.874" r="9.667"/>
	<circle fill="#FFFFFF" cx="334.378" cy="241.932" r="9.667"/>
</g>
<g id="LK--_1_">
</g>
<g id="Layer_7">
	<path fill="#302E2E" d="M566.072,362.851c-1.391,3.59-5.506,5.952-8.906,5.281l0,0c-3.407-0.67-4.958-3.814-3.715-7.028
		c16.716-43.05,2.063-86.291-37.38-110.312c-2.939-1.795-3.62-5.234-1.322-7.838l0,0c2.292-2.6,6.996-3.225,10.282-1.221
		C568.339,268.107,584.428,315.583,566.072,362.851z"/>
	<path fill="#5E433B" d="M618.089,768V324.046c0-10.306-8.73-18.66-19.499-18.66l-303.346,50.088
		c-10.769,0-19.499,8.354-19.499,18.66V768H618.089z"/>
	
		<linearGradient id="SVGID_6_" gradientUnits="userSpaceOnUse" x1="338.7461" y1="338.252" x2="412.9863" y2="338.252" gradientTransform="matrix(-0.8085 -0.3511 0.3113 -0.7167 517.6875 716.6797)">
		<stop  offset="0" style="stop-color:#EDC1A3"/>
		<stop  offset="0.4434" style="stop-color:#EDC4A6"/>
		<stop  offset="0.7609" style="stop-color:#EDCDAF"/>
	</linearGradient>
	<path fill="url(#SVGID_6_)" d="M287.305,340.784l3.28,10.762c1.225,4.021,3.616,7.024,5.342,6.711l22.744-4.146l1.812,5.944
		c0.495,1.623,2.294,2.684,4.018,2.37l21.813-3.978c1.726-0.313,2.722-1.885,2.227-3.507l-2.29-7.512
		c0.319-1.464,0.157-3.611-0.55-5.929l-3.282-10.763c-1.225-4.021-3.616-7.024-5.342-6.71l-48.871,8.909
		C286.482,333.248,286.077,336.761,287.305,340.784z"/>
</g>
</svg>
