<?xml version="1.0" encoding="utf-8"?>
<!-- Generator: Adobe Illustrator 16.0.0, SVG Export Plug-In . SVG Version: 6.00 Build 0)  -->
<!DOCTYPE svg PUBLIC "-//W3C//DTD SVG 1.1//EN" "http://www.w3.org/Graphics/SVG/1.1/DTD/svg11.dtd">
<svg version="1.1" id="Layer_1" xmlns="http://www.w3.org/2000/svg" xmlns:xlink="http://www.w3.org/1999/xlink" x="0px" y="0px"
	 width="298.55px" height="298.551px" viewBox="0 0 298.55 298.551" enable-background="new 0 0 298.55 298.551"
	 xml:space="preserve">
<g>
	<path fill="#D8A66F" d="M73.434,189.586c0,8.222-5.916,14.887-13.214,14.887l0,0c-7.298,0-13.214-6.665-13.214-14.887V174.86
		c0-8.222,5.916-14.887,13.214-14.887l0,0c7.298,0,13.214,6.665,13.214,14.887V189.586z"/>
	<path fill="#EAD1A4" d="M245.184,141.474c0,3.176-2.574,5.75-5.75,5.75l0,0c-3.176,0-5.75-2.574-5.75-5.75v-63
		c0-3.176,2.574-5.75,5.75-5.75l0,0c3.176,0,5.75,2.574,5.75,5.75V141.474z"/>
	<linearGradient id="SVGID_1_" gradientUnits="userSpaceOnUse" x1="152.1846" y1="279.4731" x2="152.1846" y2="40.4741">
		<stop  offset="0.6262" style="stop-color:#F4BFB5"/>
		<stop  offset="0.6818" style="stop-color:#F1B7A7"/>
		<stop  offset="0.7902" style="stop-color:#EDAA93"/>
		<stop  offset="0.8971" style="stop-color:#EAA386"/>
		<stop  offset="1" style="stop-color:#E9A082"/>
	</linearGradient>
	<path fill="url(#SVGID_1_)" d="M242.434,196.473c0,40.869-42.392,83-81.115,83H148.05c-38.724,0-86.116-42.131-86.116-83v-82
		c0-40.869,31.392-74,70.116-74h40.269c38.724,0,70.115,33.131,70.115,74V196.473z"/>
	<path fill="#ED9E99" d="M172.934,135.974c0-6.903-6.324-12.5-14.125-12.5l0,0c-7.801,0-14.125,5.597-14.125,12.5v46
		c0,6.903,6.324,12.5,14.125,12.5l0,0c7.801,0,14.125-5.597,14.125-12.5V135.974z"/>
	<path fill="#ED9E99" d="M181.184,175.389c0,4.281-3.47,7.75-7.75,7.75l0,0c-4.28,0-7.75-3.469-7.75-7.75v-2.666
		c0-4.28,3.47-7.75,7.75-7.75l0,0c4.28,0,7.75,3.47,7.75,7.75V175.389z"/>
	<circle fill="#20293F" cx="112.684" cy="131.224" r="7.75"/>
	<circle fill="#20293F" cx="208.184" cy="131.224" r="7.75"/>
	<path fill="#D8A66F" d="M255.434,60.474c1.367,22.943-49.71,23.911-67.893,24.995l-99.219-6.785
		c-18.182,1.083-38.729,6.86-40.095-16.083l-0.042-11.01c-1.368-22.943,29.934-40.64,61.066-40.512l123.427,4.395
		c12.506,5.499,21.388,5.055,22.756,27.998V60.474z"/>
	<path fill="#F4BFB5" d="M76.254,175.628c1.018,9.304-4.249,17.512-11.762,18.334l0,0c-7.514,0.821-14.43-6.054-15.448-15.357
		l-5.83-53.29c-1.018-9.303,4.249-17.512,11.762-18.333l0,0c7.514-0.822,14.43,6.054,15.448,15.357L76.254,175.628z"/>
	<path fill="#F4BFB5" d="M125.608,135.844c0.177,1.303,0.183,2.378,0.012,2.401l-26.383,3.591c-0.171,0.023-0.453-1.014-0.63-2.317
		l0,0c-0.178-1.303-0.183-2.378-0.012-2.401l26.382-3.591C125.148,133.504,125.431,134.541,125.608,135.844L125.608,135.844z"/>
	<path fill="#F4BFB5" d="M195.309,264.598c0,15.299-16.846,22.875-37.625,22.875c-20.78,0-37.625-10.242-37.625-22.875
		s16.845-22.875,37.625-22.875C178.463,241.723,195.309,251.965,195.309,264.598z"/>
	<g>
		<path fill="#C97984" d="M228.342,225.47c0.408-1.25,0.023-2.496-0.86-2.776c-45.388-14.384-94.113-14.384-139.5,0
			c-0.884,0.28-1.269,1.526-0.861,2.776l0,0c0.408,1.25,1.437,2.035,2.299,1.762c44.451-14.087,92.173-14.087,136.624,0
			C226.906,227.505,227.934,226.72,228.342,225.47L228.342,225.47z"/>
	</g>
	<path fill="#EDA9A2" d="M179.598,252.723c0,0.924-0.205,1.672-0.457,1.672h-38.915c-0.252,0-0.457-0.748-0.457-1.672l0,0
		c0-0.924,0.205-1.672,0.457-1.672h38.915C179.393,251.051,179.598,251.799,179.598,252.723L179.598,252.723z"/>
	<circle fill="#F7F2F2" cx="115.059" cy="129.762" r="2.375"/>
	<circle fill="#F7F2F2" cx="210.559" cy="129.762" r="2.375"/>
	<ellipse fill="#F4BFB5" cx="226.988" cy="169.077" rx="25.554" ry="30.396"/>
	<path fill="#F4BFB5" d="M196.696,139.17c0.053-1.314,0.236-2.373,0.408-2.367l26.604,1.082c0.172,0.008,0.27,1.078,0.216,2.392l0,0
		c-0.054,1.314-0.236,2.373-0.409,2.366l-26.604-1.082C196.739,141.554,196.641,140.484,196.696,139.17L196.696,139.17z"/>
	<path fill="#EDA9A2" d="M100.315,132.65c0.413,0.732,0.67,1.369,0.574,1.424l-14.825,8.365c-0.096,0.054-0.509-0.495-0.922-1.228
		l0,0c-0.413-0.732-0.67-1.369-0.574-1.423l14.825-8.365C99.49,131.369,99.902,131.918,100.315,132.65L100.315,132.65z"/>
	<path fill="#EDA9A2" d="M98.12,129.268c-0.226,0.81-0.495,1.442-0.601,1.413l-16.398-4.568c-0.106-0.03-0.01-0.71,0.216-1.52l0,0
		c0.225-0.81,0.494-1.442,0.6-1.413l16.398,4.568C98.442,127.778,98.346,128.458,98.12,129.268L98.12,129.268z"/>
	<path fill="#EDA9A2" d="M218.528,134.401c-0.412,0.732-0.67,1.369-0.574,1.424l14.826,8.365c0.096,0.054,0.508-0.495,0.922-1.228
		l0,0c0.412-0.732,0.67-1.369,0.574-1.423l-14.826-8.365C219.354,133.12,218.942,133.669,218.528,134.401L218.528,134.401z"/>
	<path fill="#EDA9A2" d="M218.723,130.02c0.227,0.81,0.495,1.442,0.602,1.413l16.397-4.568c0.106-0.03,0.01-0.71-0.216-1.52l0,0
		c-0.226-0.81-0.494-1.442-0.601-1.413l-16.397,4.568C218.401,128.53,218.499,129.21,218.723,130.02L218.723,130.02z"/>
	<path fill="#EDA9A2" d="M120.397,179.014c0.864,0.992,1.406,1.934,1.21,2.104l-30.173,26.298c-0.196,0.171-1.055-0.494-1.918-1.486
		l0,0c-0.865-0.99-1.406-1.932-1.21-2.103l30.173-26.298C118.675,177.359,119.533,178.024,120.397,179.014L120.397,179.014z"/>
	<path fill="#EDA9A2" d="M192.079,178.344c1.035-0.811,2.004-1.303,2.164-1.098l24.669,31.52c0.159,0.205-0.55,1.027-1.586,1.837
		l0,0c-1.034,0.812-2.004,1.302-2.163,1.099l-24.669-31.521C190.333,179.976,191.043,179.155,192.079,178.344L192.079,178.344z"/>
	<path opacity="0.2" fill="#EA7D7D" d="M132.164,119.724c0,3.176-7.332,5.75-16.375,5.75h-13.664c-9.043,0-16.375-2.574-16.375-5.75
		l0,0c0-3.175,7.332-5.75,16.375-5.75h13.664C124.832,113.974,132.164,116.548,132.164,119.724L132.164,119.724z"/>
	<path opacity="0.2" fill="#EA7D7D" d="M235.765,120.224c0,3.452-7.229,6.25-16.147,6.25h-13.162c-8.917,0-16.146-2.798-16.146-6.25
		l0,0c0-3.452,7.229-6.25,16.146-6.25h13.162C228.536,113.974,235.765,116.771,235.765,120.224L235.765,120.224z"/>
	<path fill="#ED9E99" d="M149.654,175.389c0,4.281-3.47,7.75-7.75,7.75l0,0c-4.28,0-7.75-3.469-7.75-7.75v-2.666
		c0-4.28,3.47-7.75,7.75-7.75l0,0c4.28,0,7.75,3.47,7.75,7.75V175.389z"/>
	<ellipse opacity="0.2" fill="#FCD9D4" cx="159.684" cy="265.473" rx="6.819" ry="7.125"/>
	<path fill="#F4BFB5" d="M125.976,128.471c-0.29,1.283-0.66,2.292-0.829,2.254l-25.974-5.857c-0.168-0.038-0.07-1.108,0.219-2.391
		l0,0c0.289-1.284,0.66-2.292,0.828-2.254l25.974,5.856C126.363,126.118,126.265,127.188,125.976,128.471L125.976,128.471z"/>
	<path fill="#EAD1A4" d="M135.81,125.274c-2.589,3.916-7.862,4.991-11.778,2.403l-28.57-18.89
		c-3.917-2.588-4.992-7.862-2.403-11.778l0,0c2.589-3.916,7.862-4.991,11.778-2.402l28.571,18.889
		C137.323,116.085,138.398,121.358,135.81,125.274L135.81,125.274z"/>
	<path fill="#F4BFB5" d="M222.262,122.245c0.408,1.25,0.605,2.307,0.441,2.36l-25.312,8.264c-0.164,0.054-0.627-0.917-1.035-2.166
		l0,0c-0.409-1.25-0.606-2.307-0.442-2.36l25.311-8.264C221.39,120.025,221.854,120.995,222.262,122.245L222.262,122.245z"/>
	<path fill="#EAD1A4" d="M230.937,96.938c2.847,3.733,2.127,9.067-1.606,11.913l-27.238,20.764
		c-3.732,2.846-9.066,2.126-11.912-1.606l0,0c-2.846-3.733-2.127-9.067,1.606-11.913l27.237-20.764
		C222.758,92.486,228.092,93.206,230.937,96.938L230.937,96.938z"/>
	<path fill="#EDA9A2" d="M147.308,98.434c0.841,0.021,1.519,0.126,1.517,0.236l-0.408,17.018c-0.003,0.11-0.686,0.184-1.526,0.163
		l0,0c-0.84-0.02-1.519-0.126-1.517-0.236l0.408-17.017C145.785,98.487,146.468,98.414,147.308,98.434L147.308,98.434z"/>
	<path fill="#EDA9A2" d="M174.868,98.434c0.842,0.021,1.52,0.126,1.518,0.236l-0.408,17.018c-0.003,0.11-0.686,0.184-1.526,0.163
		l0,0c-0.841-0.02-1.519-0.126-1.517-0.236l0.408-17.017C173.344,98.487,174.028,98.414,174.868,98.434L174.868,98.434z"/>
	<path opacity="0.4" fill="#ED9E99" d="M59.043,122.248c-0.403-5.126-2.993-9.103-5.785-8.883l0,0
		c-2.792,0.219-4.73,4.553-4.327,9.678l2.683,34.156c0.403,5.126,2.993,9.104,5.785,8.884l0,0c2.792-0.22,4.729-4.553,4.327-9.679
		L59.043,122.248z"/>
	<path fill="#EDA9A2" d="M124.489,136.894c0.801,1.043,1.339,1.973,1.203,2.078l-21.116,16.219
		c-0.137,0.104-0.897-0.655-1.698-1.698l0,0c-0.801-1.042-1.339-1.972-1.203-2.078l21.115-16.219
		C122.928,135.091,123.688,135.851,124.489,136.894L124.489,136.894z"/>
	<path fill="#EDA9A2" d="M218.793,157.773c-0.825,1.024-1.604,1.767-1.737,1.658l-20.731-16.708
		c-0.134-0.108,0.426-1.026,1.252-2.05l0,0c0.824-1.024,1.603-1.766,1.736-1.657l20.73,16.707
		C220.178,155.833,219.619,156.75,218.793,157.773L218.793,157.773z"/>
	<path fill="#EAD1A4" d="M73.434,116.267c0,2.185-6.561,3.956-14.655,3.956l0,0c-8.093,0-14.654-1.771-14.654-3.956V72.929
		c0-2.185,6.561-3.956,14.654-3.956l0,0c8.094,0,14.655,1.771,14.655,3.956V116.267z"/>
	<path fill="#EAD1A4" d="M73.434,138.013c0,3.016-2.574,5.46-5.75,5.46l0,0c-3.176,0-5.75-2.445-5.75-5.46V78.184
		c0-3.016,2.574-5.46,5.75-5.46l0,0c3.176,0,5.75,2.445,5.75,5.46V138.013z"/>
</g>
</svg>
