<?xml version="1.0" encoding="utf-8"?>
<!-- Generator: Adobe Illustrator 16.0.0, SVG Export Plug-In . SVG Version: 6.00 Build 0)  -->
<!DOCTYPE svg PUBLIC "-//W3C//DTD SVG 1.1//EN" "http://www.w3.org/Graphics/SVG/1.1/DTD/svg11.dtd">
<svg version="1.1" xmlns="http://www.w3.org/2000/svg" xmlns:xlink="http://www.w3.org/1999/xlink" x="0px" y="0px" width="768px"
	 height="768px" viewBox="0 0 768 768" enable-background="new 0 0 768 768" xml:space="preserve">
<g id="body">
	<linearGradient id="SVGID_1_" gradientUnits="userSpaceOnUse" x1="552.042" y1="675.4307" x2="96.542" y2="675.4307">
		<stop  offset="0.147" style="stop-color:#41437B"/>
		<stop  offset="0.5908" style="stop-color:#3F4178"/>
		<stop  offset="0.9739" style="stop-color:#383C6D"/>
		<stop  offset="1" style="stop-color:#373B6C"/>
	</linearGradient>
	<path fill="url(#SVGID_1_)" d="M552.042,747.681c0,44.045-44.376,79.75-99.117,79.75H195.658c-54.741,0-99.116-35.705-99.116-79.75
		v-144.5c0-44.045,44.375-79.75,99.116-79.75h257.267c54.741,0,99.117,35.705,99.117,79.75V747.681z"/>
	
		<linearGradient id="SVGID_2_" gradientUnits="userSpaceOnUse" x1="587.7334" y1="711.5537" x2="474.665" y2="711.5537" gradientTransform="matrix(0.9882 -0.1534 0.1534 0.9882 -103.2593 100.7049)">
		<stop  offset="0.147" style="stop-color:#41437B"/>
		<stop  offset="0.5908" style="stop-color:#3F4178"/>
		<stop  offset="0.9739" style="stop-color:#383C6D"/>
		<stop  offset="1" style="stop-color:#373B6C"/>
	</linearGradient>
	<path fill="url(#SVGID_2_)" d="M609.196,858.688c3.201,20.617-19.213,41.214-50.062,46.005l0,0
		c-30.85,4.79-58.455-8.04-61.656-28.657l-45.026-289.969c-3.202-20.617,19.213-41.214,50.062-46.005l0,0
		c30.851-4.79,58.455,8.04,61.657,28.657L609.196,858.688z"/>
	<linearGradient id="SVGID_3_" gradientUnits="userSpaceOnUse" x1="223.1128" y1="645.5371" x2="447.3936" y2="645.5371">
		<stop  offset="0.147" style="stop-color:#41437B"/>
		<stop  offset="0.5908" style="stop-color:#3F4178"/>
		<stop  offset="0.9739" style="stop-color:#383C6D"/>
		<stop  offset="1" style="stop-color:#373B6C"/>
	</linearGradient>
	<path fill="url(#SVGID_3_)" d="M447.394,747.537c0,41.283-32.777,74.75-73.21,74.75h-77.86c-40.434,0-73.21-33.467-73.21-74.75
		v-204c0-41.283,32.777-74.75,73.21-74.75h77.86c40.433,0,73.21,33.467,73.21,74.75V747.537z"/>
	<radialGradient id="SVGID_4_" cx="409.708" cy="501.3438" r="10.1543" gradientUnits="userSpaceOnUse">
		<stop  offset="0" style="stop-color:#EFF3F4"/>
		<stop  offset="0.5386" style="stop-color:#EDF1F2"/>
		<stop  offset="0.8496" style="stop-color:#E4E8EA"/>
		<stop  offset="1" style="stop-color:#DDE1E3"/>
	</radialGradient>
	<circle fill="url(#SVGID_4_)" cx="409.708" cy="501.344" r="10.154"/>
	<radialGradient id="SVGID_5_" cx="259.6777" cy="501.3438" r="10.1543" gradientUnits="userSpaceOnUse">
		<stop  offset="0" style="stop-color:#EFF3F4"/>
		<stop  offset="0.5386" style="stop-color:#EDF1F2"/>
		<stop  offset="0.8496" style="stop-color:#E4E8EA"/>
		<stop  offset="1" style="stop-color:#DDE1E3"/>
	</radialGradient>
	<circle fill="url(#SVGID_5_)" cx="259.678" cy="501.344" r="10.154"/>
	<linearGradient id="SVGID_6_" gradientUnits="userSpaceOnUse" x1="334.7388" y1="802.8555" x2="334.7388" y2="483.3467">
		<stop  offset="0" style="stop-color:#FFFFFF"/>
		<stop  offset="0.1873" style="stop-color:#F9F9FA"/>
		<stop  offset="1" style="stop-color:#E3E3E6"/>
	</linearGradient>
	<path fill="url(#SVGID_6_)" d="M379.516,780.289c0,12.463-8.843,22.566-19.75,22.566h-36.054c-10.908,0-19.75-10.104-19.75-22.566
		l-47-274.375c0-12.463,8.842-22.567,19.75-22.567h116.054c10.907,0,19.75,10.104,19.75,22.567L379.516,780.289z"/>
	<g>
		<defs>
			<path id="SVGID_7_" d="M379.516,780.288c0,12.464-8.843,22.567-19.75,22.567h-36.054c-10.908,0-19.75-10.104-19.75-22.567
				l-47-274.374c0-12.463,8.842-22.567,19.75-22.567h116.054c10.907,0,19.75,10.104,19.75,22.567L379.516,780.288z"/>
		</defs>
		<clipPath id="SVGID_8_">
			<use xlink:href="#SVGID_7_"  overflow="visible"/>
		</clipPath>
		
			<radialGradient id="SVGID_9_" cx="334.9004" cy="467.5908" r="114.4946" gradientTransform="matrix(1 0 0 1.0542 0 -26.2119)" gradientUnits="userSpaceOnUse">
			<stop  offset="0.4721" style="stop-color:#FFFFFF"/>
			<stop  offset="0.6835" style="stop-color:#F8F8F8"/>
			<stop  offset="1" style="stop-color:#E3E3E6"/>
		</radialGradient>
		<ellipse opacity="0.6" clip-path="url(#SVGID_8_)" fill="url(#SVGID_9_)" cx="334.9" cy="466.736" rx="104.9" ry="130.034"/>
	</g>
	<linearGradient id="SVGID_10_" gradientUnits="userSpaceOnUse" x1="335.1162" y1="570.9863" x2="335.1162" y2="405.8721">
		<stop  offset="0" style="stop-color:#F7CEBA"/>
		<stop  offset="0.872" style="stop-color:#F6CDB9"/>
		<stop  offset="0.9223" style="stop-color:#F5CAB7"/>
		<stop  offset="0.9664" style="stop-color:#F0BFB0"/>
		<stop  offset="1" style="stop-color:#EAB1A7"/>
	</linearGradient>
	<path fill="url(#SVGID_10_)" d="M414.136,488.429c0,45.594-33.371,82.558-74.538,82.558h-8.962
		c-41.167,0-74.54-36.964-74.54-82.558l0,0c0-45.594,33.373-82.557,74.54-82.557h8.962
		C380.765,405.872,414.136,442.835,414.136,488.429L414.136,488.429z"/>
	
		<linearGradient id="SVGID_11_" gradientUnits="userSpaceOnUse" x1="161.5586" y1="727.542" x2="63.1104" y2="727.542" gradientTransform="matrix(0.9702 0.2422 -0.2422 0.9702 179.3652 -6.9038)">
		<stop  offset="0.147" style="stop-color:#41437B"/>
		<stop  offset="0.5908" style="stop-color:#3F4178"/>
		<stop  offset="0.9739" style="stop-color:#383C6D"/>
		<stop  offset="1" style="stop-color:#373B6C"/>
	</linearGradient>
	<path fill="url(#SVGID_11_)" d="M124.395,880.461c-5.053,20.244-30.531,31.317-56.908,24.733l0,0
		c-26.376-6.583-43.662-28.331-38.61-48.574L99.94,571.912c5.053-20.244,30.531-31.317,56.907-24.733l0,0
		c26.376,6.583,43.663,28.331,38.61,48.574L124.395,880.461z"/>
	<g>
		<g opacity="0.38">
			<circle fill="#541E34" cx="260.678" cy="518.344" r="10.154"/>
			<circle fill="#541E34" cx="283.338" cy="533.532" r="10.154"/>
			<circle fill="#541E34" cx="308.434" cy="542.178" r="10.154"/>
			<circle fill="#541E34" cx="334.738" cy="545.728" r="10.154"/>
			<circle fill="#541E34" cx="362.984" cy="539.878" r="10.154"/>
			<circle fill="#541E34" cx="388.75" cy="529.724" r="10.154"/>
			<circle fill="#541E34" cx="408.136" cy="514.149" r="10.154"/>
		</g>
		<g>
			<g>
				<radialGradient id="SVGID_12_" cx="260.6777" cy="516.3438" r="10.1543" gradientUnits="userSpaceOnUse">
					<stop  offset="0" style="stop-color:#EFF3F4"/>
					<stop  offset="0.5386" style="stop-color:#EDF1F2"/>
					<stop  offset="0.8496" style="stop-color:#E4E8EA"/>
					<stop  offset="1" style="stop-color:#DDE1E3"/>
				</radialGradient>
				<circle fill="url(#SVGID_12_)" cx="260.678" cy="516.344" r="10.154"/>
				<radialGradient id="SVGID_13_" cx="283.3384" cy="531.5322" r="10.1543" gradientUnits="userSpaceOnUse">
					<stop  offset="0" style="stop-color:#EFF3F4"/>
					<stop  offset="0.5386" style="stop-color:#EDF1F2"/>
					<stop  offset="0.8496" style="stop-color:#E4E8EA"/>
					<stop  offset="1" style="stop-color:#DDE1E3"/>
				</radialGradient>
				<circle fill="url(#SVGID_13_)" cx="283.338" cy="531.532" r="10.154"/>
				<radialGradient id="SVGID_14_" cx="308.4336" cy="540.1777" r="10.1543" gradientUnits="userSpaceOnUse">
					<stop  offset="0" style="stop-color:#EFF3F4"/>
					<stop  offset="0.5386" style="stop-color:#EDF1F2"/>
					<stop  offset="0.8496" style="stop-color:#E4E8EA"/>
					<stop  offset="1" style="stop-color:#DDE1E3"/>
				</radialGradient>
				<circle fill="url(#SVGID_14_)" cx="308.434" cy="540.178" r="10.154"/>
				<radialGradient id="SVGID_15_" cx="334.7383" cy="543.7275" r="10.1543" gradientUnits="userSpaceOnUse">
					<stop  offset="0" style="stop-color:#EFF3F4"/>
					<stop  offset="0.5386" style="stop-color:#EDF1F2"/>
					<stop  offset="0.8496" style="stop-color:#E4E8EA"/>
					<stop  offset="1" style="stop-color:#DDE1E3"/>
				</radialGradient>
				<circle fill="url(#SVGID_15_)" cx="334.738" cy="543.728" r="10.154"/>
				<radialGradient id="SVGID_16_" cx="362.9844" cy="537.8779" r="10.1543" gradientUnits="userSpaceOnUse">
					<stop  offset="0" style="stop-color:#EFF3F4"/>
					<stop  offset="0.5386" style="stop-color:#EDF1F2"/>
					<stop  offset="0.8496" style="stop-color:#E4E8EA"/>
					<stop  offset="1" style="stop-color:#DDE1E3"/>
				</radialGradient>
				<circle fill="url(#SVGID_16_)" cx="362.984" cy="537.878" r="10.154"/>
				<radialGradient id="SVGID_17_" cx="388.75" cy="527.7236" r="10.1543" gradientUnits="userSpaceOnUse">
					<stop  offset="0" style="stop-color:#EFF3F4"/>
					<stop  offset="0.5386" style="stop-color:#EDF1F2"/>
					<stop  offset="0.8496" style="stop-color:#E4E8EA"/>
					<stop  offset="1" style="stop-color:#DDE1E3"/>
				</radialGradient>
				<circle fill="url(#SVGID_17_)" cx="388.75" cy="527.724" r="10.154"/>
				<radialGradient id="SVGID_18_" cx="408.1357" cy="512.1494" r="10.1543" gradientUnits="userSpaceOnUse">
					<stop  offset="0" style="stop-color:#EFF3F4"/>
					<stop  offset="0.5386" style="stop-color:#EDF1F2"/>
					<stop  offset="0.8496" style="stop-color:#E4E8EA"/>
					<stop  offset="1" style="stop-color:#DDE1E3"/>
				</radialGradient>
				<circle fill="url(#SVGID_18_)" cx="408.136" cy="512.149" r="10.154"/>
			</g>
		</g>
	</g>
</g>
<g id="head">
	<linearGradient id="SVGID_19_" gradientUnits="userSpaceOnUse" x1="151.5918" y1="289.9199" x2="408.1357" y2="289.9199">
		<stop  offset="0" style="stop-color:#BCAB62"/>
		<stop  offset="1" style="stop-color:#D1C88E"/>
	</linearGradient>
	<path fill="url(#SVGID_19_)" d="M408.136,399.152c0,42.674-39.562,77.268-88.365,77.268h-79.813
		c-48.803,0-88.366-34.594-88.366-77.268V180.688c0-42.673,39.562-77.268,88.366-77.268h79.813
		c48.803,0,88.365,34.595,88.365,77.268V399.152z"/>
	<path fill="#9E8F51" d="M358.595,299.456c0,14.024-34.151,25.393-76.283,25.393l0,0c-42.13,0-76.283-11.369-76.283-25.393V182.813
		c0-14.024,34.153-25.393,76.283-25.393l0,0c42.132,0,76.283,11.369,76.283,25.393V299.456z"/>
	<linearGradient id="SVGID_20_" gradientUnits="userSpaceOnUse" x1="507.834" y1="157.6299" x2="343.532" y2="442.2093">
		<stop  offset="0" style="stop-color:#BCAB62"/>
		<stop  offset="1" style="stop-color:#D1C88E"/>
	</linearGradient>
	<path fill="url(#SVGID_20_)" d="M505.592,398.583c0,42.987-34.9,77.837-77.951,77.837h-3.916c-43.051,0-77.951-34.85-77.951-77.837
		V201.257c0-42.989,34.9-77.837,77.951-77.837h3.916c43.051,0,77.951,34.848,77.951,77.837V398.583z"/>
	<linearGradient id="SVGID_21_" gradientUnits="userSpaceOnUse" x1="499.0283" y1="336.7036" x2="439.8008" y2="336.7036">
		<stop  offset="0" style="stop-color:#F7CEBA"/>
		<stop  offset="0.3841" style="stop-color:#F4C7B5"/>
		<stop  offset="0.947" style="stop-color:#EBB3A8"/>
		<stop  offset="1" style="stop-color:#EAB1A7"/>
	</linearGradient>
	<path fill="url(#SVGID_21_)" d="M481.025,371.353c-3.015,9.807-14.525,14.819-25.709,11.195l0,0
		c-11.183-3.625-17.803-14.514-14.787-24.321l17.273-56.174c3.016-9.807,14.527-14.819,25.709-11.194l0,0
		c11.184,3.625,17.804,14.513,14.788,24.32L481.025,371.353z"/>
	<linearGradient id="SVGID_22_" gradientUnits="userSpaceOnUse" x1="335.2505" y1="168.2949" x2="335.2505" y2="516.6646">
		<stop  offset="0" style="stop-color:#EAB1A7"/>
		<stop  offset="0.002" style="stop-color:#EAB2A8"/>
		<stop  offset="0.0415" style="stop-color:#F2C2B2"/>
		<stop  offset="0.0865" style="stop-color:#F6CBB8"/>
		<stop  offset="0.1486" style="stop-color:#F7CEBA"/>
		<stop  offset="0.872" style="stop-color:#F6CDB9"/>
		<stop  offset="0.9223" style="stop-color:#F5CAB7"/>
		<stop  offset="0.9664" style="stop-color:#F0BFB0"/>
		<stop  offset="1" style="stop-color:#EAB1A7"/>
	</linearGradient>
	<path fill="url(#SVGID_22_)" d="M464.473,397.641c-18.437,64.16-74.696,119.023-130.144,119.023h-4.999
		c-55.445,0-106.217-54.863-123.302-119.023V277.086c21.563-68.667,67.947-108.792,123.394-108.792h13.659
		c55.444,0,96.72,46.925,121.392,108.792V397.641z"/>
	<path fill="#ED9E99" d="M349.871,333.684c0-6.473-7.317-11.72-16.343-11.72l0,0c-9.025,0-16.343,5.247-16.343,11.72v43.126
		c0,6.472,7.317,11.719,16.343,11.719l0,0c9.025,0,16.343-5.248,16.343-11.719V333.684z"/>
	<path fill="#ED9E99" d="M365.374,370.417c0,6.231-5.4,11.287-12.062,11.287l0,0c-6.663,0-12.062-5.056-12.062-11.287v-3.884
		c0-6.234,5.398-11.287,12.062-11.287l0,0c6.661,0,12.062,5.053,12.062,11.287V370.417z"/>
	<path fill="#F7CEBA" d="M293.935,313.236c0.278,1.898,0.288,3.463,0.02,3.498l-41.062,5.23c-0.267,0.034-0.705-1.477-0.981-3.374
		l0,0c-0.276-1.898-0.283-3.463-0.018-3.497l41.06-5.229C293.222,309.83,293.661,311.338,293.935,313.236L293.935,313.236z"/>
	<linearGradient id="SVGID_23_" gradientUnits="userSpaceOnUse" x1="331.7915" y1="411.4512" x2="331.7915" y2="512.1494">
		<stop  offset="0" style="stop-color:#F7CEBA"/>
		<stop  offset="0.4466" style="stop-color:#F6CBB8"/>
		<stop  offset="0.7267" style="stop-color:#F2C3B3"/>
		<stop  offset="0.9606" style="stop-color:#EBB4A9"/>
		<stop  offset="1" style="stop-color:#EAB1A7"/>
	</linearGradient>
	<path fill="url(#SVGID_23_)" d="M382.592,461.8c0,33.676-22.745,50.35-50.801,50.35c-28.058,0-50.799-22.542-50.799-50.35
		c0-27.807,22.742-50.349,50.799-50.349C359.847,411.451,382.592,433.993,382.592,461.8z"/>
	<linearGradient id="SVGID_24_" gradientUnits="userSpaceOnUse" x1="412.376" y1="331.0566" x2="412.376" y2="405.103">
		<stop  offset="0" style="stop-color:#F7CEBA"/>
		<stop  offset="0.4466" style="stop-color:#F6CBB8"/>
		<stop  offset="0.7267" style="stop-color:#F2C3B3"/>
		<stop  offset="0.9606" style="stop-color:#EBB4A9"/>
		<stop  offset="1" style="stop-color:#EAB1A7"/>
	</linearGradient>
	<ellipse fill="url(#SVGID_24_)" cx="412.376" cy="368.081" rx="39.771" ry="37.022"/>
	<path fill="#F7CEBA" d="M369.979,312.513c0.081-1.915,0.367-3.456,0.634-3.446l41.404,1.575c0.27,0.011,0.421,1.57,0.337,3.483l0,0
		c-0.084,1.914-0.367,3.456-0.637,3.446l-41.404-1.575C370.046,315.984,369.893,314.426,369.979,312.513L369.979,312.513z"/>
	<path fill="#EDA9A2" d="M247.652,308.296c0.644,1.066,1.042,1.994,0.895,2.073l-23.074,12.183c-0.15,0.079-0.792-0.721-1.436-1.788
		l0,0c-0.642-1.066-1.042-1.995-0.893-2.073l23.073-12.182C246.368,306.43,247.009,307.229,247.652,308.296L247.652,308.296z"/>
	<path fill="#EDA9A2" d="M418.266,305.084c-0.643,1.067-1.045,1.994-0.896,2.074l23.077,12.182c0.146,0.079,0.789-0.721,1.434-1.788
		l0,0c0.643-1.065,1.043-1.994,0.894-2.073l-23.075-12.182C419.551,303.218,418.91,304.019,418.266,305.084L418.266,305.084z"/>
	<linearGradient id="SVGID_25_" gradientUnits="userSpaceOnUse" x1="251.7007" y1="330.0566" x2="251.7007" y2="404.103">
		<stop  offset="0" style="stop-color:#F7CEBA"/>
		<stop  offset="0.4466" style="stop-color:#F6CBB8"/>
		<stop  offset="0.7267" style="stop-color:#F2C3B3"/>
		<stop  offset="0.9606" style="stop-color:#EBB4A9"/>
		<stop  offset="1" style="stop-color:#EAB1A7"/>
	</linearGradient>
	<ellipse fill="url(#SVGID_25_)" cx="251.701" cy="367.081" rx="39.771" ry="37.022"/>
	<path fill="#ED9E99" d="M325.787,370.417c0,6.231-5.398,11.287-12.06,11.287l0,0c-6.663,0-12.063-5.056-12.063-11.287v-3.884
		c0-6.234,5.4-11.287,12.063-11.287l0,0c6.661,0,12.06,5.053,12.06,11.287V370.417z"/>
	<path fill="#EDA9A2" d="M246.115,301.305c-0.07,0.982-0.231,1.764-0.361,1.747l-20.067-2.708c-0.131-0.017-0.18-0.828-0.111-1.81
		l0,0c0.069-0.982,0.23-1.764,0.36-1.746l20.067,2.708C246.135,299.514,246.184,300.323,246.115,301.305L246.115,301.305z"/>
	<g>
		<path fill="#EDA9A2" d="M287.953,386.846c0.713,0.578,0.987,1.421,0.608,1.872c-19.503,23.054-54.695,21.905-72.526-1.075
			c-0.352-0.451-0.03-1.264,0.711-1.803l0,0c0.739-0.543,1.591-0.641,1.911-0.23c16.534,21.309,49.231,22.417,67.38,0.954
			C286.385,386.146,287.239,386.27,287.953,386.846L287.953,386.846z"/>
	</g>
	<linearGradient id="SVGID_26_" gradientUnits="userSpaceOnUse" x1="272.6758" y1="315.9131" x2="272.6758" y2="273.9512">
		<stop  offset="0" style="stop-color:#C6CEBA;stop-opacity:0"/>
		<stop  offset="0.4045" style="stop-color:#C9CCB9;stop-opacity:0.4045"/>
		<stop  offset="0.6584" style="stop-color:#D1C6B5;stop-opacity:0.6584"/>
		<stop  offset="0.8702" style="stop-color:#E0BBAD;stop-opacity:0.8702"/>
		<stop  offset="1" style="stop-color:#EDB1A7"/>
	</linearGradient>
	<ellipse opacity="0.4" fill="url(#SVGID_26_)" cx="272.676" cy="294.932" rx="29.988" ry="20.981"/>
	<g>
		<path fill="#EDA9A2" d="M448.629,386.846c0.713,0.578,0.986,1.421,0.607,1.872c-19.504,23.054-54.695,21.905-72.526-1.075
			c-0.352-0.451-0.03-1.264,0.711-1.803l0,0c0.739-0.543,1.591-0.641,1.911-0.23c16.533,21.309,49.23,22.417,67.38,0.954
			C447.061,386.146,447.915,386.27,448.629,386.846L448.629,386.846z"/>
	</g>
	<ellipse fill="#0A0D16" cx="273.391" cy="302.167" rx="13.264" ry="12.411"/>
	<ellipse fill="#0A0D16" cx="391.167" cy="302.167" rx="13.264" ry="12.411"/>
	<ellipse fill="#F7F2F2" cx="394.863" cy="298.328" rx="3.696" ry="3.459"/>
	<path fill="#0A0D16" d="M266.469,298.783l4.649-1.209c-2.938-3.28-5.06-6.859-6.206-10.624c-0.27-0.881-1.537-1.513-2.906-1.398
		c-1.368,0.115-2.303,1.011-2.005,1.986C261.211,291.514,263.42,295.3,266.469,298.783z"/>
	<ellipse fill="#F7F2F2" cx="269.229" cy="298.328" rx="3.696" ry="3.459"/>
	<path fill="#0A0D16" d="M261.043,305.38l4.648-1.209c-2.916-3.267-5.021-6.828-6.161-10.574c-0.27-0.881-1.537-1.513-2.906-1.398
		c-1.368,0.115-2.303,1.011-2.005,1.987C255.823,298.142,258.016,301.911,261.043,305.38z"/>
	<path fill="#0A0D16" d="M397.621,294.598l-4.648-1.209c2.938-3.28,5.061-6.859,6.205-10.624c0.271-0.881,1.537-1.513,2.906-1.398
		c1.367,0.115,2.303,1.011,2.006,1.986C402.88,287.329,400.671,291.115,397.621,294.598z"/>
	<path fill="#0A0D16" d="M403.229,303.896l-4.648-1.209c2.915-3.267,5.021-6.828,6.16-10.574c0.271-0.881,1.537-1.513,2.906-1.398
		c1.367,0.115,2.303,1.011,2.006,1.987C408.448,296.659,406.256,300.427,403.229,303.896z"/>
	<g>
		<g opacity="0.38">
			<path fill="#541E34" d="M465.26,379.258c0-4.882,4.775-8.84,10.667-8.84l0,0c5.892,0,10.667,3.958,10.667,8.84v2.431
				c0,4.881-4.775,8.84-10.667,8.84l0,0c-5.892,0-10.667-3.959-10.667-8.84V379.258z"/>
		</g>
		<g>
			
				<radialGradient id="SVGID_27_" cx="475.9268" cy="382.8257" r="11.3544" gradientTransform="matrix(1 0 0 0.8378 0 57.7435)" gradientUnits="userSpaceOnUse">
				<stop  offset="0" style="stop-color:#EFF3F4"/>
				<stop  offset="0.5386" style="stop-color:#EDF1F2"/>
				<stop  offset="0.8496" style="stop-color:#E4E8EA"/>
				<stop  offset="1" style="stop-color:#DDE1E3"/>
			</radialGradient>
			<path fill="url(#SVGID_27_)" d="M465.26,377.258c0-4.882,4.775-8.84,10.667-8.84l0,0c5.892,0,10.667,3.958,10.667,8.84v2.431
				c0,4.882-4.775,8.84-10.667,8.84l0,0c-5.892,0-10.667-3.958-10.667-8.84V377.258z"/>
		</g>
	</g>
	<ellipse fill="#CC3E4F" cx="331.759" cy="441.92" rx="29.095" ry="15.5"/>
	<g>
		<path fill="#7F2635" d="M399.354,411.127c0.977,0.787,1.21,2.119,0.511,2.95c-36.04,42.604-101.052,40.466-133.979-1.971
			c-0.647-0.832-0.341-2.125,0.669-2.864l0,0c1.008-0.745,2.303-0.703,2.908,0.069c31.146,40.16,92.747,42.253,126.943,1.832
			C397.062,410.356,398.376,410.344,399.354,411.127L399.354,411.127z"/>
	</g>
	<g>
		<path fill="#967C5A" d="M309.971,278.264c-2.169,1.107-4.915,0.475-6.544-1.435c-13.633-17.253-44.873-24.607-69.778-9.289
			c-2.903,1.757-2.009,6.238-3.375,4.275c0.228,0.248,0.454,0.496,0.682,0.743c-1.43-1.893-0.943-5.921,2.122-7.695
			c24.909-17.425,60.288-12.277,77.748,7.169C312.724,274.381,312.13,277.162,309.971,278.264L309.971,278.264z"/>
	</g>
	<linearGradient id="SVGID_28_" gradientUnits="userSpaceOnUse" x1="392.9727" y1="315.9131" x2="392.9727" y2="274.0488">
		<stop  offset="0" style="stop-color:#C6CEBA;stop-opacity:0"/>
		<stop  offset="0.4154" style="stop-color:#C9CCB9;stop-opacity:0.4154"/>
		<stop  offset="0.6762" style="stop-color:#D1C5B4;stop-opacity:0.6762"/>
		<stop  offset="0.8938" style="stop-color:#E0B9AC;stop-opacity:0.8938"/>
		<stop  offset="1" style="stop-color:#EAB1A7"/>
	</linearGradient>
	<ellipse opacity="0.4" fill="url(#SVGID_28_)" cx="392.973" cy="294.98" rx="29.988" ry="20.933"/>
	<ellipse opacity="0.4" fill="#FCD9D4" cx="434.785" cy="368.476" rx="6.819" ry="7.125"/>
	<ellipse opacity="0.4" fill="#FCD9D4" cx="248.577" cy="367.08" rx="6.819" ry="7.125"/>
	<g>
		<path fill="#967C5A" d="M436.495,271.769c-1.363,1.969-0.329-2.396-3.235-4.163c-24.971-15.403-56.279-7.989-69.868,9.292
			c-1.627,1.913-4.369,2.551-6.543,1.448l0,0c-2.162-1.096-2.767-3.874-0.87-6.226c17.369-19.435,52.698-24.69,77.675-7.313
			c3.074,1.771,3.559,5.788,2.136,7.687C436.024,272.251,436.26,272.01,436.495,271.769z"/>
	</g>
	<linearGradient id="SVGID_29_" gradientUnits="userSpaceOnUse" x1="331.5283" y1="492.1758" x2="331.5283" y2="457.3164">
		<stop  offset="0" style="stop-color:#F7CEBA;stop-opacity:0.2"/>
		<stop  offset="0.4466" style="stop-color:#F6CBB8;stop-opacity:0.5573"/>
		<stop  offset="0.7267" style="stop-color:#F2C3B3;stop-opacity:0.7813"/>
		<stop  offset="0.9606" style="stop-color:#EBB4A9;stop-opacity:0.9685"/>
		<stop  offset="1" style="stop-color:#EAB1A7"/>
	</linearGradient>
	<path opacity="0.5" fill="url(#SVGID_29_)" d="M360.393,474.746c0,11.658-12.924,17.43-28.865,17.43
		c-15.942,0-28.863-7.804-28.863-17.43s12.921-17.43,28.863-17.43C347.469,457.316,360.393,465.12,360.393,474.746z"/>
	<path opacity="0.4" fill="#EDA9A2" d="M254.949,409.287c1.148-0.484,2.146-0.684,2.228-0.45l12.717,36.347
		c0.082,0.235-0.782,0.817-1.93,1.302l0,0c-1.148,0.481-2.146,0.682-2.228,0.447l-12.716-36.346
		C252.938,410.351,253.801,409.769,254.949,409.287L254.949,409.287z"/>
	<path opacity="0.4" fill="#EDA9A2" d="M411.897,411.378c1.195,0.354,2.093,0.832,2.008,1.064l-13.215,36.169
		c-0.085,0.234-1.122,0.137-2.317-0.217l0,0c-1.193-0.356-2.091-0.833-2.006-1.066l13.215-36.168
		C409.667,410.925,410.705,411.023,411.897,411.378L411.897,411.378z"/>
	<g>
		<path fill="#EDA9A2" d="M294.806,318.843c1.056,0.715,1.83,1.404,1.667,1.588c-8.293,9.45-22.01,16.335-38.415,16.133
			c-0.319-0.003-1.054-1.1-1.562-2.454l0,0c-0.508-1.353-0.612-2.437-0.314-2.419c15.546,0.831,28.62-5.304,36.487-13.88
			C292.822,317.644,293.75,318.128,294.806,318.843L294.806,318.843z"/>
	</g>
	<g>
		<path fill="#EDA9A2" d="M372.697,316.835c-1.055,0.715-1.829,1.404-1.666,1.588c8.293,9.45,22.01,16.335,38.415,16.133
			c0.319-0.003,1.054-1.1,1.562-2.454l0,0c0.508-1.353,0.612-2.437,0.314-2.419c-15.546,0.831-28.62-5.304-36.487-13.88
			C374.682,315.636,373.754,316.121,372.697,316.835L372.697,316.835z"/>
	</g>
	<path fill="#EDA9A2" d="M417.695,298.685c0.07,0.982,0.23,1.764,0.361,1.747l20.067-2.708c0.131-0.017,0.18-0.828,0.11-1.81l0,0
		c-0.068-0.982-0.229-1.764-0.359-1.746l-20.067,2.708C417.676,296.894,417.627,297.703,417.695,298.685L417.695,298.685z"/>
</g>
<g id="arm">
	<g>
		
			<linearGradient id="SVGID_30_" gradientUnits="userSpaceOnUse" x1="-180.6646" y1="727.3135" x2="-365.5571" y2="727.3135" gradientTransform="matrix(-0.9989 -0.0477 -0.0477 0.9989 328.0565 63.3426)">
			<stop  offset="0.147" style="stop-color:#41437B"/>
			<stop  offset="0.5908" style="stop-color:#3F4178"/>
			<stop  offset="0.9739" style="stop-color:#383C6D"/>
			<stop  offset="1" style="stop-color:#373B6C"/>
		</linearGradient>
		<path fill="url(#SVGID_30_)" d="M468.555,926.124c-6.206,19.92,12.928,43.597,42.735,52.882l0,0
			c29.805,9.286,59,0.665,65.204-19.255l87.278-280.163c6.206-19.921-12.927-43.596-42.733-52.882l0,0
			c-29.807-9.286-59.002-0.665-65.207,19.255L468.555,926.124z"/>
		
			<ellipse transform="matrix(-0.949 -0.3153 0.3153 -0.949 989.6511 1475.402)" opacity="0.5" fill="#101011" cx="614.16" cy="657.655" rx="48.893" ry="28.371"/>
		<g>
			
				<linearGradient id="SVGID_31_" gradientUnits="userSpaceOnUse" x1="-392.105" y1="260.3154" x2="-392.105" y2="378.2241" gradientTransform="matrix(-0.465 -0.8509 -0.8776 0.4795 731.7585 142.9025)">
				<stop  offset="0" style="stop-color:#F7CEBA"/>
				<stop  offset="0.4466" style="stop-color:#F6CBB8"/>
				<stop  offset="0.7267" style="stop-color:#F2C3B3"/>
				<stop  offset="0.9606" style="stop-color:#EBB4A9"/>
				<stop  offset="1" style="stop-color:#EAB1A7"/>
			</linearGradient>
			<path fill="url(#SVGID_31_)" d="M594.823,598.645c-19.96,10.285-25.938,36.258-13.353,58.01l0,0
				c12.587,21.751,38.968,31.046,58.929,20.759l32.536-16.768c19.958-10.288,25.937-36.263,13.353-58.012l0,0
				c-12.585-21.752-38.97-31.046-58.93-20.76L594.823,598.645z"/>
			
				<linearGradient id="SVGID_32_" gradientUnits="userSpaceOnUse" x1="-358.5303" y1="293.5171" x2="-383.1641" y2="293.5171" gradientTransform="matrix(-0.4795 -0.8776 -1.1585 0.6331 860.368 75.7654)">
				<stop  offset="0" style="stop-color:#F7CEBA"/>
				<stop  offset="0.4466" style="stop-color:#F6CBB8"/>
				<stop  offset="0.7267" style="stop-color:#F2C3B3"/>
				<stop  offset="0.9606" style="stop-color:#EBB4A9"/>
				<stop  offset="1" style="stop-color:#EAB1A7"/>
			</linearGradient>
			<path fill="url(#SVGID_32_)" d="M664.697,591.275c-6.269,3.274-8.689,10.455-5.406,16.044l0,0
				c3.285,5.586,11.03,7.462,17.299,4.191l55.007-28.723c6.27-3.273,8.689-10.456,5.405-16.042l0,0
				c-3.284-5.589-11.027-7.464-17.297-4.189L664.697,591.275z"/>
			
				<linearGradient id="SVGID_33_" gradientUnits="userSpaceOnUse" x1="-349.8247" y1="215.1162" x2="-374.5337" y2="215.1162" gradientTransform="matrix(-0.3618 -0.9323 -0.9978 0.3872 787.4396 188.6493)">
				<stop  offset="0" style="stop-color:#F7CEBA"/>
				<stop  offset="0.4466" style="stop-color:#F6CBB8"/>
				<stop  offset="0.7267" style="stop-color:#F2C3B3"/>
				<stop  offset="0.9606" style="stop-color:#EBB4A9"/>
				<stop  offset="1" style="stop-color:#EAB1A7"/>
			</linearGradient>
			<path fill="url(#SVGID_33_)" d="M674.211,607.858c-5.723,2.07-8.338,8.594-5.843,14.574l0,0c2.497,5.979,9.162,9.148,14.885,7.08
				l50.221-18.152c5.722-2.069,8.338-8.593,5.843-14.573l0,0c-2.498-5.979-9.162-9.149-14.885-7.08L674.211,607.858z"/>
			
				<linearGradient id="SVGID_34_" gradientUnits="userSpaceOnUse" x1="-363.3359" y1="267.7202" x2="-387.6934" y2="267.7202" gradientTransform="matrix(-0.3385 -0.941 -1.2472 0.4486 909.1508 160.2617)">
				<stop  offset="0" style="stop-color:#F7CEBA"/>
				<stop  offset="0.4466" style="stop-color:#F6CBB8"/>
				<stop  offset="0.7267" style="stop-color:#F2C3B3"/>
				<stop  offset="0.9606" style="stop-color:#EBB4A9"/>
				<stop  offset="1" style="stop-color:#EAB1A7"/>
			</linearGradient>
			<path fill="url(#SVGID_34_)" d="M675.414,630.484c-5.153,1.744-7.398,8.046-5.017,14.07l0,0
				c2.386,6.028,8.497,9.498,13.649,7.752l45.222-15.31c5.154-1.742,7.4-8.044,5.016-14.07l0,0
				c-2.383-6.026-8.493-9.498-13.648-7.752L675.414,630.484z"/>
			
				<linearGradient id="SVGID_35_" gradientUnits="userSpaceOnUse" x1="-332.5879" y1="326.7324" x2="-357.2227" y2="326.7324" gradientTransform="matrix(-0.4795 -0.8776 -1.2051 0.6585 901.5151 53.2861)">
				<stop  offset="0" style="stop-color:#F7CEBA"/>
				<stop  offset="0.4466" style="stop-color:#F6CBB8"/>
				<stop  offset="0.7267" style="stop-color:#F2C3B3"/>
				<stop  offset="0.9606" style="stop-color:#EBB4A9"/>
				<stop  offset="1" style="stop-color:#EAB1A7"/>
			</linearGradient>
			<path fill="url(#SVGID_35_)" d="M638.6,575.979c-6.52,3.408-9.136,10.7-5.846,16.282l0,0c3.292,5.584,11.245,7.346,17.764,3.936
				l57.197-29.915c6.519-3.41,9.134-10.699,5.842-16.283l0,0c-3.29-5.585-11.242-7.345-17.761-3.936L638.6,575.979z"/>
			<path opacity="0.4" fill="#EDA9A2" d="M652.825,636.102c0.153,1.237,0.073,2.25-0.175,2.266l-38.436,2.324
				c-0.25,0.015-0.575-0.975-0.728-2.211l0,0c-0.149-1.236-0.071-2.25,0.177-2.266l38.436-2.324
				C652.35,633.876,652.674,634.866,652.825,636.102L652.825,636.102z"/>
			
				<linearGradient id="SVGID_36_" gradientUnits="userSpaceOnUse" x1="-293.7798" y1="278.5225" x2="-318.4888" y2="278.5225" gradientTransform="matrix(-0.7753 -0.6317 -0.6761 0.8297 573.9594 159.2025)">
				<stop  offset="0" style="stop-color:#F7CEBA"/>
				<stop  offset="0.4466" style="stop-color:#F6CBB8"/>
				<stop  offset="0.7267" style="stop-color:#F2C3B3"/>
				<stop  offset="0.9606" style="stop-color:#EBB4A9"/>
				<stop  offset="1" style="stop-color:#EAB1A7"/>
			</linearGradient>
			<path fill="url(#SVGID_36_)" d="M596.379,596.803c-3.953,4.629-3.002,11.592,2.122,15.559l0,0
				c5.125,3.963,12.486,3.426,16.438-1.201l34.688-40.6c3.953-4.627,3.003-11.591-2.122-15.558l0,0
				c-5.126-3.962-12.486-3.425-16.438,1.201L596.379,596.803z"/>
		</g>
	</g>
</g>
</svg>
