<?xml version="1.0" encoding="utf-8"?>
<!-- Generator: Adobe Illustrator 16.0.0, SVG Export Plug-In . SVG Version: 6.00 Build 0)  -->
<!DOCTYPE svg PUBLIC "-//W3C//DTD SVG 1.1//EN" "http://www.w3.org/Graphics/SVG/1.1/DTD/svg11.dtd">
<svg version="1.1" xmlns="http://www.w3.org/2000/svg" xmlns:xlink="http://www.w3.org/1999/xlink" x="0px" y="0px" width="768px"
	 height="768px" viewBox="0 0 768 768" enable-background="new 0 0 768 768" xml:space="preserve">
<g id="background">
	<rect fill="#4F61AF" width="768" height="772.651"/>
</g>
<g id="Layer_4">
	<radialGradient id="SVGID_1_" cx="380.8955" cy="401.2031" r="435.3892" gradientUnits="userSpaceOnUse">
		<stop  offset="0" style="stop-color:#FFFFFF"/>
		<stop  offset="0.9534" style="stop-color:#FFFFFF;stop-opacity:0"/>
	</radialGradient>
	<path fill="url(#SVGID_1_)" d="M813.057,405.454l1.759,0.025l-35.417-159.705L399.542,389.133c-1.396-2.71-3.214-5.166-5.371-7.279
		l314.644-267.29L576.992,17.698l-0.685,1.28l-1.531-1.119l-190.16,357.825c-2.501-0.974-5.173-1.601-7.96-1.826l34.447-243.607
		l24.016-164.293l-0.794,0.07l0.237-1.679L271.675-20.558l14.02,58.547L364.827,375.4c-1.002,0.358-1.978,0.769-2.925,1.232
		L180.434,5.442L54.018,109.268l299.418,273.707c-1.5,1.64-2.808,3.458-3.892,5.417L-21.331,219.269l-31.693,160.484l399.074,20.903
		c-0.023,0.476-0.036,0.953-0.036,1.434c0,2.11,0.238,4.164,0.675,6.143L-51.034,503.25l73.7,146.04l329.136-230.046
		c1.955,2.565,4.338,4.785,7.042,6.557l-64.862,93.359L122.239,760.799l3.014,1.222l-1.85,2.662l152.256,59.813l49.382-209.31
		l45.74-184.995c1.169,0.147,2.357,0.231,3.566,0.231c3.153,0,6.182-0.522,9.015-1.474l52.325,409.107l153.093-57.638
		L392.649,423.711c1.494-1.266,2.854-2.685,4.058-4.23l303.341,275.707l79.121-143.177L401.822,409.026
		c0.559-2.22,0.858-4.543,0.858-6.937c0-0.362-0.014-0.721-0.027-1.079l410.711,5.827L813.057,405.454z"/>
</g>
<g id="letter">
	<g>
		<polygon fill="#DBD5C3" points="662.239,366.652 173.369,711 96.761,179.696 102.761,165.696 		"/>
		<polygon fill="#F2F0E7" points="671.239,352.652 185.369,682 102.761,165.696 544.065,57 		"/>
		<path fill="#ADA48E" d="M119.761,184.696c0,0,269.696,124.261,276.218,125.348s18.478,7.608,29.348,0
			C436.196,302.435,538.718,90.479,543.065,72"/>
		<path fill="#F2F0E7" d="M109.761,180.696c0,0,276.696,113.261,283.218,114.348s18.478,7.608,29.348,0
			C433.196,287.435,539.718,85.479,544.065,67"/>
		<polygon fill="#DBD5C3" points="583.196,339.608 671.239,352.652 663.271,366.652 		"/>
		<polygon fill="#DBD5C3" points="268.625,510.22 186.027,686.314 179.357,664.867 		"/>
	</g>
</g>
<g id="symbol">
	<g opacity="0.9">
		<path fill="#2E3682" d="M491.412,312.909c12.773,46.518-7.247,92.567-44.715,102.853c-37.468,10.291-78.197-19.079-90.97-65.597
			c-12.773-46.517,7.247-92.565,44.716-102.854C437.911,237.024,478.64,266.393,491.412,312.909z"/>
		
			<linearGradient id="SVGID_2_" gradientUnits="userSpaceOnUse" x1="395.0479" y1="380.457" x2="395.0479" y2="555.1421" gradientTransform="matrix(0.9643 -0.2648 0.2648 0.9643 -77.6953 -18.6777)">
			<stop  offset="0" style="stop-color:#323ACC"/>
			<stop  offset="1" style="stop-color:#323A81"/>
		</linearGradient>
		<path fill="url(#SVGID_2_)" d="M494.958,309.196c12.773,46.517-7.247,92.565-44.716,102.854
			c-37.467,10.288-78.196-19.081-90.968-65.598c-12.773-46.517,7.247-92.566,44.715-102.854
			C441.458,233.311,482.186,262.679,494.958,309.196z"/>
		<g>
			<path fill="#F7F5F0" d="M469.048,357.684c-2.287,5.979-13.248,16.2-25.95,22.666c-26.632,13.558-50.541,5.779-61.94-16.619
				c-16.477-32.369-1.11-78.194,29.481-93.768c23.766-12.097,43.562-4.288,54.893,17.974c9.038,17.755,4.852,45.68-19.321,57.985
				c-2.596,1.32-6.167,0.387-7.35-1.936c-0.972-1.911-2.451-7.521-3.492-18.686l-0.684,0.004c-1.57,10.431-7.46,30.279-17.84,35.564
				c-3.415,1.737-8.287,0.95-10.998-4.376c-9.246-18.165,0.212-56.341,16.055-64.405c5.327-2.711,8.836-0.886,10.765,0.54
				l0.454-3.499c0.129-1.098,0.334-1.373,0.88-1.65l5.189-2.643c1.093-0.556,1.373,0.333,1.379,1.019
				c-0.243,4.251,1.624,25.826,1.778,28.156c0.24,4.863,1.634,17.396,3.857,21.768c0.974,1.912,2.894,1.967,5.353,0.715
				c7.373-3.753,16.766-22.463,4.877-45.818c-10.218-20.076-26.356-24.416-44.794-15.03c-27.861,14.182-34.837,54.532-21.35,81.028
				c11.263,22.126,32.685,27.386,52.146,17.308c8.74-4.449,17.816-9.929,23.099-18.809L469.048,357.684z M419.589,351.733
				c8.331-4.24,13.818-32.312,13.709-37.933c0.025-6.03-0.554-10.208-1.735-12.529c-1.945-3.823-5.868-6.126-9.419-4.318
				c-11.338,5.771-14.037,40.332-8.057,52.078C415.477,351.763,417.404,352.846,419.589,351.733z"/>
		</g>
	</g>
</g>
</svg>
