<?xml version="1.0" encoding="utf-8"?>
<!-- Generator: Adobe Illustrator 16.0.0, SVG Export Plug-In . SVG Version: 6.00 Build 0)  -->
<!DOCTYPE svg PUBLIC "-//W3C//DTD SVG 1.1//EN" "http://www.w3.org/Graphics/SVG/1.1/DTD/svg11.dtd">
<svg version="1.1" xmlns="http://www.w3.org/2000/svg" xmlns:xlink="http://www.w3.org/1999/xlink" x="0px" y="0px" width="768px"
	 height="768px" viewBox="0 0 768 768" enable-background="new 0 0 768 768" xml:space="preserve">
<g id="background">
	<rect x="397.475" y="-32.889" fill="#B72121" width="422.89" height="817.459"/>
	<rect x="-47.944" y="-32.889" fill="#384184" width="422.891" height="817.459"/>
</g>
<g id="shine_burst">
	<radialGradient id="SVGID_1_" cx="380.8955" cy="401.2031" r="435.3892" gradientUnits="userSpaceOnUse">
		<stop  offset="0" style="stop-color:#FFFFFF"/>
		<stop  offset="0.8446" style="stop-color:#FFFFFF;stop-opacity:0"/>
	</radialGradient>
	<path opacity="0.3" fill="url(#SVGID_1_)" d="M813.057,405.454l1.759,0.025l-35.417-159.705L399.542,389.133
		c-1.396-2.71-3.214-5.166-5.371-7.279l314.644-267.29L576.992,17.698l-0.685,1.28l-1.531-1.119l-190.16,357.825
		c-2.501-0.974-5.173-1.601-7.96-1.826l34.447-243.607l24.016-164.293l-0.794,0.07l0.237-1.679L271.675-20.558l14.02,58.547
		L364.827,375.4c-1.002,0.358-1.978,0.769-2.925,1.232L180.434,5.442L54.018,109.268l299.418,273.707
		c-1.5,1.64-2.808,3.458-3.892,5.417L-21.331,219.269l-31.693,160.484l399.074,20.903c-0.023,0.476-0.036,0.953-0.036,1.434
		c0,2.11,0.238,4.164,0.675,6.143L-51.034,503.25l73.7,146.04l329.136-230.046c1.955,2.565,4.338,4.785,7.042,6.557l-64.862,93.359
		L122.239,760.799l3.014,1.222l-1.85,2.662l152.256,59.813l49.382-209.31l45.74-184.995c1.169,0.147,2.357,0.231,3.566,0.231
		c3.153,0,6.182-0.522,9.015-1.474l52.325,409.107l153.093-57.638L392.649,423.711c1.494-1.266,2.854-2.685,4.058-4.23
		l303.341,275.707l79.121-143.177L401.822,409.026c0.559-2.22,0.858-4.543,0.858-6.937c0-0.362-0.014-0.721-0.027-1.079
		l410.711,5.827L813.057,405.454z"/>
</g>
<g id="right_hand">
	<path fill="#B7876C" d="M383.429,336.599c14.524-3.293,17.746,12.888,9.626,17.689L194.261,471.105
		c-8.884,5.252-11.828,16.712-6.574,25.595c5.252,8.883,16.711,11.827,25.595,6.574l136.052-80.44l1.98,3.351L234.349,495.34
		c-8.883,5.252-11.827,16.712-6.575,25.596c5.254,8.883,16.713,11.826,25.595,6.574l116.966-69.156l2.282,3.861L276,519.341
		c-8.885,5.252-11.827,16.711-6.575,25.595c5.252,8.883,16.711,11.826,25.595,6.574l96.617-57.125l2.773,4.691l-59.983,35.465
		c-8.883,5.252-11.827,16.711-6.572,25.596c5.252,8.883,16.71,11.826,25.595,6.574l76.895-45.104l85.75-50.701l261.413-154.56
		l-79.868-135.085L515.229,289.11l-17.253,8.718c-6.93,0.693-18.793-6.319-27.859-13.379c-21.785-16.959-44.812-10.805-70.279,4.252
		c-25.468,15.057-110.797,65.508-110.797,65.508s14.329,29.134,33.396,17.018"/>
	
		<rect x="570.769" y="248.643" transform="matrix(0.8608 -0.509 0.509 0.8608 -91.3839 358.1013)" fill="#EDEBE6" width="76.3" height="194.916"/>
	
		<rect x="614.534" y="157.797" transform="matrix(0.8608 -0.5089 0.5089 0.8608 -25.222 423.1311)" width="292.747" height="199.753"/>
</g>
<g id="left_hand">
	<g>
		<path fill="#DBBAA2" d="M388.992,336.599c-14.524-3.293-17.746,12.888-9.625,17.689L578.16,471.105
			c8.884,5.252,11.828,16.712,6.574,25.595c-5.252,8.883-16.711,11.827-25.595,6.574l-136.052-80.44l-1.98,3.351l116.965,69.155
			c8.883,5.252,11.827,16.712,6.575,25.596c-5.254,8.883-16.713,11.826-25.595,6.574l-116.966-69.156l-2.282,3.861l96.616,57.126
			c8.885,5.252,11.827,16.711,6.575,25.595c-5.252,8.883-16.711,11.826-25.595,6.574l-96.617-57.125l-2.774,4.691l59.984,35.465
			c8.883,5.252,11.827,16.711,6.572,25.596c-5.252,8.883-16.71,11.826-25.595,6.574l-76.895-45.104l-85.75-50.701L-5.086,316.346
			l79.869-135.085l182.409,107.85l17.253,8.718c6.93,0.693,18.792-6.319,27.859-13.379c21.785-16.959,44.812-10.805,70.28,4.252
			c25.467,15.057,110.796,65.508,110.796,65.508s-14.329,29.134-33.396,17.018"/>
		
			<rect x="125.351" y="248.643" transform="matrix(-0.8608 -0.509 0.509 -0.8608 128.09 727.2367)" fill="#EDEBE6" width="76.301" height="194.916"/>
		
			<rect x="-134.86" y="157.797" transform="matrix(-0.8608 -0.5089 0.5089 -0.8608 -109.7176 485.3382)" width="292.747" height="199.753"/>
	</g>
	<g>
		<defs>
			<path id="SVGID_2_" d="M944.737,267.15L843.073,95.204L591.077,244.197l0.603,1.019l-58.201,34.411l0.365,0.617l-11.614,6.867
				l-17.253,8.718c-6.93,0.693-18.793-6.319-27.859-13.379c-21.785-16.959-44.812-10.805-70.279,4.252
				c-25.468,15.057-110.797,65.508-110.797,65.508s14.329,29.134,33.396,17.018l60.991-34.629
				c14.524-3.293,17.746,12.888,9.626,17.689L201.261,469.105c-8.884,5.252-11.828,16.712-6.574,25.595
				c5.252,8.883,16.711,11.827,25.595,6.574l136.052-80.44l1.98,3.351L241.349,493.34c-8.883,5.252-11.827,16.712-6.575,25.596
				c5.254,8.883,16.713,11.826,25.595,6.574l116.966-69.156l2.282,3.861L283,517.341c-8.885,5.252-11.827,16.711-6.575,25.595
				c5.252,8.883,16.711,11.826,25.595,6.574l96.617-57.125l2.773,4.691l-59.983,35.465c-8.883,5.252-11.827,16.711-6.572,25.596
				c5.252,8.883,16.71,11.826,25.595,6.574l76.895-45.104l85.75-50.701l90.619-53.578l18.969,32.082l58.199-34.412l1.86,3.146
				L944.737,267.15z"/>
		</defs>
		<clipPath id="SVGID_3_">
			<use xlink:href="#SVGID_2_"  overflow="visible"/>
		</clipPath>
		<path clip-path="url(#SVGID_3_)" fill="#B7876C" d="M298.782,431.134c5.31,8.795,2.483,20.229-6.312,25.539l-72.17,43.57
			c-8.795,5.31-20.229,2.484-25.539-6.311l0,0c-5.31-8.795-2.484-20.229,6.311-25.539l72.171-43.57
			C282.038,419.514,293.472,422.339,298.782,431.134L298.782,431.134z"/>
		<path opacity="0.2" clip-path="url(#SVGID_3_)" fill="#FFFFFF" d="M290.779,436.079c3.595,5.954,5.363,11.472,3.951,12.323
			l-11.586,6.995c-1.412,0.853-5.471-3.283-9.064-9.236l0,0c-3.594-5.953-5.363-11.471-3.951-12.323l11.586-6.994
			C283.126,425.991,287.185,430.126,290.779,436.079L290.779,436.079z"/>
		<path clip-path="url(#SVGID_3_)" fill="#B7876C" d="M322.653,465.399c5.31,8.795,2.483,20.229-6.312,25.539l-72.17,43.57
			c-8.795,5.31-20.229,2.484-25.539-6.311l0,0c-5.31-8.795-2.484-20.229,6.311-25.539l72.171-43.57
			C305.909,453.779,317.343,456.604,322.653,465.399L322.653,465.399z"/>
		<path opacity="0.2" clip-path="url(#SVGID_3_)" fill="#FFFFFF" d="M314.091,470.567c3.595,5.954,5.363,11.472,3.951,12.323
			l-11.586,6.995c-1.412,0.853-5.471-3.283-9.064-9.236l0,0c-3.594-5.953-5.363-11.471-3.951-12.323l11.586-6.994
			C306.439,460.479,310.498,464.614,314.091,470.567L314.091,470.567z"/>
		<path clip-path="url(#SVGID_3_)" fill="#B7876C" d="M354.031,495.525c5.309,8.795,2.482,20.229-6.312,25.539l-72.171,43.57
			c-8.795,5.31-20.229,2.484-25.539-6.311l0,0c-5.31-8.795-2.484-20.229,6.311-25.539l72.171-43.57
			C337.287,483.905,348.72,486.73,354.031,495.525L354.031,495.525z"/>
		<path opacity="0.2" clip-path="url(#SVGID_3_)" fill="#FFFFFF" d="M346.47,500.791c3.594,5.954,5.362,11.472,3.951,12.323
			l-11.587,6.995c-1.411,0.853-5.47-3.283-9.063-9.236l0,0c-3.595-5.953-5.364-11.471-3.952-12.323l11.586-6.994
			C338.817,490.703,342.876,494.838,346.47,500.791L346.47,500.791z"/>
		<path clip-path="url(#SVGID_3_)" fill="#B7876C" d="M382.325,529.211c5.31,8.795,2.484,20.229-6.31,25.539l-72.172,43.57
			c-8.795,5.31-20.229,2.484-25.538-6.311l0,0c-5.31-8.795-2.484-20.229,6.311-25.539l72.171-43.57
			C365.582,517.591,377.016,520.416,382.325,529.211L382.325,529.211z"/>
		<path opacity="0.2" clip-path="url(#SVGID_3_)" fill="#FFFFFF" d="M373.765,534.379c3.594,5.954,5.362,11.472,3.95,12.323
			l-11.586,6.995c-1.411,0.853-5.47-3.283-9.063-9.236l0,0c-3.595-5.953-5.364-11.471-3.952-12.323l11.586-6.994
			C366.112,524.291,370.171,528.426,373.765,534.379L373.765,534.379z"/>
	</g>
	<circle fill="#B5B5B4" cx="131" cy="420.5" r="10.5"/>
	<circle fill="#AAAAAA" cx="651.5" cy="413.644" r="10.5"/>
</g>
<g id="right_thumb">
	<path fill="#B7876C" d="M510.468,291.517l-12.491,6.312c-6.93,0.693-18.793-6.319-27.859-13.379
		c-21.785-16.959-44.812-10.805-70.279,4.252c-25.468,15.057-110.797,65.508-110.797,65.508s14.329,29.134,33.396,17.018
		l60.991-34.629c14.524-3.293,17.746,12.888,9.626,17.689l-6.603,3.88l161.024,94.183l37.959-22.443L510.468,291.517z"/>
</g>
</svg>
