<?xml version="1.0" encoding="utf-8"?>
<!-- Generator: Adobe Illustrator 16.0.0, SVG Export Plug-In . SVG Version: 6.00 Build 0)  -->
<!DOCTYPE svg PUBLIC "-//W3C//DTD SVG 1.1//EN" "http://www.w3.org/Graphics/SVG/1.1/DTD/svg11.dtd">
<svg version="1.1" xmlns="http://www.w3.org/2000/svg" xmlns:xlink="http://www.w3.org/1999/xlink" x="0px" y="0px" width="768px"
	 height="768px" viewBox="0 0 768 768" enable-background="new 0 0 768 768" xml:space="preserve">
<g id="Layer_3">
	<rect x="-7.915" y="-7.915" fill="#287493" width="783.83" height="783.83"/>
</g>
<g id="Layer_5">
	<radialGradient id="SVGID_1_" cx="380.8955" cy="401.2031" r="530.275" gradientUnits="userSpaceOnUse">
		<stop  offset="0" style="stop-color:#FFFFFF"/>
		<stop  offset="0.8446" style="stop-color:#FFFFFF;stop-opacity:0"/>
	</radialGradient>
	<path opacity="0.3" fill="url(#SVGID_1_)" d="M907.238,406.381l2.143,0.03l-43.136-194.51l-462.64,174.601
		c-1.7-3.3-3.914-6.291-6.541-8.865L780.279,52.097L619.729-65.881l-0.834,1.559l-1.865-1.363L385.427,370.122
		c-3.046-1.186-6.3-1.949-9.695-2.224l41.954-296.697l29.25-200.099l-0.968,0.085l0.289-2.045l-198.384,18.383l17.076,71.307
		l96.376,410.944c-1.22,0.436-2.409,0.937-3.562,1.501L136.747-80.808L-17.219,45.646l364.671,333.356
		c-1.828,1.998-3.419,4.212-4.74,6.598L-108.99,179.62l-38.6,195.459l486.045,25.458c-0.028,0.579-0.044,1.161-0.044,1.746
		c0,2.57,0.29,5.071,0.823,7.481l-484.4,115.725l89.761,177.867l400.866-280.181c2.38,3.125,5.283,5.828,8.577,7.985L275.04,544.867
		l-209.17,294.3l3.67,1.487l-2.253,3.242l185.438,72.85l60.144-254.926l55.708-225.312c1.423,0.18,2.871,0.282,4.343,0.282
		c3.84,0,7.529-0.637,10.98-1.795l63.729,498.266l186.456-70.199L395.211,428.616c1.819-1.541,3.476-3.27,4.941-5.152
		l369.449,335.793l96.364-174.38L406.383,410.731c0.681-2.703,1.046-5.533,1.046-8.448c0-0.441-0.017-0.878-0.034-1.314
		l500.219,7.098L907.238,406.381z"/>
</g>
<g id="Layer_4">
	<path opacity="0.2" fill="#080914" d="M485.236,311.915c5.529-39.395,0.435-80.769-16.982-119.771
		C418.839,81.486,289.074,31.839,178.417,81.253C67.758,130.669,18.111,260.434,67.526,371.092
		c13.656,30.582,33.457,56.492,57.288,76.951c8.539,101.601,22.603,203.289,42.217,304.609
		c44.166-23.973,86.005-50.021,125.388-77.821c50.832,14.022,103.361,25.13,157.318,33.021
		c-18.555-45.113-35.893-90.56-52.021-136.286c12.666-3.001,25.397-5.843,38.195-8.516c35.241,36.06,67.955,73.365,98.049,111.66
		c12.673-37.054,26.229-73.936,40.667-110.615c42.384-2.222,85.117-2.631,128.081-1.167
		C641.992,474.82,569.31,390.322,485.236,311.915z"/>
</g>
<g id="medal">
	<g>
		<g>
			<g>
				<defs>
					<path id="SVGID_2_" d="M229.769,349.215c132.712,89.131,244.545,193.768,333.539,307.017
						c12.673-37.054,26.229-73.936,40.667-110.615c42.384-2.222,85.117-2.631,128.081-1.167
						C646.85,420.803,538.096,304.253,407.33,201.691C343.286,247.759,284.024,297.185,229.769,349.215z"/>
				</defs>
				<clipPath id="SVGID_3_">
					<use xlink:href="#SVGID_2_"  overflow="visible"/>
				</clipPath>
			</g>
		</g>
		<g>
			
				<linearGradient id="SVGID_4_" gradientUnits="userSpaceOnUse" x1="594.7676" y1="696.6152" x2="334.2236" y2="245.3399" gradientTransform="matrix(0.9136 -0.4066 0.4066 0.9136 -124.9199 191.5896)">
				<stop  offset="0" style="stop-color:#B53333"/>
				<stop  offset="1" style="stop-color:#552323"/>
			</linearGradient>
			<path fill="url(#SVGID_4_)" d="M229.769,349.215c132.712,89.131,244.545,193.768,333.539,307.017
				c12.673-37.054,26.229-73.936,40.667-110.615c42.384-2.222,85.117-2.631,128.081-1.167
				C646.85,420.803,538.096,304.253,407.33,201.691C343.286,247.759,284.024,297.185,229.769,349.215z"/>
			<g>
				<defs>
					<path id="SVGID_5_" d="M229.769,349.215c132.712,89.131,244.545,193.768,333.539,307.017
						c12.673-37.054,26.229-73.936,40.667-110.615c42.384-2.222,85.117-2.631,128.081-1.167
						C646.85,420.803,538.096,304.253,407.33,201.691C343.286,247.759,284.024,297.185,229.769,349.215z"/>
				</defs>
				<clipPath id="SVGID_6_">
					<use xlink:href="#SVGID_5_"  overflow="visible"/>
				</clipPath>
				
					<linearGradient id="SVGID_7_" gradientUnits="userSpaceOnUse" x1="259.5024" y1="454.6143" x2="402.0459" y2="454.6143" gradientTransform="matrix(1.2363 -0.2506 0.1987 0.9801 -136.8086 104.2759)">
					<stop  offset="0" style="stop-color:#330000"/>
					<stop  offset="1" style="stop-color:#330000;stop-opacity:0"/>
				</linearGradient>
				<path clip-path="url(#SVGID_6_)" fill="url(#SVGID_7_)" d="M469.709,543.628c-48.873,10.048-96.807,22.502-143.628,37.229
					c-21.634-63.248-45.13-126.072-70.476-188.39c52.825-17.024,106.846-31.483,161.869-43.243
					C436.769,413.729,454.183,478.558,469.709,543.628z"/>
			</g>
		</g>
		<g>
			<g>
				<defs>
					<path id="SVGID_8_" d="M229.769,349.215c132.712,89.131,244.545,193.768,333.539,307.017
						c12.673-37.054,26.229-73.936,40.667-110.615c42.384-2.222,85.117-2.631,128.081-1.167
						C646.85,420.803,538.096,304.253,407.33,201.691C343.286,247.759,284.024,297.185,229.769,349.215z"/>
				</defs>
				<clipPath id="SVGID_9_">
					<use xlink:href="#SVGID_8_"  overflow="visible"/>
				</clipPath>
			</g>
		</g>
	</g>
	
		<linearGradient id="SVGID_10_" gradientUnits="userSpaceOnUse" x1="144.2266" y1="677.8379" x2="382.7754" y2="264.6592" gradientTransform="matrix(0.9408 -0.3391 0.3391 0.9408 -97.9209 158.1807)">
		<stop  offset="0" style="stop-color:#B53333"/>
		<stop  offset="1" style="stop-color:#552323"/>
	</linearGradient>
	<path fill="url(#SVGID_10_)" d="M146.338,302.062c5.545,143.911,22.217,288.382,50.041,432.112
		c44.166-23.973,86.005-50.021,125.388-77.821c50.832,14.022,103.361,25.13,157.318,33.021
		c-55.61-135.207-100.351-273.387-134.053-413.236C281.079,291.483,214.496,300.359,146.338,302.062z"/>
	<circle fill="#996322" cx="297.238" cy="263.14" r="219.434"/>
	
		<radialGradient id="SVGID_11_" cx="356.9683" cy="227.8296" r="219.4341" gradientTransform="matrix(0.9131 -0.4077 0.4077 0.9131 -125.2754 192.4453)" gradientUnits="userSpaceOnUse">
		<stop  offset="0" style="stop-color:#EAB812"/>
		<stop  offset="1" style="stop-color:#AB710A"/>
	</radialGradient>
	<circle fill="url(#SVGID_11_)" cx="293.568" cy="254.922" r="219.434"/>
	
		<radialGradient id="SVGID_12_" cx="356.9678" cy="227.8301" r="193.8291" gradientTransform="matrix(0.9131 -0.4077 0.4077 0.9131 -125.2754 192.4453)" gradientUnits="userSpaceOnUse">
		<stop  offset="0" style="stop-color:#EAB812"/>
		<stop  offset="0.9671" style="stop-color:#BB830C"/>
		<stop  offset="1" style="stop-color:#AB710A"/>
	</radialGradient>
	<circle fill="url(#SVGID_12_)" cx="293.568" cy="254.922" r="193.829"/>
	
		<linearGradient id="SVGID_13_" gradientUnits="userSpaceOnUse" x1="147.0439" y1="227.8301" x2="566.8926" y2="227.8301" gradientTransform="matrix(0.9131 -0.4077 0.4077 0.9131 -125.2754 192.4453)">
		<stop  offset="0" style="stop-color:#330000"/>
		<stop  offset="1" style="stop-color:#330000;stop-opacity:0"/>
	</linearGradient>
	<polygon opacity="0.2" fill="url(#SVGID_13_)" points="82.009,239.354 97.347,205.239 100.092,167.936 126.173,141.124 
		141.511,107.009 175.189,90.734 201.27,63.923 238.483,60.148 272.162,43.874 308.422,53.055 345.636,49.28 376.568,70.309 
		412.829,79.49 434.704,109.831 465.638,130.86 475.817,166.853 497.692,197.193 494.947,234.497 505.126,270.489 489.788,304.604 
		487.044,341.908 460.962,368.719 445.625,402.835 411.946,419.109 385.865,445.921 348.652,449.695 314.974,465.97 
		278.713,456.789 241.5,460.562 210.566,439.534 174.306,430.354 152.431,400.013 121.498,378.983 111.318,342.991 89.443,312.65 
		92.188,275.347 	"/>
</g>
<g id="text">
	<g opacity="0.8">
		<path fill="#381E11" d="M111.234,244.394l12.443-5.557l15.079,21.733l-4.042-26.662l12.398-5.537l17.158,20.768l-6.1-25.706
			l12.379-5.528l9.586,46.571l-12.846,5.736l-19.356-23.373l4.512,30.001l-12.846,5.736L111.234,244.394z"/>
		<path fill="#381E11" d="M181.648,238.41c-3.091-6.921-3.569-13.17-1.436-18.749c2.134-5.578,6.642-9.903,13.525-12.977
			c7.057-3.151,13.34-3.685,18.849-1.602c5.509,2.084,9.788,6.539,12.835,13.363c2.213,4.956,3.193,9.391,2.942,13.307
			c-0.252,3.917-1.56,7.46-3.924,10.632c-2.365,3.172-5.899,5.808-10.603,7.909c-4.782,2.136-9.08,3.142-12.893,3.017
			c-3.813-0.124-7.43-1.4-10.849-3.827C186.677,247.056,183.861,243.365,181.648,238.41z M194.774,232.617
			c1.912,4.281,4.08,7.001,6.506,8.161c2.426,1.161,5.007,1.128,7.745-0.094c2.815-1.257,4.584-3.146,5.309-5.666
			c0.725-2.52,0.029-6.152-2.089-10.896c-1.782-3.991-3.89-6.547-6.322-7.67c-2.433-1.122-5.027-1.067-7.784,0.164
			c-2.642,1.18-4.345,3.062-5.11,5.646C192.265,224.847,192.846,228.299,194.774,232.617z"/>
		<path fill="#381E11" d="M242.261,236.734l-18.933-42.397l21.834-9.75c4.049-1.808,7.298-2.843,9.749-3.104
			c2.449-0.262,4.749,0.255,6.901,1.549c2.15,1.294,3.829,3.292,5.034,5.99c1.05,2.352,1.455,4.605,1.214,6.759
			c-0.242,2.155-1.005,4.154-2.285,5.998c-0.818,1.176-2.102,2.419-3.852,3.732c1.792-0.175,3.163-0.162,4.107,0.041
			c0.636,0.133,1.667,0.563,3.091,1.293c1.424,0.73,2.428,1.334,3.012,1.815l11.83,9.452l-14.803,6.61l-12.789-9.83
			c-1.636-1.281-2.913-2.018-3.831-2.209c-1.237-0.233-2.455-0.083-3.65,0.45l-1.156,0.517l7.684,17.208L242.261,236.734z
			 M244.158,205.639l5.524-2.467c0.597-0.267,1.667-0.975,3.211-2.128c0.791-0.561,1.301-1.32,1.532-2.28
			c0.231-0.958,0.14-1.901-0.273-2.826c-0.611-1.368-1.515-2.226-2.709-2.571c-1.195-0.345-2.989,0.016-5.378,1.083l-5.755,2.57
			L244.158,205.639z"/>
		<path fill="#381E11" d="M269.225,173.842l13.101-5.85l14.271,31.956l20.447-9.13l4.662,10.44l-33.547,14.981L269.225,173.842z"/>
		<path fill="#381E11" d="M308.903,156.123l19.463-8.691c3.836-1.713,7.168-2.577,9.995-2.591c2.827-0.014,5.445,0.61,7.857,1.868
			c2.411,1.259,4.542,3.025,6.391,5.298c1.847,2.274,3.417,4.857,4.708,7.749c2.023,4.531,3.077,8.275,3.161,11.231
			c0.082,2.958-0.415,5.69-1.493,8.194c-1.079,2.505-2.544,4.507-4.395,6.004c-2.529,2.055-4.959,3.602-7.292,4.644l-19.463,8.691
			L308.903,156.123z M326.292,159.874l10.344,23.165l3.21-1.434c2.736-1.222,4.548-2.396,5.436-3.52
			c0.885-1.124,1.317-2.589,1.297-4.395c-0.021-1.806-0.788-4.406-2.304-7.8c-2.005-4.492-4.113-7.239-6.318-8.244
			c-2.206-1.003-5.005-0.748-8.398,0.768L326.292,159.874z"/>
		<path fill="#381E11" d="M352.163,135.938l12.579-5.618l4.326,9.688c1.594,3.567,2.109,6.718,1.552,9.454
			c-0.56,2.737-2.283,5.685-5.172,8.848l-5.046-3.921c1.771-2.04,2.846-3.762,3.224-5.168c0.378-1.406,0.3-2.833-0.231-4.285
			l-6.015,2.686L352.163,135.938z"/>
		<path fill="#381E11" d="M381.639,157.67l12.116-6.347c1.173,1.905,2.412,3.202,3.715,3.891c2.114,1.114,4.426,1.11,6.933-0.009
			c1.869-0.835,3.116-1.917,3.736-3.247s0.672-2.572,0.155-3.729c-0.49-1.099-1.412-1.866-2.763-2.304
			c-1.353-0.436-3.953-0.257-7.807,0.538c-6.323,1.274-11.187,1.388-14.591,0.341c-3.424-1.038-5.875-3.215-7.356-6.531
			c-0.973-2.178-1.261-4.519-0.862-7.021c0.397-2.501,1.615-4.873,3.656-7.114c2.041-2.24,5.268-4.346,9.683-6.318
			c5.418-2.419,9.999-3.256,13.742-2.512c3.743,0.746,6.866,3.195,9.37,7.349l-12.025,6.238c-1.183-1.761-2.49-2.843-3.928-3.241
			c-1.438-0.398-3.083-0.184-4.935,0.643c-1.523,0.68-2.527,1.516-3.009,2.505c-0.482,0.991-0.517,1.948-0.104,2.873
			c0.301,0.675,0.89,1.141,1.768,1.397c0.867,0.283,2.564,0.15,5.094-0.402c6.276-1.323,10.935-1.906,13.978-1.75
			c3.042,0.157,5.544,0.918,7.506,2.286c1.964,1.366,3.462,3.206,4.495,5.52c1.214,2.718,1.582,5.561,1.102,8.526
			c-0.479,2.967-1.804,5.645-3.974,8.035c-2.17,2.392-5.308,4.504-9.414,6.338c-7.212,3.221-12.824,4.062-16.84,2.525
			C387.063,164.613,383.915,161.787,381.639,157.67z"/>
		<path fill="#381E11" d="M181.014,284.082l31.492-14.062c5.249-2.345,9.858-2.843,13.829-1.499c3.97,1.344,6.813,3.936,8.526,7.772
			c1.437,3.219,1.667,6.427,0.691,9.625c-0.652,2.132-2.066,4.219-4.243,6.259c4.331-0.805,7.93-0.475,10.798,0.991
			c2.866,1.467,5.075,3.933,6.623,7.398c1.26,2.822,1.737,5.653,1.431,8.492c-0.306,2.84-1.305,5.424-2.997,7.752
			c-1.047,1.448-2.911,2.993-5.592,4.636c-3.565,2.187-5.97,3.557-7.207,4.109l-29.041,12.968L181.014,284.082z M207.521,297.857
			l7.316-3.268c2.623-1.171,4.247-2.439,4.872-3.801c0.623-1.363,0.554-2.898-0.209-4.606c-0.707-1.584-1.774-2.593-3.199-3.026
			c-1.426-0.433-3.413-0.079-5.963,1.06l-7.427,3.317L207.521,297.857z M217.073,319.247l8.578-3.831
			c2.897-1.293,4.71-2.718,5.44-4.277c0.73-1.558,0.707-3.203-0.067-4.937c-0.719-1.608-1.885-2.64-3.496-3.093
			c-1.613-0.452-3.893-0.021-6.839,1.295l-8.542,3.814L217.073,319.247z"/>
		<path fill="#381E11" d="M240.098,257.698l45.083-20.132l5.19,11.623l-28.224,12.604l3.863,8.652l26.182-11.691l4.958,11.104
			l-26.182,11.691l4.792,10.733l29.041-12.968l5.505,12.329l-45.9,20.497L240.098,257.698z"/>
		<path fill="#381E11" d="M308.393,270.895l15.558-8.15c1.507,2.445,3.097,4.111,4.77,4.998c2.719,1.429,5.685,1.424,8.903-0.013
			c2.402-1.073,4.001-2.461,4.798-4.169c0.796-1.707,0.864-3.303,0.2-4.789c-0.63-1.411-1.813-2.397-3.549-2.958
			c-1.734-0.562-5.077-0.331-10.025,0.69c-8.118,1.636-14.362,1.781-18.732,0.438c-4.396-1.333-7.546-4.128-9.448-8.387
			c-1.249-2.796-1.619-5.802-1.107-9.014c0.509-3.211,2.075-6.257,4.695-9.135c2.619-2.875,6.764-5.581,12.434-8.113
			c6.956-3.106,12.839-4.182,17.646-3.225c4.807,0.956,8.818,4.102,12.031,9.436l-15.442,8.01c-1.515-2.263-3.197-3.65-5.043-4.162
			c-1.846-0.512-3.958-0.237-6.334,0.824c-1.957,0.874-3.244,1.946-3.864,3.217c-0.621,1.273-0.666,2.502-0.134,3.691
			c0.386,0.866,1.144,1.464,2.271,1.792c1.112,0.364,3.293,0.193,6.54-0.516c8.06-1.699,14.043-2.447,17.949-2.247
			c3.904,0.201,7.117,1.179,9.639,2.933c2.52,1.755,4.444,4.118,5.771,7.089c1.56,3.49,2.03,7.141,1.416,10.948
			c-0.615,3.809-2.317,7.249-5.103,10.319c-2.786,3.071-6.816,5.783-12.089,8.138c-9.259,4.134-16.468,5.216-21.625,3.243
			C315.358,279.811,311.319,276.181,308.393,270.895z"/>
		<path fill="#381E11" d="M346.157,210.336l51.137-22.835l6.003,13.443l-17.157,7.663l18.307,40.998l-16.821,7.512l-18.308-40.999
			l-17.157,7.661L346.157,210.336z"/>
		<path fill="#381E11" d="M212.184,355l27.964-12.488c6.089-2.719,11.298-3.307,15.624-1.767c4.327,1.543,7.684,4.988,10.072,10.336
			c2.455,5.496,2.72,10.53,0.797,15.1c-1.924,4.571-6.277,8.371-13.06,11.399l-9.21,4.112l9.021,20.202l-16.897,7.546L212.184,355z
			 M239.446,370.665l4.122-1.841c3.242-1.448,5.269-3.028,6.078-4.742c0.809-1.71,0.822-3.446,0.037-5.205
			c-0.763-1.708-1.98-2.902-3.649-3.583c-1.669-0.679-4.076-0.317-7.22,1.086l-4.791,2.139L239.446,370.665z"/>
		<path fill="#381E11" d="M291.717,384.781l-24.312-54.44l28.038-12.521c5.199-2.322,9.371-3.651,12.518-3.986
			c3.146-0.336,6.1,0.327,8.861,1.989c2.761,1.662,4.916,4.226,6.464,7.692c1.349,3.02,1.868,5.913,1.557,8.68
			c-0.31,2.766-1.287,5.333-2.934,7.701c-1.048,1.509-2.697,3.105-4.946,4.792c2.303-0.226,4.062-0.208,5.277,0.052
			c0.817,0.17,2.139,0.723,3.969,1.661c1.827,0.938,3.116,1.715,3.867,2.33l15.191,12.137l-19.009,8.489l-16.422-12.622
			c-2.1-1.646-3.74-2.591-4.918-2.837c-1.59-0.298-3.152-0.106-4.687,0.579l-1.485,0.664l9.867,22.096L291.717,384.781z
			 M294.152,344.854l7.093-3.167c0.767-0.343,2.142-1.253,4.125-2.732c1.015-0.721,1.67-1.696,1.967-2.928
			c0.296-1.23,0.179-2.441-0.351-3.629c-0.785-1.757-1.945-2.858-3.479-3.301c-1.534-0.442-3.837,0.02-6.906,1.391l-7.39,3.3
			L294.152,344.854z"/>
		<path fill="#381E11" d="M326.303,304.04l45.084-20.132l5.19,11.623l-28.224,12.603l3.864,8.653l26.18-11.691l4.96,11.104
			l-26.181,11.691l4.791,10.731l29.04-12.968l5.506,12.329l-45.9,20.497L326.303,304.04z"/>
		<path fill="#381E11" d="M379.89,280.11l47.608-21.26l4.858,10.881l-16.332,45.51l31.675-14.145l5.223,11.698l-51.655,23.067
			l-5.041-11.289l16.161-45.033l-27.306,12.194L379.89,280.11z"/>
	</g>
</g>
</svg>
