<?xml version="1.0" encoding="utf-8"?>
<!-- Generator: Adobe Illustrator 16.0.0, SVG Export Plug-In . SVG Version: 6.00 Build 0)  -->
<!DOCTYPE svg PUBLIC "-//W3C//DTD SVG 1.1//EN" "http://www.w3.org/Graphics/SVG/1.1/DTD/svg11.dtd">
<svg version="1.1" xmlns="http://www.w3.org/2000/svg" xmlns:xlink="http://www.w3.org/1999/xlink" x="0px" y="0px" width="768px"
	 height="768px" viewBox="0 0 768 768" enable-background="new 0 0 768 768" xml:space="preserve">
<g id="Layer_2">
	<rect x="-9.5" y="-5" fill="#CE4824" width="787" height="778"/>
</g>
<g id="Layer_3">
	<radialGradient id="SVGID_1_" cx="380.8955" cy="401.2031" r="530.275" gradientUnits="userSpaceOnUse">
		<stop  offset="0" style="stop-color:#FFFFFF"/>
		<stop  offset="0.8446" style="stop-color:#FFFFFF;stop-opacity:0"/>
	</radialGradient>
	<path opacity="0.3" fill="url(#SVGID_1_)" d="M907.238,406.381l2.143,0.03l-43.136-194.51l-462.64,174.601
		c-1.7-3.3-3.914-6.291-6.541-8.865L780.279,52.097L619.729-65.881l-0.834,1.559l-1.865-1.363L385.427,370.122
		c-3.046-1.186-6.3-1.949-9.695-2.224l41.954-296.697l29.25-200.099l-0.968,0.085l0.289-2.045l-198.384,18.383l17.076,71.307
		l96.376,410.944c-1.22,0.436-2.409,0.937-3.562,1.501L136.747-80.808L-17.219,45.646l364.671,333.356
		c-1.828,1.998-3.419,4.212-4.74,6.598L-108.99,179.62l-38.6,195.459l486.045,25.458c-0.028,0.579-0.044,1.161-0.044,1.746
		c0,2.57,0.29,5.071,0.823,7.481l-484.4,115.725l89.761,177.867l400.866-280.181c2.38,3.125,5.283,5.828,8.577,7.985L275.04,544.867
		l-209.17,294.3l3.67,1.487l-2.253,3.242l185.438,72.85l60.144-254.926l55.708-225.312c1.423,0.18,2.871,0.282,4.343,0.282
		c3.84,0,7.529-0.637,10.98-1.795l63.729,498.266l186.456-70.199L395.211,428.616c1.819-1.541,3.476-3.27,4.941-5.152
		l369.449,335.793l96.364-174.38L406.383,410.731c0.681-2.703,1.046-5.533,1.046-8.448c0-0.441-0.017-0.878-0.034-1.314
		l500.219,7.098L907.238,406.381z"/>
</g>
<g id="Layer_1">
	<g>
		<g opacity="0.34">
			<circle cx="388.529" cy="224.666" r="23.191"/>
			<path d="M461.523,691.806c1.33,6.787,7.911,11.209,14.698,9.879l0,0c6.786-1.33,11.209-7.909,9.879-14.698l-86.007-438.755
				c-1.33-6.787-7.911-11.21-14.697-9.879l0,0c-6.787,1.33-11.21,7.91-9.88,14.697L461.523,691.806z"/>
			<path d="M314.679,691.806c-1.33,6.787-7.91,11.209-14.696,9.879l0,0c-6.787-1.33-11.211-7.909-9.881-14.698l86.008-438.755
				c1.33-6.787,7.91-11.21,14.697-9.879l0,0c6.787,1.33,11.21,7.91,9.88,14.697L314.679,691.806z"/>
			<path d="M192.631,566.445c6.15,7.648,6.675,18.413,0.391,24.48l0,0c-6.263,6.057-17.854,4.197-24.992-4.656
				c-79.997-99.094-79.997-241.122,0-340.216c7.138-8.854,18.729-10.713,24.992-4.654l0,0c6.284,6.066,5.759,16.832-0.391,24.479
				C121.956,353.424,121.956,478.899,192.631,566.445z"/>
			<path d="M250.264,535.301c4.876,6.063,5.292,14.597,0.31,19.406l0,0c-4.965,4.802-14.155,3.329-19.812-3.69
				c-63.419-78.558-63.419-191.151,0-269.709c5.658-7.02,14.848-8.493,19.812-3.69l0,0c4.981,4.81,4.566,13.343-0.31,19.405
				C194.235,366.427,194.235,465.896,250.264,535.301z"/>
			<path d="M292.947,500c3.431,4.268,3.724,10.271,0.218,13.655l0,0c-3.494,3.38-9.961,2.344-13.942-2.596
				c-44.628-55.282-44.628-134.515,0-189.795c3.981-4.939,10.448-5.976,13.942-2.597l0,0c3.506,3.385,3.213,9.391-0.218,13.657
				C253.52,381.163,253.52,451.16,292.947,500z"/>
			<path d="M401.513,731.318c0.015,6.916-5.58,12.533-12.497,12.549l0,0c-6.916,0.013-12.535-5.58-12.548-12.496l-0.924-447.107
				c-0.015-6.916,5.58-12.534,12.498-12.548l0,0c6.916-0.015,12.534,5.58,12.549,12.497L401.513,731.318z"/>
			<path d="M397.915,443.188c-1.095,2.973-4.392,4.495-7.366,3.399l-42.077-15.497c-2.973-1.096-4.495-4.394-3.399-7.366l0,0
				c1.094-2.973,4.392-4.494,7.365-3.399l42.078,15.499C397.487,436.918,399.011,440.215,397.915,443.188L397.915,443.188z"/>
			<path d="M379.317,442.334c1.096,2.973,4.393,4.495,7.365,3.399l42.078-15.497c2.973-1.096,4.495-4.393,3.4-7.366l0,0
				c-1.094-2.973-4.394-4.494-7.366-3.399l-42.078,15.499C379.744,436.064,378.222,439.361,379.317,442.334L379.317,442.334z"/>
			<path d="M397.915,504.037c-1.095,2.972-4.392,4.495-7.366,3.399l-42.077-15.499c-2.973-1.095-4.495-4.392-3.399-7.365l0,0
				c1.094-2.972,4.392-4.495,7.365-3.399l42.078,15.499C397.487,497.767,399.011,501.063,397.915,504.037L397.915,504.037z"/>
			<path d="M379.317,503.184c1.096,2.972,4.393,4.495,7.365,3.399l42.078-15.499c2.973-1.095,4.495-4.392,3.4-7.365l0,0
				c-1.094-2.972-4.394-4.495-7.366-3.399l-42.078,15.499C379.744,496.913,378.222,500.21,379.317,503.184L379.317,503.184z"/>
			<path d="M397.915,561.414c-1.095,2.972-5.279,4.168-9.349,2.67l-57.578-21.21c-4.069-1.498-6.479-5.12-5.384-8.095l0,0
				c1.094-2.973,5.28-4.169,9.349-2.671l57.578,21.21C396.6,554.816,399.011,558.44,397.915,561.414L397.915,561.414z"/>
			<path d="M388.281,624.936c-1.096,2.973-5.509,4.084-9.863,2.48l-61.587-22.686c-4.353-1.602-6.992-5.311-5.897-8.283l0,0
				c1.095-2.973,5.51-4.085,9.861-2.481l61.589,22.687C386.736,618.254,389.377,621.963,388.281,624.936L388.281,624.936z"/>
			<path d="M379.225,561.414c1.096,2.972,5.279,4.168,9.349,2.67l57.579-21.21c4.068-1.498,6.477-5.12,5.382-8.095l0,0
				c-1.094-2.973-5.279-4.169-9.347-2.671l-57.58,21.21C380.542,554.816,378.13,558.44,379.225,561.414L379.225,561.414z"/>
			<path d="M379.225,624.009c1.096,2.972,5.279,4.168,9.349,2.669l57.579-21.208c4.068-1.499,6.477-5.122,5.382-8.096l0,0
				c-1.094-2.972-5.279-4.169-9.347-2.671l-57.58,21.21C380.542,617.411,378.13,621.035,379.225,624.009L379.225,624.009z"/>
			<path d="M192.631,566.445c6.15,7.648,6.675,18.413,0.391,24.48l0,0c-6.263,6.057-17.854,4.197-24.992-4.656
				c-79.997-99.094-79.997-241.122,0-340.216c7.138-8.854,18.729-10.713,24.992-4.654l0,0c6.284,6.066,5.759,16.832-0.391,24.479
				C121.956,353.424,121.956,478.899,192.631,566.445z"/>
			<path d="M250.264,535.301c4.876,6.063,5.292,14.597,0.31,19.406l0,0c-4.965,4.802-14.155,3.329-19.812-3.692
				c-63.419-78.557-63.419-191.149,0-269.707c5.658-7.02,14.848-8.493,19.812-3.69l0,0c4.981,4.81,4.566,13.343-0.31,19.405
				C194.235,366.427,194.235,465.896,250.264,535.301z"/>
			<path d="M589.368,566.445c-6.151,7.648-6.676,18.413-0.391,24.48l0,0c6.262,6.057,17.854,4.197,24.991-4.656
				c79.999-99.094,79.999-241.122,0-340.216c-7.138-8.854-18.729-10.713-24.991-4.654l0,0c-6.285,6.066-5.761,16.832,0.391,24.479
				C660.043,353.424,660.043,478.899,589.368,566.445z"/>
			<path d="M531.735,535.301c-4.876,6.063-5.292,14.597-0.312,19.406l0,0c4.966,4.802,14.154,3.329,19.813-3.69
				c63.419-78.558,63.419-191.151,0-269.709c-5.659-7.02-14.848-8.493-19.813-3.69l0,0c-4.98,4.81-4.564,13.343,0.312,19.405
				C587.764,366.427,587.764,465.896,531.735,535.301z"/>
			<path d="M489.051,500c-3.431,4.268-3.724,10.271-0.218,13.655l0,0c3.494,3.38,9.961,2.344,13.943-2.596
				c44.627-55.282,44.627-134.515,0-189.795c-3.982-4.939-10.449-5.976-13.943-2.597l0,0c-3.506,3.385-3.213,9.391,0.218,13.657
				C528.479,381.163,528.479,451.16,489.051,500z"/>
			<path d="M589.368,566.445c-6.151,7.648-6.676,18.413-0.391,24.48l0,0c6.262,6.057,17.854,4.197,24.991-4.656
				c79.999-99.094,79.999-241.122,0-340.216c-7.138-8.854-18.729-10.713-24.991-4.654l0,0c-6.285,6.066-5.761,16.832,0.391,24.479
				C660.043,353.424,660.043,478.899,589.368,566.445z"/>
			<path d="M531.735,535.301c-4.876,6.063-5.292,14.597-0.312,19.406l0,0c4.966,4.802,14.154,3.329,19.813-3.692
				c63.418-78.557,63.419-191.149,0-269.707c-5.659-7.02-14.848-8.493-19.813-3.69l0,0c-4.98,4.81-4.564,13.343,0.312,19.405
				C587.764,366.427,587.764,465.896,531.735,535.301z"/>
			<polygon points="172.471,142.149 253.687,193.399 251.482,177.859 310.687,206.215 239.429,144.829 237.052,161.093 			"/>
			<polygon points="370.417,16.306 372.411,112.318 384.163,101.915 393.13,166.945 405.081,73.655 390.199,80.633 			"/>
			<polygon points="592.707,126.955 505.171,166.452 519.351,173.18 463.05,206.936 553.553,181.335 541.294,170.384 			"/>
		</g>
		<g>
			<g>
				<circle fill="#FFFFFF" cx="381.529" cy="217.666" r="23.191"/>
				<g>
					<path fill="#FFFFFF" d="M454.523,684.806c1.33,6.787,7.911,11.209,14.698,9.879l0,0c6.786-1.33,11.209-7.909,9.879-14.698
						l-86.007-438.755c-1.33-6.787-7.911-11.21-14.697-9.879l0,0c-6.787,1.33-11.211,7.91-9.881,14.697L454.523,684.806z"/>
					<path fill="#FFFFFF" d="M307.679,684.806c-1.33,6.787-7.91,11.209-14.696,9.879l0,0c-6.787-1.33-11.211-7.909-9.881-14.698
						l86.008-438.755c1.33-6.787,7.91-11.21,14.696-9.879l0,0c6.788,1.33,11.21,7.91,9.88,14.697L307.679,684.806z"/>
				</g>
				<path fill="#FFFFFF" d="M185.631,559.445c6.15,7.648,6.675,18.413,0.391,24.48l0,0c-6.263,6.057-17.854,4.197-24.992-4.656
					c-79.997-99.094-79.997-241.122,0-340.216c7.138-8.854,18.729-10.713,24.992-4.654l0,0c6.284,6.066,5.759,16.832-0.391,24.479
					C114.956,346.424,114.956,471.899,185.631,559.445z"/>
				<path fill="#FFFFFF" d="M243.264,528.301c4.876,6.063,5.292,14.597,0.31,19.406l0,0c-4.965,4.802-14.155,3.329-19.812-3.69
					c-63.419-78.558-63.419-191.151,0-269.709c5.658-7.02,14.848-8.493,19.812-3.69l0,0c4.981,4.81,4.566,13.343-0.31,19.405
					C187.235,359.427,187.235,458.896,243.264,528.301z"/>
				<path fill="#FFFFFF" d="M285.947,493c3.431,4.268,3.724,10.271,0.218,13.655l0,0c-3.494,3.38-9.961,2.344-13.942-2.596
					c-44.628-55.282-44.628-134.515,0-189.795c3.981-4.939,10.448-5.976,13.942-2.597l0,0c3.506,3.385,3.213,9.391-0.218,13.657
					C246.52,374.163,246.52,444.16,285.947,493z"/>
				<path fill="#FFFFFF" d="M394.513,724.318c0.015,6.916-5.58,12.533-12.498,12.549l0,0c-6.915,0.013-12.534-5.58-12.548-12.496
					l-0.924-447.107c-0.015-6.916,5.58-12.534,12.498-12.548l0,0c6.916-0.015,12.534,5.58,12.548,12.497L394.513,724.318z"/>
				<path fill="#FFFFFF" d="M390.915,436.188c-1.095,2.973-4.392,4.495-7.366,3.399l-42.078-15.497
					c-2.973-1.096-4.495-4.394-3.399-7.366l0,0c1.094-2.973,4.392-4.494,7.365-3.399l42.078,15.499
					C390.487,429.918,392.011,433.215,390.915,436.188L390.915,436.188z"/>
				<path fill="#FFFFFF" d="M372.317,435.334c1.096,2.973,4.393,4.495,7.365,3.399l42.078-15.497c2.973-1.096,4.495-4.393,3.4-7.366
					l0,0c-1.094-2.973-4.394-4.494-7.366-3.399l-42.078,15.499C372.744,429.064,371.222,432.361,372.317,435.334L372.317,435.334z"
					/>
				<path fill="#FFFFFF" d="M390.915,497.037c-1.095,2.972-4.392,4.495-7.366,3.399l-42.078-15.499
					c-2.973-1.095-4.495-4.392-3.399-7.365l0,0c1.094-2.972,4.392-4.495,7.365-3.399l42.078,15.499
					C390.487,490.767,392.011,494.063,390.915,497.037L390.915,497.037z"/>
				<path fill="#FFFFFF" d="M372.317,496.184c1.096,2.972,4.393,4.495,7.365,3.399l42.078-15.499c2.973-1.095,4.495-4.392,3.4-7.365
					l0,0c-1.094-2.972-4.394-4.495-7.366-3.399l-42.078,15.499C372.744,489.913,371.222,493.21,372.317,496.184L372.317,496.184z"/>
				<path fill="#FFFFFF" d="M390.915,554.414c-1.095,2.972-5.279,4.168-9.349,2.67l-57.577-21.21
					c-4.069-1.498-6.479-5.12-5.384-8.095l0,0c1.094-2.973,5.28-4.169,9.349-2.671l57.578,21.21
					C389.6,547.816,392.011,551.44,390.915,554.414L390.915,554.414z"/>
				<path fill="#FFFFFF" d="M381.282,617.936c-1.096,2.973-5.51,4.084-9.863,2.48l-61.587-22.686
					c-4.353-1.602-6.992-5.311-5.897-8.283l0,0c1.095-2.973,5.51-4.085,9.861-2.481l61.589,22.687
					C379.736,611.254,382.376,614.963,381.282,617.936L381.282,617.936z"/>
				<path fill="#FFFFFF" d="M372.225,554.414c1.096,2.972,5.279,4.168,9.349,2.67l57.58-21.21c4.068-1.498,6.477-5.12,5.382-8.095
					l0,0c-1.094-2.973-5.279-4.169-9.347-2.671l-57.58,21.21C373.542,547.816,371.13,551.44,372.225,554.414L372.225,554.414z"/>
				<path fill="#FFFFFF" d="M372.225,617.009c1.096,2.972,5.279,4.168,9.349,2.669l57.58-21.208
					c4.068-1.499,6.477-5.122,5.382-8.096l0,0c-1.094-2.972-5.279-4.169-9.347-2.671l-57.58,21.21
					C373.542,610.411,371.13,614.035,372.225,617.009L372.225,617.009z"/>
				<path fill="#FFFFFF" d="M185.631,559.445c6.15,7.648,6.675,18.413,0.391,24.48l0,0c-6.263,6.057-17.854,4.197-24.992-4.656
					c-79.997-99.094-79.997-241.122,0-340.216c7.138-8.854,18.729-10.713,24.992-4.654l0,0c6.284,6.066,5.759,16.832-0.391,24.479
					C114.956,346.424,114.956,471.899,185.631,559.445z"/>
				<path fill="#FFFFFF" d="M243.264,528.301c4.876,6.063,5.292,14.597,0.31,19.406l0,0c-4.965,4.802-14.155,3.329-19.812-3.692
					c-63.419-78.557-63.419-191.149,0-269.707c5.658-7.02,14.848-8.493,19.812-3.69l0,0c4.981,4.81,4.566,13.343-0.31,19.405
					C187.235,359.427,187.235,458.896,243.264,528.301z"/>
				<path fill="#FFFFFF" d="M582.368,559.445c-6.151,7.648-6.676,18.413-0.391,24.48l0,0c6.262,6.057,17.854,4.197,24.991-4.656
					c79.999-99.094,79.999-241.122,0-340.216c-7.138-8.854-18.729-10.713-24.991-4.654l0,0c-6.285,6.066-5.761,16.832,0.391,24.479
					C653.043,346.424,653.043,471.899,582.368,559.445z"/>
				<path fill="#FFFFFF" d="M524.735,528.301c-4.876,6.063-5.292,14.597-0.312,19.406l0,0c4.966,4.802,14.154,3.329,19.813-3.69
					c63.419-78.558,63.419-191.151,0-269.709c-5.659-7.02-14.848-8.493-19.813-3.69l0,0c-4.98,4.81-4.564,13.343,0.312,19.405
					C580.764,359.427,580.764,458.896,524.735,528.301z"/>
				<path fill="#FFFFFF" d="M482.051,493c-3.431,4.268-3.724,10.271-0.218,13.655l0,0c3.494,3.38,9.961,2.344,13.943-2.596
					c44.627-55.282,44.627-134.515,0-189.795c-3.982-4.939-10.449-5.976-13.943-2.597l0,0c-3.506,3.385-3.213,9.391,0.218,13.657
					C521.479,374.163,521.479,444.16,482.051,493z"/>
				<path fill="#FFFFFF" d="M582.368,559.445c-6.151,7.648-6.676,18.413-0.391,24.48l0,0c6.262,6.057,17.854,4.197,24.991-4.656
					c79.999-99.094,79.999-241.122,0-340.216c-7.138-8.854-18.729-10.713-24.991-4.654l0,0c-6.285,6.066-5.761,16.832,0.391,24.479
					C653.043,346.424,653.043,471.899,582.368,559.445z"/>
				<path fill="#FFFFFF" d="M524.735,528.301c-4.876,6.063-5.292,14.597-0.312,19.406l0,0c4.966,4.802,14.154,3.329,19.813-3.692
					c63.418-78.557,63.419-191.149,0-269.707c-5.659-7.02-14.848-8.493-19.813-3.69l0,0c-4.98,4.81-4.564,13.343,0.312,19.405
					C580.764,359.427,580.764,458.896,524.735,528.301z"/>
				<polygon fill="#FFFFFF" points="165.471,135.149 246.687,186.399 244.482,170.859 303.687,199.215 232.429,137.829 
					230.052,154.093 				"/>
				<polygon fill="#FFFFFF" points="363.417,9.306 365.411,105.318 377.163,94.915 386.13,159.945 398.081,66.655 383.2,73.633 				
					"/>
				<polygon fill="#FFFFFF" points="585.707,119.955 498.171,159.452 512.351,166.18 456.05,199.936 546.553,174.335 
					534.294,163.384 				"/>
			</g>
		</g>
	</g>
</g>
</svg>
